<?xml version="1.0" encoding="UTF-8"?>
<svg id="Layer_1" xmlns="http://www.w3.org/2000/svg" version="1.1" viewBox="0 0 1080 1080">
  <!-- Generator: Adobe Illustrator 29.7.1, SVG Export Plug-In . SVG Version: 2.1.1 Build 8)  -->
  <path d="M945.25,197.23c-13.39,48.63-9.69,104.2-52.2,155.47-32.31,38.99-31.19,105.03-47.15,158.37-33.73,112.85-64.17,226.77-110.36,335.65-17.9,42.2-29.46,86.56-33.58,133.09-2.33,26.22.39,61.32-34.48,69.69-35.26,8.47-61.58-9.02-87.93-35.31-70.31-70.23-98.53-163.97-148.29-245.06-66.5-108.4-124.15-220.16-174.02-336.02-20.44-47.51-47.2-85.62-83.03-121.71-59.82-60.26-54.3-141.82,34.4-154.82,11.71-1.71,16.35-6.53,21.3-16.43,20.78-41.74,53.58-44.07,90.49-23.76,24.04,13.24,36.3,11.04,49.38-16.87,21.17-45.16,57.05-51.37,99.22-23.71,13.26,8.7,23.63,22.07,41.87-3.89,36.68-52.2,71.76-53.11,115.68-7.33,20.7,21.55,29.43,15.21,45.86-2.69,44.38-48.37,73.97-44.51,109.9,11.66,6.71,10.49,7.41,29.35,29.09,16.37,28.24-16.89,56.97-41.22,92.39-21.32,20.21,11.37,42.98,87.31,41.43,128.58l.05.03h-.02ZM896.39,210.96c-4.4-36.22,5.88-84.87-27.23-94.15-25.91-7.25-47.59,34.64-55.31,67.1-3.86,16.22-13.5,24.51-30.21,21.45-13.01-2.38-22-11.01-22.8-24.4-2.15-36.24-1.22-87.96-39.22-90.47-34.95-2.31-33.21,51.17-41.14,82.95-3.96,15.91-14.17,24.25-28.89,26.71-18.65,3.13-22.64-10.75-27.15-24.97-6.01-18.99-13.91-37.38-21.17-55.99-6.55-16.84-12-37.28-34.28-36.56-25.47.85-17.18,27.64-26.58,40.86-18.08,25.36,26.55,70.49-15.67,78.11-32.67,5.88-39.92-44.04-62.59-65.39-1.37-1.3-1.74-3.6-2.75-5.31-8.86-14.95-22.1-27.25-38.89-19.74-14.53,6.5-21.97,23.14-20.03,40.47,1.32,11.89,4.72,23.6,7.72,35.26,3.42,13.34,12.12,29.38-3.34,38.06-16.81,9.46-29.61-4.02-41.48-15.57-17.18-16.74-34.46-33.5-52.95-48.68-8.73-7.18-20.34-15.44-32.36-5.93-12.85,10.16-12.77,25.26-7.51,38.52,4.3,10.86,15.44,19.04,19.4,29.95,4.97,13.6,3.24,28.86-10.83,37.28-13.81,8.29-21.66-3.32-29.51-12.36-9.22-10.6-17.77-21.92-27.88-31.58-20.34-19.4-28.76-3.81-31.19,13.78-6.63,48.24,83.19,123.6,129.02,107.1,158.86-57.23,320.89-79.04,484.23-28.45,60.88,18.86,79.77,1.74,84.9-53.39,1.48-15.96,4.02-31.79,5.7-44.69l-.03.03h.02ZM356.27,505.84c179.17-75.65,299.25-73.37,419.9-39.3,32.41,9.15,41.22,4.97,46.35-24.46,3.08-17.69,8.01-35.16,13.08-52.41,5.08-17.2,8.21-31.94-17.62-32.12-67.54-.47-132.05-23.73-201.27-20.03-72.67,3.89-140.83,26.79-211.97,35.83-30.44,3.86-71.12,5.18-87.28,32.62-14.74,25,23.32,45.7,30.23,71.81,2.49,9.35,5.62,18.52,8.52,28.06h.06ZM601.41,519.15c-67.8-1.32-129.8,10.03-182.59,45.29-49.53,33.08,9.56,54.15,15.8,81.43,3.32,14.48,6.76,36.56,29.9,17.2,70.03-58.65,151.61-46.35,228.01-27.72,63.37,15.47,74.33-24.3,90.86-62.49,9.07-20.98,1.99-41.22-25.93-41.56-53.78-.65-105.44-26.3-156.04-12.12v-.03h-.01ZM612,671c-31.17,8.99-75.11,5.03-108.47,36.11-15.83,14.77-22.46,27.41-12.72,51.24,10.86,26.55,27.33,25.96,46.94,20.03,41.94-12.69,83.45-20.03,127.31-9.27,54.56,13.37,58.91-33.86,64.95-64.74,7.85-40-32.93-19.64-50.55-27.36-17.12-7.51-39.07-4.07-67.46-6.04v.03h0ZM681.93,831.96c-36.17-2.02-65.99-14.02-97.88-3.39-37.54,12.51-59.48,25.13-29.9,70.62,23.52,36.14,54.51,61.84,87.44,95.21,12.64-56.87,13.11-111.25,40.34-162.44Z"/>
  <path d="M896.39,210.96c-1.66,12.9-4.22,28.73-5.7,44.69-5.1,55.13-24.02,72.26-84.9,53.39-163.35-50.6-325.37-28.78-484.23,28.45-45.83,16.5-135.65-58.86-129.02-107.1,2.41-17.57,10.86-33.19,31.19-13.78,10.13,9.66,18.65,20.98,27.88,31.58,7.85,9.04,15.7,20.62,29.51,12.36,14.04-8.42,15.8-23.71,10.83-37.28-3.99-10.88-15.13-19.09-19.4-29.95-5.26-13.26-5.31-28.37,7.51-38.52,12.02-9.51,23.63-1.22,32.36,5.93,18.5,15.18,35.78,31.94,52.95,48.68,11.87,11.55,24.64,25.03,41.48,15.57,15.47-8.68,6.76-24.72,3.34-38.06-3.01-11.66-6.37-23.37-7.72-35.26-1.94-17.36,5.49-33.96,20.03-40.47,16.79-7.51,30.03,4.79,38.89,19.74,1.01,1.71,1.37,4.02,2.75,5.31,22.67,21.32,29.95,71.24,62.59,65.39,42.23-7.59-2.41-52.72,15.67-78.11,9.43-13.21,1.11-40.03,26.58-40.86,22.31-.75,27.72,19.69,34.28,36.56,7.23,18.6,15.16,37,21.17,55.99,4.51,14.25,8.5,28.14,27.15,24.97,14.69-2.46,24.9-10.78,28.89-26.71,7.93-31.76,6.19-85.26,41.14-82.95,38.01,2.51,37.07,54.22,39.22,90.47.8,13.39,9.79,22.02,22.8,24.4,16.68,3.06,26.35-5.23,30.21-21.45,7.75-32.49,29.4-74.38,55.31-67.1,33.11,9.27,22.82,57.93,27.23,94.15l.03-.03h-.02Z" fill="#dfe5bc"/>
  <path d="M356.27,505.84c-2.93-9.53-6.06-18.7-8.52-28.06-6.94-26.11-44.98-46.84-30.23-71.81,16.19-27.41,56.84-28.76,87.28-32.62,71.14-9.02,139.28-31.94,211.97-35.83,69.22-3.7,133.73,19.53,201.27,20.03,25.8.18,22.67,14.92,17.62,32.12-5.08,17.28-10,34.72-13.08,52.41-5.13,29.43-13.96,33.6-46.35,24.46-120.68-34.09-240.73-36.35-419.9,39.3h-.06Z" fill="#dfe5bc"/>
  <path d="M601.41,519.15c50.6-14.15,102.26,11.5,156.04,12.12,27.93.34,35,20.57,25.93,41.56-16.5,38.19-27.46,77.95-90.86,62.49-76.43-18.63-157.98-30.93-228.01,27.72-23.14,19.38-26.58-2.69-29.9-17.2-6.24-27.28-65.34-48.34-15.8-81.43,52.8-35.26,114.82-46.61,182.59-45.29v.03h.01Z" fill="#dfe5bc"/>
  <path d="M612,671c28.42,1.97,50.34-1.48,67.46,6.04,17.59,7.72,58.37-12.64,50.55,27.36-6.04,30.86-10.39,78.11-64.95,64.74-43.86-10.75-85.39-3.42-127.31,9.27-19.61,5.93-36.11,6.5-46.94-20.03-9.74-23.83-3.11-36.48,12.72-51.24,33.37-31.09,77.31-27.12,108.47-36.11v-.03h0Z" fill="#dfe5bc"/>
  <path d="M681.93,831.96c-27.23,51.19-27.69,105.57-40.34,162.44-32.93-33.37-63.91-59.07-87.44-95.21-29.59-45.47-7.64-58.08,29.9-70.62,31.89-10.62,61.69,1.37,97.88,3.39Z" fill="#dfe5bc"/>
</svg>