<?xml version="1.0" encoding="UTF-8"?>
<svg id="Layer_1" xmlns="http://www.w3.org/2000/svg" version="1.1" viewBox="0 0 1080 1080">
  <!-- Generator: Adobe Illustrator 29.7.1, SVG Export Plug-In . SVG Version: 2.1.1 Build 8)  -->
  <path d="M812.11,487.66c-.03,83.17,9.1,164.41,11.31,245.94,1.4,51.62,2.21,103.4-6.9,154.62-1.56,8.75-3.48,15.34,7.04,22.34,23.44,15.59,18.32,47.83-9.54,57.76-41.2,14.7-83.6,24.09-128.07,22.15-56.64-2.47-113.34-4.03-170.03-5.05-60.45-1.09-120.92-.99-181.37-1.61-46.77-.48-93.61-2.85-140.3-1.25-22.81.78-42.88-7.59-64.36-10.67-6.86-.99-11.16-5.24-13.39-12.45-8.45-27.24-10.57-53.14-3.45-82.43,9.44-38.88,13.58-79.25,24.22-118.09,11.06-40.37,27.04-79.11,40.73-118.54,14.45-41.65,34.33-80.95,47.63-122.91,9.49-29.92,17.78-60.73,36.97-86.17,8.13-10.77,4.55-15.62-2.45-23.97-15.37-18.34-20.14-53.98-3.52-64.5,23.49-14.85,35.97-35.53,51.31-56.22,5.86-7.91,11.24-13.98,12.25-23.72,3.84-37.1,5.59-39.44,41.27-46.01,7.31-1.35,5.54-6.07,7.5-10.01,9.2-18.42,24.24-30.26,44.91-25.8,14.39,3.11,17.41-2.78,18.08-13.36.91-14.51,6.11-26.03,20.95-29.01,15.99-3.21,27.8,6.66,33.14,19.76,27.19,66.75,91.03,94.09,142.2,135.2,52.6,42.26,108.63,80.09,156.58,128.46,19.89,20.06,35.03,37.74,27.31,65.54h-.02ZM315.45,442.1c-21.28-11.56-24.02,13.19-30.46,32.61-10.45,31.58-23.18,62.31-32.49,94.39-6.41,22.1-6.63,34.61,20.76,34.09,6.99-.14,16.17,1.48,13.81,12.3-2.03,9.33-11.11,8.61-18.08,8.87-4.62.18-9.34-3.45-14.02-3.48-5.82-.04-12.64-8.24-17.3.47-2.52,4.71-4.18,11.35-2.94,16.28,2.15,8.53,10.53,5.59,16.68,5.62,7.98.04,19.01-2.94,20.17,7.82,1.39,12.89-11.95,10.2-19.69,12.74-2.94.96-6.61.79-9.66.02-13.58-3.44-14.9,6.01-16.03,15.17-1.56,12.58,7.76,10.17,14.53,9.25,6.37-.86,12.65-.62,13.98,5.91,1.88,9.2-6.39,10.13-12.72,10.82-20.48,2.22-29.99,12.7-29.6,33.88.16,8.55-3.53,17.62-7.15,25.71-16.1,35.92-17.77,75.12-26.63,112.66-2.98,12.63,1.87,21.9,12.71,20.12,20.73-3.4,39.6,5.86,58.75,5.47,47.5-.96,94.92,1.29,142.37.52,44.49-.73,89.27-6.42,133.37-2.96,86.43,6.8,172.97,7.07,259.45,10.51,10.97.43,18.65-1.67,19.01-15.74,1.22-47.77,3.1-95.64-1.17-143.21-8.25-92.03-18.2-183.87-11.11-276.53.96-12.46-6.52-19.84-19.76-23.64-55.28-15.84-111.9-21.68-168.76-18.86-92.63,4.58-185.22,9.91-288.05,9.21h.01l.02-.02ZM750.58,419.56c-40.47-41.69-91.6-68.46-135.75-104.46-33.56-27.36-70.68-50.55-102.69-79.51-15.93-14.41-23.09-13.3-35.7.67-49.91,55.29-100.43,110.02-150.58,165.11-2.88,3.17-8.99,6.06-5.36,11.78,2.99,4.7,8.5,4.45,13.36,3.2,10.26-2.65,20.31-5.58,31.22-4.65,55.73,4.76,111.24,1.33,166.97-2.36,72.69-4.8,145.64-6.18,218.52,10.21h.01ZM142.63,882.48c-4.01,8.56-7.92,12.96-7.73,17.17.75,17.28-10.12,39.35,14.16,48.44,15.48,5.79,31.44,9.61,49.26,9.37,45.93-.62,91.91,2.89,137.88,4.35,43.48,1.37,87.08,4.59,130.43,2.64,50.77-2.27,101.29.46,151.88,1.96,58.41,1.73,117.02,10.03,173.69-12.27,11.22-4.42,27.58-6.86,25.31-21.2-1.48-9.35-17.09-8.7-27.67-8.17-55.9,2.77-111.81,5.1-167.8,2.48-38-1.77-76.05-5.04-114.03-4.52-68.52.94-137.04,3.63-205.51,6.7-46.44,2.08-91.87-12.74-138.49-6.81-8.26,1.05-12.69-6.39-14.88-13.84-2.03-6.91-3.48-13.98-6.48-26.28h0v-.02ZM403.3,286.44c-21.93-10.06-33.15-23.57-39.06-42.06-4.52-14.11-11.77-9.99-18.59-1.28-4.22,5.38-3.42,12.24-5.28,18.18-8.41,26.82,15.02,40.85,23.14,60.93,17.4-5.67,19.52-27.09,39.8-35.77h-.01ZM425.52,259.67c-2.11-9.31,23.97-4.41,18.44-22.39-4.19-13.63-11.79-26.79-25.58-34.49-11.46-6.4-20.65-2.12-27.79,6.48-6.79,8.18-9.07,17.09,2.06,24.95,11.31,7.98,21.95,16.92,32.88,25.44h-.01ZM283.63,349.76c-14,1.13-12.83,11.84-13.14,21.3-.51,15.31,8.85,30.87,20.21,31.04,9.32.15,26.34-14.58,25.28-27.39-1.23-14.82-17.14-21.82-32.34-24.95h-.01,0ZM465.59,221.81c2.84-1.43,4.63-1.81,5.61-2.91,5.65-6.31,18.71-10.31,16.14-18.71-4.35-14.21-10.25-29.16-22.3-39.31-6.39-5.38-9.84-.02-11.79,6.21-6.33,20.18-1.95,38.02,12.35,54.7h-.01v.02ZM182.76,709.48c-13.86,43.5-37.03,84.97-32.61,132.82,5.72-45.55,33.7-85.57,32.61-132.82ZM356.86,330.88c-12.9-1.02-22.77-3.28-27.62-14.89-2.15-5.15-6.15-11.64-12.27-8.54-7.34,3.72-8.46,12.31-4.47,19.1,6.41,10.9,14.32,20.93,22.35,32.42,7.76-9.9,14.01-17.89,22-28.1h.02-.01ZM274.74,437.4c-7.54,14.57-15.31,29.03-22.37,43.84-1.07,2.24.15,6.96,2.01,8.91,2.43,2.54,6.56,1.32,7.76-2.17,5.58-16.23,16.36-30.93,12.6-50.57h0Z"/>
  <path d="M971.26,988.57c.48,18.93-22.19,41.06-44.47,38.14-13.24-1.73-32.1-4.9-32.65-26.08-.52-19.82,22.09-45.03,40.48-45.58,17.28-.52,36.2,16.8,36.63,33.52h.01ZM927.16,1002.86c7.26-3.52,21.44,3.38,22.7-11.21.71-8.24-7.84-12.96-15.29-12.56-9.71.52-20.23,3.19-20.01,16.39.12,7.18,4.97,9.65,12.61,7.39h-.01Z"/>
  <path d="M678.54,208.54c-2.85-1.67-6.27-2.67-8.04-4.95-3.74-4.78-1.2-9.98,2.39-13.07,23.78-20.46,14.54-36.22-3.45-55.88-23.18-25.31-15.89-54.42,13.51-71.33,4.65-2.68,8.46-4.84,12.7.04,4.08,4.72-.57,6.8-2.78,9.86-15.88,22.02-14.69,43.77,3.59,65.26,17.5,20.59,13.57,50.71-8.66,65.64-2.6,1.75-5.68,2.76-9.23,4.43h-.03Z"/>
  <path d="M535.06,134.35c1.33-8.41-.81-14.72-6.41-22.13-19.11-25.29-18.29-45.93-.02-71.31,3.19-4.44,4.93-12.06,12.25-8.99,8.53,3.57,8.21,12.43,5.38,18.94-4.58,10.52-9.97,20.13-6.54,32.37,2.22,7.92,4.57,13.81,12.32,19.18,14.13,9.79,13.03,35.74.2,47.48-4.03,3.7-8.8,5.42-13.36,3.56-10.17-4.17-3.76-12.44-3.81-19.1h-.01Z"/>
  <path d="M624.38,200.2c-2.79,12.17-8.66,23.27-21.23,27.21-10.24,3.22-18.85-6.9-12.9-13.05,14.74-15.23,4.47-27.72-1.87-38.67-13.34-22.98.76-38.45,11.42-55.25,2.62-4.14,7.38-6.82,12.57-3.11,3.78,2.71,5.37,8.13,2.96,10.81-19.51,21.8-2.04,40.66,4.19,60.36,1.22,3.85,3.11,7.5,4.86,11.67h0v.03Z"/>
  <path d="M914.99,873.38c14.42-1.52,26.79-2.21,25.49,15.3-.99,13.29-8.33,25.5-22.13,23.89-12.09-1.41-29.27-2.91-30.38-21.67-1.41-23.54,17.38-15.46,27.03-17.53h-.01Z"/>
  <path d="M731.74,1048.36c-8.1,1.68-12.35-1.67-11.73-10.1.79-10.79,7.07-15.38,17.71-15.48,7.88-.07,15.61.17,15.34,10.44-.36,13.62-12.07,12.87-21.32,15.13h0Z"/>
  <path d="M787.33,1032.8c-7.62.45-13.15-2.39-12.59-10.69.81-11.83,10.98-12.84,19.51-14.2,8.68-1.38,14.76,3.94,13.84,12.32-1.28,11.72-12.39,10.61-20.76,12.57h0Z"/>
  <path d="M860.73,989.88c-7.48-1.55-10.42-7.11-11-13.84-.75-8.66,3.78-13.87,12.44-14.11,6.88-.18,10.15,4.12,9.34,10.97-.86,7.28-2.16,14.44-10.78,16.99h0Z"/>
  <path d="M315.45,442.1c102.83.68,195.42-4.63,288.05-9.21,56.86-2.81,113.48,3.01,168.76,18.86,13.24,3.8,20.72,11.18,19.76,23.64-7.1,92.66,2.85,184.5,11.11,276.53,4.26,47.57,2.39,95.44,1.17,143.21-.36,14.06-8.04,16.17-19.01,15.74-86.48-3.43-173.03-3.71-259.45-10.51-44.11-3.46-88.88,2.22-133.37,2.96-47.45.78-94.87-1.47-142.37-.52-19.15.39-38.02-8.87-58.75-5.47-10.83,1.78-15.69-7.48-12.71-20.12,8.86-37.55,10.54-76.74,26.63-112.66,3.62-8.08,7.31-17.16,7.15-25.71-.39-21.18,9.13-31.66,29.6-33.88,6.33-.68,14.6-1.61,12.72-10.82-1.34-6.53-7.61-6.77-13.98-5.91-6.76.92-16.08,3.33-14.53-9.25,1.13-9.16,2.45-18.62,16.03-15.17,3.05.78,6.74.95,9.66-.02,7.74-2.53,21.08.15,19.69-12.74-1.16-10.76-12.19-7.78-20.17-7.82-6.15-.03-14.53,2.92-16.68-5.62-1.24-4.94.42-11.57,2.94-16.28,4.65-8.71,11.47-.52,17.3-.47,4.68.03,9.41,3.66,14.02,3.48,6.97-.26,16.04.45,18.08-8.87,2.36-10.81-6.82-12.43-13.81-12.3-27.39.53-27.17-11.99-20.76-34.09,9.31-32.08,22.03-62.81,32.49-94.39,6.42-19.42,9.17-44.17,30.46-32.61h-.01l-.02.02ZM645.86,846.46c25.71.29,57.43.08,88.72-6.1,10.25-2.03,16.95-3.1,20.17-19.09,10.03-49.71,13.42-98.88,8.62-149.24-4.4-46.13-18.86-86.77-48.93-123.24-31.93-38.74-75.01-57.29-120-69.61-42.41-11.61-87.07-6.76-128.67,8.82-62.77,23.51-102.46,70.67-128.07,131.27-7.88,18.66-1.11,32.83,18.86,34.96,10.46,1.12,21.11.42,31.63,1.07,4.58.28,12.21-2,13.13,3.17,2.82,16.01,3.32,32.53-2.34,48.1-4.48,12.35-16.17,5.79-23.49,5.28-31.11-2.16-55.5,7.02-72.89,34.09-12.99,20.21-21.57,42.69-38.45,61.28-9.1,10.02-13.22,29.21-4.73,46.31,7.12,14.31,20.94,15.12,31.33,13.3,28.26-4.94,55.9-6.68,84.64-3.94,24.39,2.33,49.4,0,74.01-1.99,63.45-5.15,126.33-17.56,196.44-14.45h.02ZM339.64,454.47c-35.08-3.94-22.35,30.62-38.17,42.56-7.05,5.32-5.8,21.32,5.01,29.98,2.52,2.02,4.83,4.57,7.7,5.84,17.59,7.82,32.55-.92,44.43-11.24,11.53-10.03,18.46-26.41,13.98-41.36-4.64-15.49-16.28-27.82-32.94-25.77h-.01ZM761.65,855.08c-21.61-5.88-13.52,14.23-15.68,22.58-3.78,14.69,7.92,19.91,20.29,20.14,11.74.22,25.01-3.05,25.14-16.98.15-16.78-11.58-25.33-29.75-25.74h0ZM771.83,503.82c-2.63-15.81-8.55-28.19-25.73-28.3-14.49-.08-20.06,11.44-19.49,23.09.73,14.65,5.44,30.54,23.67,31.48,17.34.88,18.23-14.97,21.55-26.25h0v-.02ZM241.35,785.43c8.61-.84,11.26-6.02,11.77-13.16.52-7.39,1.52-15.25-8.67-16.66-6.53-.91-11.53,2.55-11.37,9.24.18,7.66.8,15.9,8.27,20.58h0ZM693.37,476.85c-.53-7.71-5.27-11.32-11.17-11.65-4.79-.27-6.51,4.47-5.46,8.86,1.22,5.13.31,12.75,8.53,12.37,5.54-.25,7.87-4.97,8.1-9.58h.01-.01Z" fill="#dfe5bc"/>
  <path d="M750.58,419.56c-72.88-16.4-145.83-15.02-218.52-10.21-55.73,3.68-111.24,7.12-166.97,2.36-10.92-.93-20.96,2-31.22,4.65-4.85,1.25-10.37,1.49-13.36-3.2-3.63-5.72,2.47-8.61,5.36-11.78,50.14-55.08,100.67-109.81,150.58-165.11,12.61-13.97,19.77-15.09,35.7-.67,32,28.96,69.13,52.15,102.69,79.51,44.15,36,95.28,62.77,135.75,104.46h-.01ZM499.6,315.21c7.1,28.18,22.91,39.88,45.51,34.67,7.13-1.64,12.45-4.77,12.58-12.43.12-7.06-5.74-9.82-11.5-10.45-10.36-1.15-19.64-3.44-22.43-15.06-6.28-26.12-23.93-20.23-39.9-12.96-8.54,3.88-24.95,8.15-20.69,19.25,5.04,13.14,17.85,2.81,27.24-.4,3-1.03,6.11-1.75,9.19-2.61h-.01.01ZM454.47,369.48c10.37-6.21,16.3-1.35,21.81,8.87,4.99,9.25,14.47,13.06,25.21,11.02,10.65-2.03,14.92-13.94,8.99-17.53-13.01-7.88-18.26-23.44-30.3-29.13-7.23-3.41-19.55,4.66-29.77,6.67-8.99,1.77-20.36,2.47-17.81,14.59,2.43,11.58,13.82,3.32,21.87,5.48h0v.03Z" fill="#dfe5bc"/>
  <path d="M142.63,882.48c3,12.31,4.45,19.38,6.48,26.28,2.19,7.45,6.61,14.9,14.88,13.84,46.61-5.93,92.05,8.9,138.49,6.81,68.47-3.06,136.99-5.76,205.51-6.7,37.98-.52,76.03,2.75,114.03,4.52,55.99,2.61,111.9.28,167.8-2.48,10.58-.53,26.18-1.17,27.67,8.17,2.27,14.34-14.09,16.78-25.31,21.2-56.67,22.31-115.28,13.99-173.69,12.27-50.58-1.49-101.1-4.23-151.88-1.96-43.35,1.94-86.96-1.28-130.43-2.64-45.97-1.44-91.95-4.96-137.88-4.35-17.81.24-33.78-3.58-49.26-9.37-24.28-9.09-13.41-31.16-14.16-48.44-.18-4.22,3.72-8.61,7.73-17.17h0v.02Z" fill="#dfe5bc"/>
  <path d="M403.3,286.44c-20.29,8.68-22.4,30.1-39.8,35.77-8.11-20.09-31.54-34.11-23.14-60.93,1.86-5.94,1.06-12.8,5.28-18.18,6.83-8.7,14.07-12.82,18.59,1.28,5.92,18.49,17.14,31.99,39.06,42.06h.01Z" fill="#dfe5bc"/>
  <path d="M425.52,259.67c-10.93-8.52-21.57-17.45-32.88-25.44-11.14-7.86-8.85-16.77-2.06-24.95,7.14-8.6,16.33-12.89,27.79-6.48,13.79,7.7,21.39,20.85,25.58,34.49,5.53,17.99-20.54,13.09-18.44,22.39h.01Z" fill="#dfe5bc"/>
  <path d="M283.63,349.76c15.2,3.13,31.11,10.13,32.34,24.95,1.06,12.81-15.96,27.54-25.28,27.39-11.36-.18-20.71-15.74-20.21-31.04.31-9.45-.86-20.17,13.14-21.3h.01,0Z" fill="#dfe5bc"/>
  <path d="M465.59,221.81c-14.29-16.68-18.68-34.52-12.35-54.7,1.96-6.23,5.41-11.6,11.79-6.21,12.04,10.15,17.96,25.1,22.3,39.31,2.57,8.4-10.49,12.4-16.14,18.71-.98,1.09-2.77,1.47-5.61,2.91h.01v-.02Z" fill="#dfe5bc"/>
  <path d="M182.76,709.48c1.07,47.27-26.91,87.28-32.61,132.82-4.42-47.86,18.75-89.33,32.61-132.82Z" fill="#dfe5bc"/>
  <path d="M356.86,330.88c-8,10.21-14.25,18.2-22,28.1-8.04-11.5-15.94-21.52-22.35-32.42-4-6.79-2.87-15.38,4.47-19.1,6.13-3.1,10.12,3.39,12.27,8.54,4.84,11.6,14.72,13.86,27.62,14.89h-.02.01Z" fill="#dfe5bc"/>
  <path d="M274.74,437.4c3.76,19.64-7.02,34.34-12.6,50.57-1.2,3.48-5.33,4.71-7.76,2.17-1.86-1.94-3.08-6.65-2.01-8.91,7.06-14.8,14.83-29.27,22.37-43.84h0Z" fill="#dfe5bc"/>
  <path d="M927.16,1002.86c-7.64,2.26-12.49-.21-12.61-7.39-.22-13.2,10.31-15.86,20.01-16.39,7.44-.4,15.99,4.32,15.29,12.56-1.25,14.59-15.43,7.7-22.7,11.21h.01Z" fill="#dfe5bc"/>
  <path d="M645.86,846.46c-70.11-3.11-132.99,9.31-196.44,14.45-24.6,2-49.61,4.32-74.01,1.99-28.74-2.75-56.38-1-84.64,3.94-10.39,1.82-24.21,1.01-31.33-13.3-8.5-17.09-4.37-36.28,4.73-46.31,16.88-18.6,25.47-41.07,38.45-61.28,17.39-27.07,41.78-36.26,72.89-34.09,7.32.51,19,7.06,23.49-5.28,5.65-15.58,5.16-32.1,2.34-48.1-.92-5.17-8.55-2.88-13.13-3.17-10.53-.65-21.17.04-31.63-1.07-19.97-2.12-26.76-16.29-18.86-34.96,25.6-60.61,65.3-107.77,128.07-131.27,41.61-15.58,86.26-20.42,128.67-8.82,45,12.32,88.08,30.87,120,69.61,30.07,36.48,44.52,77.11,48.93,123.24,4.81,50.36,1.41,99.54-8.62,149.24-3.23,15.99-9.92,17.05-20.17,19.09-31.29,6.19-63.02,6.39-88.72,6.1h-.02ZM472.41,775.52c12.91,19.76,29.94-2.91,44.07,4.3,9.07-.08,13.75,13.07,25.67,6.73,32.96-17.57,46.72-11.34,60.53,25.53,2.15,5.75,2.11,12.19,11.77,12.39,30.89.65,61.78,1.89,92.59,4.15,23.51,1.72,36.82-3.37,36.02-31.52-.35-12.32,1.13-25.71,1.86-38.59.83-14.55,5.13-32.66-3.5-42.49-8.5-9.69-24.07,1.53-36.21,5.44-5.55,1.79-9.86-.31-12.05-5.28-3.18-7.24,1.95-10.19,7.55-12.6,9.95-4.27,20.2-5.67,31.06-4.91,9.7.68,15.55-1.57,11.39-14.18-4.68-14.23-6.51-29.38-10.09-44-10.96-44.68-32.83-81.62-74.14-105.04-7.32-4.15-12.9-6-18.56,1.73-5.25,7.17-16.12,9.93-12.86,23.28,8.1,33.26,5.85,34.76-29.3,33.01-27.67-1.38-57.96-6.88-64.72,33.47-.98,5.85-4.4,14.06-13.25,9.11-6.66-3.73-12.22-11.11-6.4-18.29,13.33-16.45,12.9-44.2,48.37-47.78-21-10.19-34.61-6.62-46.73-2.11-12.01,4.47-20.64,2.35-22.67-9.15-2.04-11.63,8.92-13.79,18.13-14.66,10.53-1,21.38-.22,31.6-2.44,12.03-2.62,20.56,1.88,23.38,12.02,6.27,22.55,22.5,22.27,40.66,20.43-7.7-26.32,13.16-38.94,28.33-54.32-97.91-48.83-211.4-.04-257.25,84.47-13.57,25-11.87,27.33,15.96,29.15,42.84,2.81,81.1,35,65.92,81.61-20.95,24.96-46.79,31.42-78.11,23.05-24.92-6.66-46.38-1.73-56.53,24.8,22.16,9.97,44.37,19.13,68.29,3.74,3.76-2.42,14.52-1.45,16.02,1.27,12.62,22.87,29.37,12.91,46.21,7.76,5.19-1.59,11.31-.13,16.99-.05h.01v-.03ZM279.61,838.34c17.05,2.41,31.42-1.97,46.7-6.78,17.34-5.46,17.24-16.75,18.93-28.99.92-6.65-1.44-14.88-8.67-15.45-13.32-1.06-25.21,7.4-28.82,18.32-5.1,15.42-12.56,26.17-28.13,32.91h0ZM367.94,817.2c-.43,29.21,22.76,6.91,31.82,15.9,1.97,1.95,15.19-.16,10.84-6.87-8.01-12.4,6-37.19-18.94-38.33-18.77-.85-22.38,15.24-23.73,29.31h.01ZM476.09,828.93c-7.32-4.37-9.57-9.01-9.19-15.37.54-8.95,1.83-20.06-12.32-17.28-16.06,3.17-26.53,15.2-26.44,30.73.08,14.86,13.1,5.08,20.09,5.4,7.92.36,15.95-1.85,27.86-3.48h.01,0ZM545.39,811.34c1.81,5.83-3.9,16.77,9.22,14.52,10.1-1.73,25.61,6.52,29.04-7.48,2.49-10.17-6.26-23.23-17.65-25.79-11.77-2.64-18.22,7.22-20.61,18.75h0ZM500.19,830.06c12.24.31,21.3-1.85,22.25-14.83.87-11.9-8.25-17.19-16.72-16.64-10.27.66-15.79,10.22-17.75,20.45-2.31,12.07,7.12,10.07,12.2,11.02h.02ZM420.73,668.9c2.39,13.18-6.94,28.19,5.61,38.64,2.75,2.28,8.96-3.18,10.42-8.12,4.21-14.17-.84-24.44-16.03-30.52h0Z"/>
  <path d="M339.64,454.47c16.66-2.04,28.3,10.3,32.94,25.77,4.48,14.94-2.45,31.33-13.98,41.36-11.86,10.33-26.83,19.06-44.43,11.24-2.86-1.27-5.18-3.82-7.7-5.84-10.81-8.65-12.06-24.65-5.01-29.98,15.82-11.94,3.08-46.5,38.17-42.56h.01ZM330.14,516.9c12.94-3.34,20.5-12.7,21.61-27.01.46-5.96-5.72-10.49-9.12-8.17-10.03,6.85-25.54,9.11-26.89,24.53-.63,7.22,5.21,11.37,14.39,10.64h.01Z"/>
  <path d="M761.65,855.08c18.17.41,29.9,8.96,29.75,25.74-.13,13.93-13.4,17.2-25.14,16.98-12.36-.23-24.07-5.45-20.29-20.14,2.15-8.35-5.94-28.47,15.68-22.58h0Z"/>
  <path d="M771.83,503.82c-3.32,11.29-4.21,27.14-21.55,26.25-18.22-.93-22.94-16.81-23.67-31.48-.58-11.64,5-23.17,19.49-23.09,17.18.11,23.09,12.49,25.73,28.3h0v.02ZM757.49,504.99c1.11-9.35-3.85-14.29-11.99-15.22-4.12-.47-7.48,3.17-6.55,8.12,1.48,7.87,2.39,17.32,12.53,18.12,6.66.53,4.21-7.33,6.02-11.01h-.01Z"/>
  <path d="M241.35,785.43c-7.47-4.68-8.1-12.92-8.27-20.58-.16-6.71,4.84-10.15,11.37-9.24,10.19,1.41,9.19,9.27,8.67,16.66-.49,7.14-3.16,12.32-11.77,13.16h0Z"/>
  <path d="M693.37,476.85c-.22,4.61-2.57,9.34-8.1,9.58-8.23.38-7.32-7.24-8.53-12.37-1.04-4.4.67-9.14,5.46-8.86,5.88.34,10.64,3.95,11.17,11.65h-.01.01Z"/>
  <path d="M499.6,315.21c-3.07.86-6.19,1.58-9.19,2.61-9.38,3.21-22.2,13.54-27.24.4-4.26-11.1,12.15-15.37,20.69-19.25,15.97-7.26,33.61-13.16,39.9,12.96,2.79,11.61,12.07,13.92,22.43,15.06,5.76.63,11.61,3.39,11.5,10.45-.13,7.65-5.45,10.79-12.58,12.43-22.6,5.2-38.41-6.48-45.51-34.67h.01,0Z"/>
  <path d="M454.47,369.48c-8.04-2.17-19.43,6.1-21.87-5.48-2.55-12.13,8.82-12.82,17.81-14.59,10.21-2.01,22.54-10.09,29.77-6.67,12.04,5.68,17.29,21.23,30.3,29.13,5.93,3.59,1.66,15.51-8.99,17.53-10.74,2.04-20.23-1.77-25.21-11.02-5.52-10.23-11.45-15.09-21.81-8.87h0v-.03Z"/>
  <path d="M459.54,714.95c15.18-46.6-23.09-78.8-65.92-81.61-27.83-1.82-29.53-4.16-15.96-29.15,45.87-84.5,159.34-133.3,257.25-84.47-15.16,15.38-36.01,28-28.33,54.32-18.16,1.84-34.38,2.12-40.66-20.43-2.82-10.15-11.36-14.64-23.38-12.02-10.22,2.22-21.08,1.44-31.6,2.44-9.22.87-20.17,3.03-18.13,14.66,2.02,11.5,10.64,13.62,22.67,9.15,12.12-4.52,25.73-8.08,46.73,2.11-35.47,3.58-35.05,31.33-48.37,47.78-5.82,7.18-.25,14.56,6.4,18.29,8.85,4.95,12.27-3.25,13.25-9.11,6.77-40.35,37.06-34.85,64.72-33.47,35.15,1.76,37.39.24,29.3-33.01-3.25-13.35,7.61-16.1,12.86-23.28,5.65-7.73,11.23-5.88,18.56-1.73,41.32,23.41,63.18,60.36,74.14,105.04,3.59,14.62,5.4,29.77,10.09,44,4.16,12.62-1.69,14.86-11.39,14.18-10.85-.77-21.11.63-31.06,4.91-5.61,2.41-10.74,5.36-7.55,12.6,2.19,4.98,6.51,7.07,12.05,5.28,12.15-3.93,27.72-15.13,36.21-5.44,8.62,9.82,4.34,27.94,3.5,42.49-.74,12.89-2.21,26.28-1.86,38.59.79,28.16-12.52,33.23-36.02,31.52-30.8-2.25-61.71-3.5-92.59-4.15-9.66-.2-9.62-6.64-11.77-12.39-13.81-36.87-27.57-43.09-60.53-25.53-11.91,6.35-16.59-6.8-25.67-6.73-1.77-3.24-3.54-6.47-5.31-9.72,15.43-9.01,13.02-24.08,9.15-36.57-4.51-14.54-4.71-35.77-21.33-40-15.75-4.01-25.02,14.03-35.65,24.5-1.24-1.06-2.51-2.08-3.81-3.06h-.01.02ZM576.77,732.49c21.55-.78,41.86-7.05,56.97-17.61,21.41-14.96,22.9-35.4,3.15-51.95-20.74-17.38-47.33-19.24-72.16-24.2-16.66-3.33-13.09,18.15-22.03,24.32-16.38,11.31-23.92,26.57-15.92,43.65,9.15,19.54,26.49,30.49,49.99,25.79h0Z" fill="#dfe5bc"/>
  <path d="M472.41,775.52c-5.7-.06-11.81-1.53-16.99.05-16.84,5.15-33.6,15.11-46.21-7.76-1.51-2.73-12.25-3.7-16.02-1.27-23.91,15.4-46.12,6.23-68.29-3.74,10.15-26.54,31.61-31.47,56.53-24.8,31.32,8.38,57.16,1.91,78.11-23.05,1.31.98,2.58,2,3.81,3.06-3.7,18.64-16.09,38.9,9.69,52.06-.21,1.81-.41,3.63-.62,5.44h-.01Z" fill="#dfe5bc"/>
  <path d="M279.61,838.34c15.57-6.74,23.03-17.49,28.13-32.91,3.61-10.92,15.51-19.39,28.82-18.32,7.23.58,9.59,8.8,8.67,15.45-1.68,12.24-1.6,23.53-18.93,28.99-15.28,4.81-29.64,9.19-46.7,6.78h0Z" fill="#dfe5bc"/>
  <path d="M367.94,817.2c1.35-14.06,4.96-30.16,23.73-29.31,24.94,1.14,10.93,25.93,18.94,38.33,4.34,6.73-8.89,8.82-10.84,6.87-9.06-8.99-32.26,13.32-31.82-15.9h-.01Z" fill="#dfe5bc"/>
  <path d="M476.09,828.93c-11.92,1.63-19.94,3.84-27.86,3.48-7-.32-20.01,9.46-20.09-5.4-.08-15.53,10.38-27.56,26.44-30.73,14.15-2.79,12.85,8.33,12.32,17.28-.38,6.36,1.87,11,9.19,15.37h-.01.01Z" fill="#dfe5bc"/>
  <path d="M545.39,811.34c2.4-11.54,8.85-21.39,20.61-18.75,11.39,2.56,20.15,15.61,17.65,25.79-3.44,14-18.95,5.76-29.04,7.48-13.12,2.25-7.41-8.68-9.22-14.52h0Z" fill="#dfe5bc"/>
  <path d="M500.19,830.06c-5.08-.95-14.51,1.05-12.2-11.02,1.95-10.23,7.46-19.79,17.75-20.45,8.46-.55,17.59,4.75,16.72,16.64-.96,12.98-10.01,15.13-22.25,14.83h-.02Z" fill="#dfe5bc"/>
  <path d="M420.73,668.9c15.19,6.07,20.24,16.35,16.03,30.52-1.46,4.94-7.66,10.4-10.42,8.12-12.56-10.44-3.23-25.44-5.61-38.64h0Z" fill="#dfe5bc"/>
  <path d="M472.41,775.52c.21-1.81.41-3.63.62-5.44,12.71,5.26,25.42,2.87,38.14.03,1.77,3.24,3.54,6.47,5.31,9.72-14.13-7.2-31.16,15.46-44.07-4.3h0Z" fill="#dfe5bc"/>
  <path d="M330.14,516.9c-9.18.73-15.02-3.42-14.39-10.64,1.35-15.43,16.85-17.69,26.89-24.53,3.39-2.32,9.58,2.21,9.12,8.17-1.12,14.31-8.66,23.67-21.61,27.01h-.01Z" fill="#dfe5bc"/>
  <path d="M757.49,504.99c-1.8,3.68.64,11.55-6.02,11.01-10.13-.8-11.04-10.24-12.53-18.12-.93-4.95,2.44-8.58,6.55-8.12,8.14.93,13.1,5.86,11.99,15.22h.01Z" fill="#dfe5bc"/>
  <path d="M576.78,732.49c-23.51,4.7-40.85-6.24-50-25.78-8-17.08-.46-32.34,15.92-43.65,8.95-6.17,5.37-27.64,22.03-24.32,24.83,4.96,51.43,6.82,72.16,24.2,19.75,16.55,18.26,36.99-3.15,51.95-15.12,10.56-35.42,16.83-56.97,17.6h.01ZM584.3,689.19c-10.54-3.13,8.25-21.33-9.72-20.49-13.5.63-29.11,5.78-30.73,22.61-1.47,15.38,13.13,17.22,23.91,18.9,14.07,2.19,14.51-9.5,16.54-21.02h0ZM609.18,672.15c-8.22.19-13.41,4.17-10.62,10.45,2.58,5.8-3.74,18.55,9.67,16.8,7.43-.97,18.76-2.21,18.75-11.96,0-9.96-11.17-11.96-17.81-15.3h.01Z"/>
  <path d="M511.18,770.09c-12.72,2.84-25.42,5.24-38.14-.03-25.77-13.15-13.38-33.41-9.69-52.06,10.61-10.46,19.9-28.51,35.65-24.5,16.63,4.23,16.82,25.48,21.33,40,3.87,12.5,6.28,27.55-9.15,36.57h0v.02ZM507.77,740.72c-5.91-5.01-3.56-17.83-12.24-18.16-7.7-.29-13.59,7.36-12.43,16.93.97,7.95,6.15,11.19,13.39,9.53,4.31-.98,12.2,1.32,11.29-8.3h-.01Z"/>
  <path d="M584.3,689.19c-2.04,11.53-2.46,23.21-16.54,21.02-10.78-1.67-25.38-3.52-23.91-18.9,1.61-16.84,17.23-21.98,30.73-22.61,17.98-.84-.81,17.35,9.72,20.49h0Z" fill="#dfe5bc"/>
  <path d="M609.18,672.15c6.64,3.35,17.8,5.34,17.81,15.3,0,9.75-11.32,10.99-18.75,11.96-13.41,1.75-7.11-11.01-9.67-16.8-2.79-6.28,2.4-10.25,10.62-10.45h-.01Z" fill="#dfe5bc"/>
  <path d="M507.77,740.72c.92,9.61-6.98,7.31-11.29,8.3-7.24,1.65-12.42-1.58-13.39-9.53-1.17-9.57,4.73-17.22,12.43-16.93,8.67.33,6.34,13.16,12.24,18.16h.01Z" fill="#dfe5bc"/>
</svg>