<?xml version="1.0" encoding="UTF-8"?>
<svg id="Layer_1" xmlns="http://www.w3.org/2000/svg" version="1.1" viewBox="0 0 1080 1080">
  <!-- Generator: Adobe Illustrator 29.7.1, SVG Export Plug-In . SVG Version: 2.1.1 Build 8)  -->
  <path d="M759.06,483.36c-2.03,78.31,7.67,144.96,18.98,211.38,6.12,36,2.13,42.53-32.96,50.33-63.57,14.11-125.82,32.78-187.82,52.86-40.8,13.2-84.23,17.05-125.57,30.33-56.62,18.19-114.47,32.51-171.74,48.67-6.36,1.8-12.28,5.16-18.62,7.04-71.99,21.39-81.55,13.09-101.29-58.34-21.06-76.22-43.52-152.24-41.76-231.55.78-35.28-11.52-42.17-41.45-44.68-34.54-2.9-47.22-29.65-33.73-62.01,4.44-10.63,12.4-21.06,4.42-34.19-2.47-4.08-2.76-12.17-.32-16.11,16.34-26.32,31.41-52.61,22.7-85.48-.24-.91.39-2.87.99-3.05,39.15-11.84,27.91-55.51,45.63-74.61,21.08-22.71,35.95-47.27,53.06-71.85,19.42-27.9,62.02-18.95,76.32,18.07,9.8,25.39,24.77,29.09,47.22,30.82,100.15,7.7,198.09,30.13,297.05,45.21,59.77,9.12,111.93,41.74,172.36,43.73,11.77.39,14.9,7.49,12.79,18.2-8.94,45.53,5.56,90.48,3.75,125.25v-.03h0ZM160.03,520.81c67.06,1.7,128.27-11.97,189.2-29.37,87.39-24.96,168.23-70.56,259.26-83.47,44.39-6.31,83.46-26.1,127.81-41.74-96.72-27.17-190.81-47.61-286.21-61.09-64.97-9.18-130.72-13.16-195.36-24.05-21.13-3.56-26.05,3.69-29.44,18.48-17.07,74.42-31.51,149.53-65.25,221.25h0ZM300.02,767.57c64.65,1.03,117.45-25.29,174.46-22.21,12.64.68,33.45-15.06,31.25-33.37-1.65-13.73-20.52-6.98-31.71-9.18-13.92-2.72-32.87-.72-35.96-17.76-2.82-15.52,1.78-31.69,16.87-44.03,20.5-16.78,38.82-36.35,57.22-55.54,6.87-7.15,12.25-16.98,7.67-27.37-4.48-10.14-14.88-7.94-23.55-7.73-28.06.69-48.03-9.37-50.86-39.91-1.85-19.98-15.92-16.61-26.36-13.12-37.45,12.51-74.32,26.84-111.85,40.64,35.86,43.34,33.83,57.37-11.16,98.5-6.71,6.13-17.24,12.21-12.51,24.85,5.45,14.58,17.56,14.84,30.34,14.4,7.69-.27,15.44,1.29,23.1.83,12.04-.73,23.73,1.81,28.13,13.07,4.61,11.81-5.79,20.44-13.27,28.09-15.11,15.44-31.09,30.03-51.81,49.85h0ZM518.1,739.73c43.03-12.64,80.97-23.52,118.71-35,22.77-6.92,36.76-26.31,36.3-46.58-.52-22.64-25.29-14.58-40.36-17.47-40.51-7.76-50.9-32.1-30.04-67.58,19.47-33.13,45.61-62.78,54.13-101.82,6.67-30.57-9.64-48.62-39.65-41.98-41.98,9.28-82.87,21.62-122.32,39.61-20.52,9.37-24.24,26.03-23.79,42.28.57,20.79,19.98,15.21,33.72,16.41,38.59,3.36,49.82,27.6,31.51,61.72-15.34,28.58-42.02,45.11-63.39,67.28-5.06,5.24-14.6,9.22-11.8,18.45,2.96,9.73,12.46,6.77,19.93,7.13,44.58,2.1,50.71,10.3,37.05,57.55h-.01.01ZM337.61,702.31c-13.55-6.69-24.67-3.4-35.49-3.95-17.56-.88-34.91-5.7-40.47-23.66-5.67-18.3-5.32-37.83,13.58-51.05,5.43-3.79,10.62-7.96,15.76-12.14,11.13-9.07,16.67-21.92,14.51-35.05-1.98-12.05-14.94-15.1-25.76-18.2-22.47-6.42-45-11.87-68.72-7.61-38.09,6.84-44.64,14.02-36.64,51.42,12.73,59.39,25.07,118.76,29.9,179.43.39,4.96-2.74,14.78,3.86,13.39,25.67-5.39,65.67-6.32,72.93-21.79,13.56-28.92,38.62-44.52,56.53-70.79h.01ZM664.31,419.07c23.59,22.01,15.98,47.21,8.61,71.83-10.89,36.42-32.77,67.42-53.89,98.04-13.45,19.51-3.51,26.08,10.63,31.75,10.03,4.04,21.67,4.7,32.67,5.53,29.64,2.24,34.19,19.48,27.51,44.12-1.9,7.03-9.24,13.16-2.47,23.55,14.96-3.99,30.41-9.3,46.3-11.94,11.42-1.9,16.12-6.88,13.94-17.54-14.48-70.77-9.88-142.69-13.62-214.11-1.06-20.33,11.46-50.1-6.98-58.59-17.76-8.17-39.21,14.77-62.7,27.37h0ZM135.33,553.45c-12.51,9.67-12.3,19.98-12.14,32.86,1.09,87.48,28.19,170.1,45.24,254.62,5.57,27.6,19.93,31.28,44.49,23.46,46.15-14.65,92.61-28.65,139.6-40.24,108.31-26.71,217.02-51.73,325.54-77.61,24.84-5.92,49.36-13.16,74.3-18.6,11.94-2.6,14.31-11.31,13.3-19.74-1.48-12.44-12.36-10.34-20.96-8.79-5.37.96-10.47,3.62-15.59,5.8-114.68,48.98-237.8,65.34-358.26,91.44-41.89,9.08-84.32,15.16-125.29,28.58-33.1,10.83-59.95-4.73-65.74-40.97-12.27-76.86-36.13-151.33-44.49-230.79h0v-.02ZM152.25,452.57c2.1-13.86-9.64-19.25-20.87-24.04-21.23-9.02-42.58-21.06-66.1-6.69-9.08,5.55-15.04,13.63-11.98,25.07,3.07,11.49,11.88,15.36,22.91,15.11,17.96-.39,35.3,1.31,51.71,9.9,18.42,9.64,23.69-.85,24.35-19.35h-.02ZM108.65,350.22c-14.07-1.26-30.16.73-33.92,14.38-3.71,13.43,14.18,18.02,23.25,23.3,15.9,9.27,35.44,12.2,51.61,21.13,16.29,9.01,18.53.82,20.9-11.68,4.63-24.32-24.08-46.32-61.83-47.14h0ZM185.96,326.83c1.11-21.78-41.22-56.78-59.06-49.94-12.38,4.74-22.99,12.25-10.19,29.7,11.29,15.4,29.14,19.38,42.22,30.95,5.23,4.61,10.39,14.75,18.56,7.6,5.2-4.55,6.45-13.62,8.46-18.3h0ZM195.64,286.12c16.9-53.34,15.89-61.29-5.45-70.27-17.08-7.18-28.47,4.6-31.58,15.24-9.01,30.95,20.57,38.29,37.02,55.01h0v.02ZM96.38,524.55c.06-.78.11-1.55.17-2.33,5.46,0,11.25-1.19,16.31.24,10.98,3.1,20.85,3.74,22.23-10.37,1.42-14.4-10.17-14.11-20.29-15.29-16.42-1.91-32.78-4.45-49.13-6.95-10.66-1.62-17.25,2.84-19.27,13.15-2.11,10.82,2.96,16.54,13.95,17.56,12.04,1.11,24.02,2.64,36.03,3.99h0Z"/>
  <path d="M930.96,570.86c-18.35-.93-32.96-6.95-31.65-24.12,1.54-20.24,10.53-38.65,35.59-39.84,19.91-.95,24.71,15.52,24.57,28.63-.19,18.03-9.83,33.09-28.49,35.33h-.02Z"/>
  <path d="M781.6,850.41c-9.18.11-16.56-5.33-17.4-14.73-.85-9.42,6.01-16.68,15.52-18.03,9.15-1.31,18.75,1.82,20.01,12.21,1.36,11.21-5.9,18.09-18.13,20.53h0v.02Z"/>
  <path d="M1062.19,781.93c-2.72,9.86-7.26,18.58-18.58,19.83-7.69.85-12.41-4.27-11.9-11.84.66-9.63,6.91-16.35,15.98-18.12,6.61-1.28,12.3,2.79,14.5,10.14h0Z"/>
  <path d="M160.03,520.81c33.76-71.72,48.19-146.84,65.25-221.25,3.39-14.78,8.3-22.02,29.44-18.48,64.64,10.89,130.39,14.87,195.36,24.05,95.41,13.48,189.5,33.92,286.21,61.09-44.35,15.63-83.41,35.43-127.81,41.74-91.03,12.92-171.87,58.52-259.26,83.47-60.93,17.4-122.13,31.06-189.2,29.37h0ZM338.83,407.26c11.45,9.4,20.7,17,29.97,24.6,7.69,6.32,17.56,7.99,24.35,2.07,8.66-7.54,1.91-16.12-3.94-22.96-4.32-5.04-9.32-9.5-13.88-14.34-9.09-9.64-12.05-18.46,2.18-26.68,7.71-4.45,22.08-6.75,14.29-20.6-7.11-12.64-21.22-10.23-29.34-3.39-18.83,15.88-35.46,16.02-54.91,1.7-7.18-5.29-17.87-3.65-23.78,4.76-3.86,5.49-5.27,15.04.8,18.38,33.36,18.27,11.68,30.85-3.22,45.44-7.9,7.74-16.38,18.17-3.92,28.37,11.08,9.07,22.05,7.01,31.56-4.88,8.85-11.06,19.17-20.96,29.84-32.45h-.03l.03-.02Z" fill="#dfe5bc"/>
  <path d="M300.02,767.57c20.72-19.83,36.69-34.42,51.81-49.85,7.49-7.64,17.89-16.28,13.27-28.09-4.4-11.26-16.09-13.79-28.13-13.07-7.66.46-15.42-1.11-23.1-.83-12.79.46-24.9.19-30.34-14.4-4.71-12.63,5.82-18.72,12.51-24.85,45-41.13,47.01-55.15,11.16-98.5,37.53-13.81,74.38-28.13,111.85-40.64,10.44-3.49,24.51-6.87,26.36,13.12,2.83,30.54,22.8,40.61,50.86,39.91,8.66-.22,19.06-2.4,23.55,7.73,4.58,10.39-.8,20.21-7.67,27.37-18.4,19.18-36.72,38.75-57.22,55.54-15.09,12.36-19.68,28.52-16.87,44.03,3.09,17.04,22.04,15.04,35.96,17.76,11.18,2.18,30.06-4.55,31.71,9.18,2.2,18.32-18.6,34.05-31.25,33.37-57.01-3.07-109.81,23.26-174.46,22.21h0Z" fill="#dfe5bc"/>
  <path d="M518.1,739.73c13.65-47.25,7.53-55.46-37.05-57.55-7.49-.34-16.98,2.6-19.93-7.13-2.8-9.22,6.74-13.19,11.8-18.45,21.36-22.17,48.04-38.7,63.39-67.28,18.32-34.12,7.08-58.36-31.51-61.72-13.72-1.19-33.14,4.38-33.72-16.41-.45-16.26,3.26-32.93,23.79-42.28,39.45-18,80.35-30.33,122.32-39.61,30.01-6.64,46.32,11.42,39.65,41.98-8.52,39.03-34.65,68.69-54.13,101.82-20.86,35.49-10.46,59.82,30.04,67.58,15.07,2.89,39.84-5.17,40.36,17.47.46,20.26-13.53,39.65-36.3,46.58-37.74,11.48-75.68,22.35-118.71,35h.01-.01Z" fill="#dfe5bc"/>
  <path d="M337.61,702.31c-17.9,26.28-42.97,41.88-56.53,70.79-7.26,15.47-47.27,16.41-72.93,21.79-6.61,1.39-3.48-8.43-3.86-13.39-4.83-60.67-17.17-120.03-29.9-179.43-8.02-37.41-1.45-44.59,36.64-51.42,23.73-4.25,46.25,1.18,68.72,7.61,10.82,3.09,23.79,6.13,25.76,18.2,2.16,13.15-3.38,26-14.51,35.05-5.14,4.18-10.33,8.35-15.76,12.14-18.89,13.2-19.25,32.73-13.58,51.05,5.56,17.96,22.92,22.79,40.47,23.66,10.82.55,21.92-2.74,35.49,3.95h-.01Z" fill="#dfe5bc"/>
  <path d="M664.31,419.07c23.49-12.6,44.95-35.54,62.7-27.37,18.45,8.49,5.92,38.26,6.98,58.59,3.74,71.42-.85,143.35,13.62,214.11,2.18,10.66-2.51,15.65-13.94,17.54-15.89,2.64-31.35,7.96-46.3,11.94-6.75-10.39.57-16.52,2.47-23.55,6.68-24.64,2.14-41.88-27.51-44.12-11.02-.83-22.64-1.49-32.67-5.53-14.14-5.67-24.08-12.24-10.63-31.75,21.1-30.63,42.99-61.62,53.89-98.04,7.37-24.62,14.97-49.82-8.61-71.83h0Z" fill="#dfe5bc"/>
  <path d="M135.33,553.45c8.36,79.46,32.22,153.94,44.49,230.79,5.79,36.25,32.64,51.81,65.74,40.97,40.97-13.42,83.4-19.5,125.29-28.58,120.47-26.09,243.59-42.47,358.26-91.44,5.1-2.18,10.21-4.84,15.59-5.8,8.62-1.54,19.5-3.63,20.96,8.79,1.01,8.42-1.38,17.14-13.3,19.74-24.93,5.44-49.46,12.69-74.3,18.6-108.51,25.89-217.23,50.9-325.54,77.61-46.99,11.58-93.46,25.57-139.6,40.24-24.57,7.8-38.92,4.12-44.49-23.46-17.05-84.51-44.15-167.13-45.24-254.62-.16-12.87-.37-23.19,12.14-32.86h0v.02Z" fill="#dfe5bc"/>
  <path d="M152.25,452.57c-.65,18.52-5.93,29.01-24.35,19.35-16.41-8.59-33.75-10.29-51.71-9.9-11.03.24-19.85-3.62-22.91-15.11-3.06-11.44,2.9-19.52,11.98-25.07,23.53-14.37,44.88-2.31,66.1,6.69,11.23,4.77,22.97,10.16,20.87,24.04h.02Z" fill="#dfe5bc"/>
  <path d="M108.64,350.19c37.76.85,66.46,22.84,61.83,47.17-2.37,12.5-4.63,20.69-20.9,11.68-16.16-8.95-35.7-11.87-51.61-21.13-9.07-5.29-26.95-9.86-23.25-23.3,3.76-13.65,19.85-15.65,33.92-14.41h0Z" fill="#dfe5bc"/>
  <path d="M185.96,326.83c-2.01,4.68-3.26,13.75-8.46,18.3-8.17,7.15-13.33-2.97-18.56-7.6-13.09-11.57-30.93-15.56-42.22-30.95-12.8-17.44-2.2-24.96,10.19-29.7,17.84-6.84,60.18,28.16,59.06,49.94h0Z" fill="#dfe5bc"/>
  <path d="M195.64,286.12c-16.45-16.72-46.03-24.06-37.02-55.01,3.1-10.65,14.51-22.43,31.58-15.24,21.33,8.98,22.33,16.92,5.45,70.27h0v-.02Z" fill="#dfe5bc"/>
  <path d="M96.38,524.55c-12.01-1.35-24.01-2.89-36.03-3.99-10.99-1.01-16.06-6.74-13.95-17.56,2.01-10.32,8.61-14.77,19.27-13.15,16.35,2.49,32.71,5.03,49.13,6.95,10.11,1.18,21.69.89,20.29,15.29-1.39,14.11-11.26,13.49-22.23,10.37-5.06-1.44-10.85-.24-16.31-.24-.06.78-.11,1.55-.17,2.33h0Z" fill="#dfe5bc"/>
  <path d="M943,701.75c-.43,23.46-28.12,48.36-54.21,48.75-26.97.4-48.83-19.64-47.64-43.68,1.21-24.37,32.47-54.46,55.01-52.96,22.04,1.47,47.24,27.23,46.85,47.88h-.01,0ZM923.1,701.1c-7.92-11.94-18.09-21.31-33.46-21.33-16.85-.03-24.96,10-26.71,26.65-2,18.95,14.5,19.94,23.71,19.85,14.75-.11,29.39-6.87,36.48-25.18h-.02Z"/>
  <path d="M923.1,701.1c-7.08,18.32-21.72,25.06-36.48,25.18-9.21.07-25.7-.91-23.71-19.85,1.75-16.65,9.86-26.69,26.71-26.65,15.37.03,25.54,9.4,33.46,21.33h.02Z" fill="#dfe5bc"/>
  <path d="M338.83,407.26c-10.67,11.49-20.99,21.38-29.84,32.45-9.51,11.9-20.49,13.95-31.56,4.88-12.44-10.19-3.98-20.63,3.92-28.37,14.91-14.6,36.58-27.17,3.22-45.44-6.08-3.33-4.67-12.89-.8-18.38,5.9-8.39,16.61-10.03,23.78-4.76,19.47,14.32,36.07,14.18,54.91-1.7,8.12-6.84,22.23-9.25,29.34,3.39,7.79,13.85-6.58,16.16-14.29,20.6-14.24,8.22-11.28,17.04-2.18,26.68,4.57,4.84,9.57,9.3,13.88,14.34,5.85,6.84,12.6,15.42,3.94,22.96-6.8,5.92-16.67,4.24-24.35-2.07-9.25-7.6-18.52-15.2-29.97-24.6h.03l-.03.02Z"/>
</svg>