<?xml version="1.0" encoding="UTF-8"?>
<svg id="Layer_1" xmlns="http://www.w3.org/2000/svg" version="1.1" viewBox="0 0 1080 1080">
  <!-- Generator: Adobe Illustrator 29.7.1, SVG Export Plug-In . SVG Version: 2.1.1 Build 8)  -->
  <path d="M592.69,958.02c-40.73,48.13-52.48,50.94-96.25,13.95-16.49-13.93-18.27,2.56-23.4,6.84-23.66,19.78-45.91,37.7-70.5,1.7-6.83-9.99-15.37,1.38-21.18-.65-32.89-11.55-66.15-18.34-100.8-23.66-25.12-3.85-23.3-38.81-28.27-63.31-25.68,3.4-53.4,27.55-77.42-.46-19.06-22.23-22.74-50.29-18.68-79.12-53.84,12.85-81.32-13.41-71.27-70.5,4.2-23.89,6.74-37.14-26.27-41.05-38.72-4.57-49.45-50.78-23.47-94.62,14.06-23.72,32-39.44-6.23-61.28-27.66-15.81-19.92-63.38,7.33-83.19,8.61-6.25,17.64-11.94,26.78-18.1-52.34-44.3-50.8-63.38,8.38-97.65,11.59-6.7,13.09-10.71,9.15-24.42-16.35-56.94-3.43-73.36,53.93-76.56,7.84-.44,21.3,8.09,22.89-12.43,3.92-50.67,18.71-62.28,68.84-54.68,18.96,2.87,30.07,5.93,32.52-19.97,1.87-19.8,20.93-31.72,39.49-22.05,25.8,13.43,35.72,1.59,45.02-18.82,4.15-9.12,16.59-19.76,21.2-15.32,33.52,32.36,74.95-23.58,108.07,11.22,7.23,7.6,12.02-6.37,17.64-11.13,11.46-9.71,27.71-14.11,36.88-3.33,22.11,25.96,31.23,10.06,46.58-7.3,15.67-17.71,37.3-19.36,50.43,4.52,9.12,16.58,14.32,20.76,32.15,8.72,31.54-21.32,44.62,2.82,64.24,24.93,10.8,12.16,41.34-31.16,63.85-.84,7.68,10.34,11.6,23.49,17.73,36.34,7.26-3.57,15.53-5.9,21.53-10.92,17-14.25,35.43-22.58,55.42-9.17,21.16,14.21,29.51,36.88,22.33,60.82-8.31,27.76-5.62,34.15,26.38,30.19,42.24-5.23,70.63,37.49,51.51,77-12.38,25.63-13.01,31.77,17.43,37.28,46.17,8.38,50.24,38.46,14.44,82.9,12.25,7.56,25.71,13.69,36.6,22.84,26.66,22.44,28.13,56.27.58,76.35-16.23,11.83-16.56,15.21-4.8,31.66,37.04,51.81,25.54,81.57-36.77,101.63,3.47,7.4,6.35,14.9,10.29,21.77,29.7,51.78,20.3,71.97-39.94,76.72-23.51,1.86-14.07,14.56-13.02,24.56,6.7,63.68-20.02,85.17-80.39,63.5-9.08,10.61-2.15,22.88-3.2,34.22-4.17,44.58-33.5,62.09-72.29,39.51-16.14-9.4-18.1-1.8-25.87,7.86-20.11,25-48.76,30.74-71.66,10.85-21.84-18.96-25.14-5.11-33.73,8.84-31.14,50.53-47.77,51.76-84.24,3.8l.05.02h0ZM421.28,611.51c4.36-3.83,8.72-7.67,13.08-11.48,24.91-19.8,49.82-39.59,76.63-60.91-5.79-2.71-10.17-6.28-14.86-6.76-92.28-9.47-182.05-28.95-269.82-59.81-64.4-22.65-69.59-20.46-69.93,46.14-.12,24.71-13.27,67.3,22.96,78.45,62.66,19.29,127.74,30.91,192.15,44.14,23.61,4.85,42.87-3.62,49.78-29.76v-.02h.01ZM934.32,559.59c-3.19-47.19-9.87-102.27-34.18-151.35-38.16-77.02-90.79-142.32-174.11-176.21-44.91-18.27-93.21-10.85-138.79-19.18-173.18-31.66-293.78,50.55-395.96,175.28-10.64,12.99-20.53,38.88,8.37,44.91,83.95,17.52,163.48,53.7,250.77,57.41,34.92,1.47,69.24,10.34,100,28.3,11.24,6.55,25.35,15.14,5.95,28.95-94.45,67.25-166.39,159.61-257.37,230.63-14.25,11.13-11.55,16.65.7,26.83,69.33,57.62,153.09,70.73,237.77,69.42,76.65-1.17,150.32-23.58,218.22-62,96.67-54.7,170.92-124.94,178.66-253.01l-.02.02h-.01ZM359.72,678.37c-63.05-10.57-116.36-34.92-179.31-38.14,14.91,27.74,24.29,51.44,38.93,71.26,45.33,61.38,27.69,61.8,83.07,15.79,19.31-16.05,38.21-32.59,57.31-48.9h0ZM968.96,663.23c-34.57,43.86-64.06,83.46-96.18,120.77-9.64,11.2-9.73,20.53-2.28,27.9,15.12,14.93,32.87,34.17,55.87,22.89,19.22-9.42,18.47-31.02,11.99-50.53-3.4-10.24-6-20.76-9.85-30.81-3.1-8.09-4.88-15.67,1.65-22.56,7.88-8.28,14.21-1.45,21.2,2.33,17.19,9.29,40.87,19.03,52.04,2.77,12.59-18.31-5.29-37.23-20.25-52.02-5.62-5.53-9.14-13.2-14.18-20.74h-.01ZM885.84,195.83c.37-24.5-9.33-42.5-29.6-38.23-24.86,5.23-45.74,22.91-57.01,47.35-3.68,7.96,47.01,56.08,56.97,51.92,28.09-11.78,22.88-41.64,29.63-61.03h0ZM80.38,682.12c21.13-6.91,50.27-4.92,45.81-39-3.08-23.52-9.07-49.27-31.54-61-13.3-6.95-48.68,49.24-47.52,73.34,1.07,22.21,16.73,24.7,33.26,26.66h-.01ZM924.91,253.35c-17.19,8.59-41.5,6.62-51.43,29.41-2.57,5.9,49.22,60.54,55.26,59.18,30.12-6.84,33.61-33.75,36.2-56.47,2.78-24.42-19.64-27.94-40.03-32.12h0ZM192.89,299.28c-37.14-30.81-78.49-39.7-92.82-20.43-14.76,19.85-1.96,35.65,11.76,49.53,50.83,51.43,51.02-23.54,81.06-29.11h0ZM972.6,604.21c-14.11,39.12,12.11,32.56,26.82,34.99,19.38,3.2,39.37,3.19,41.47-24.47,1.54-20.16-35.23-63.01-53.12-57.25-25.57,8.24-8.8,36.86-15.18,46.73h.02-.01ZM964.2,450.28c-4.69,23.31,10.33,37.79,11.04,54.86.61,14.67-2,27.24,19.31,25.7,21.18-1.52,41.94-5.51,50.45-26.73,6.2-15.44-3.83-29.28-17.87-36.83-18.94-10.19-40.03-13.97-62.91-17h-.02ZM200.99,781.61c-21.97,18.27-15.72,43.6-19.83,64.48-2.33,11.81,4.99,31.44,22.37,34.25,20.71,3.36,37.18-9.49,47.42-25.52,11.11-17.42-5.72-27.97-17.71-33.43-17.68-8.07-21.13-26.31-32.24-39.77v-.02h0ZM135.43,382.26c-5.95-20.48-22.86-19.76-36.11-18.43-21.67,2.17-49.85,10.48-46.89,34.25,3.1,24.84,35.72,37.02,56.64,35.78,25.28-1.49,8.84-38.05,26.36-51.6h0ZM137.74,690.59c-13.72,18.8-30.19,36.91-27.95,63.45,1.16,13.71-4.9,33.45,15.33,36.53,18.1,2.77,38.02-6.67,42.8-23.73,7.42-26.5-9.17-50.13-20.76-73.37-.77-1.54-4.69-1.52-9.43-2.87h.02-.01ZM840.49,808.32c-18.94,23.45-41.24,26.03-60.6,37.46,12.11,17.7,22.18,33.31,33.22,48.2,6.51,8.79,15.95,18.69,26.83,14.39,12.23-4.85,14.9-19.08,13.23-31.49-2.66-19.92-7.19-39.58-12.69-68.58v.02h.01ZM219.51,203.27c-20.16-.02-41.52,1.49-38.65,18.78,3.19,19.22,14.41,49.04,32.78,49.57,15.46.44,47.47-13.25,48.47-35.08,1.1-24.14-25.59-30.26-42.59-33.27h-.02.01ZM104.29,503.49c-8.56-9.77,11.2-37.12-19.92-32.33-21.37,3.29-44.42,10.31-45.23,36.79-.82,26.85,24.86,31,42.99,33.27,29.18,3.68,16.26-23.3,22.16-37.72v-.02h0ZM931.64,367.88c7.75,17.68,15.37,30.42,18.85,44.2,4.36,17.29,12.76,16.8,26.01,10.99,15.79-6.91,38.86-11.46,36.14-31.35-2.87-20.95-24.78-24.96-44.97-23.93-10.62.54-21.3.09-36.04.09h0ZM580.03,172.48c14.34-7.65,42.45,2.49,41.99-24.63-.28-16.82-7.42-47.24-24.33-45.33-25.21,2.84-29.9,34.71-37.93,56.45-4.74,12.83,11.57,10.13,20.27,13.51h0ZM411.91,930.98c3.36,16.66.07,41.96,22.28,41.61,22.89-.35,41.68-24.08,39.87-44.07-2.17-23.93-32.38-11.74-49.29-18.47-15.7-6.23-10.54,12.34-12.85,20.93h-.02.01ZM294.53,859.58c-18.45,9.54-13.83,25.99-11.43,36.46,3.33,14.51-4.67,41.68,22.26,39.52,22.28-1.79,29.7-27.85,29.13-43.29-.7-18.9-30.4-16.23-39.96-32.68v-.02h0ZM757.85,859.51c-13.25,20.64-55.73,13.48-47.29,48.8,3.1,12.94,15.82,28.58,33.82,19.52,30.86-15.53,15.95-43.34,13.46-68.32h.02-.01ZM575.61,914.67c-19.74,3.61-33.8,7.61-48.03,8.37-13.76.72-18.41,4.71-17.14,19.18,1.52,17.19,8.66,30.79,25.56,29.2,30.77-2.92,32.21-30.37,39.61-56.73v-.02h0ZM672.05,899.46c-14.93,3.75-23.91,5.62-32.66,8.3-10.05,3.06-28.3-3.94-25.42,16.28,1.98,13.85,1.4,33.71,18.27,37.25,16,3.34,18.85-16.07,25.56-26.64,5.62-8.87,8.17-19.71,14.25-35.16v-.02h0ZM677.65,171.73c8.96-2.31,25.57,4.22,24.29-11.78-1.3-16.17-1.68-38.63-23.47-42.25-17.36-2.89-25,12.66-28.27,27.8-4.85,22.51,13.86,21.67,27.45,26.24h0ZM401.81,169.67c-12.73-17.14-11.11-49.57-38.82-44.02-14.95,2.99-12.64,25.17-8.03,39.52,10.99,34.27,30.7-3.22,46.86,4.5h-.01ZM780.33,172.22c-1.52-16.1.26-36.93-21.49-37.34-15.35-.28-27.5,14.95-27.52,30.77-.05,21.84,22.6,19.97,35.9,24.86,14.79,5.43,10.64-10.55,13.11-18.29ZM290.47,223.84c12.76-19.52,46-7.33,34.8-40.01-5.46-15.95-22.93-28.16-33.41-21.04-20.58,13.97-.84,34.66-1.38,61.07v-.02h0ZM369.24,958.76c27.87-52.07,24.94-58.97-26.26-61.7,23.87,14.72,20.13,36.32,26.26,61.7ZM467.77,150.55c-3.76-16.07-10.78-27.5-25.84-29.11-13.02-1.4-19.76,7.44-18.73,19.8,1.3,15.35,9.84,24.57,26.45,21.98,8.37-1.31,20.02-.14,18.12-12.66v-.02h0ZM535.07,148.29c-2.24-13.81-8.21-28.37-21.46-30.84-16.49-3.06-11.43,13.88-12.81,22.93-2.4,15.74,8.61,21.3,21.48,22.81,9.96,1.16,14.48-4.73,12.8-14.9h0Z"/>
  <path d="M934.32,559.59c-7.74,128.07-81.99,198.31-178.66,253.01-67.9,38.42-141.57,60.81-218.22,62-84.68,1.3-168.44-11.8-237.77-69.42-12.25-10.19-14.95-15.7-.7-26.83,90.98-71.03,162.94-163.4,257.37-230.63,19.39-13.81,5.29-22.4-5.95-28.95-30.75-17.94-65.08-26.82-100-28.3-87.29-3.69-166.83-39.87-250.77-57.41-28.9-6.04-19.01-31.93-8.37-44.91,102.19-124.73,222.78-206.94,395.96-175.28,45.58,8.33,93.87.93,138.79,19.18,83.32,33.89,135.93,99.19,174.11,176.21,24.31,49.08,31,104.16,34.18,151.35l.02-.02h.01ZM535.84,742.28c-10.87,9.85-21.86,18.22-35.92,23.52-11.48,4.34-16.19,14.55-13.65,26.24.84,3.9,8.44,10.12,10.94,9.28,25.61-8.51,49.76-22.18,67.34-41.5,13.15-14.46-.89-32.59-10.13-47.61-7.72-12.57-25.71-23.66-6.72-41.01,7.74-7.07,20.27-16.1,11.48-26.38-10.38-12.15-21.56,1.02-31.91,6.32-17.82,9.15-19.6,23.02-15.19,41.05,4.25,17.36,11.64,32.78,23.75,50.08l.02.02h-.01ZM787.47,499.97c21-2,37.32-8.12,52.76-16.73,9.42-5.25,14.44-14.51,9.8-23.59-6.34-12.41-16.07-3.38-24.29-.18-14.53,5.65-27.43,16.86-45.18,6.37-35.27-20.81-61.89-10.64-77.4,26.41-4.01,9.56-26.64,14.67-11.57,28.06,14.32,12.74,25.59-3.08,32.21-13.41,13.02-20.32,26.01-29.32,47.77-11.71,4.71,3.82,12.52,3.82,15.93,4.76l-.02.02h-.01ZM644.66,585.34c-1.21,26.12-19.38,57.99,12.55,66.46,38.68,10.26,67.98,18.33,47.35,67.23-1.28,3.03,3.43,10.41,7.23,13.36,8.1,6.25,16.84,16.86,28.22,8.96,11.17-7.74,3.26-17.14-2.56-24.12-10.68-12.85-3.64-25.87-1.26-38.51,3.64-19.34-4.64-35.01-21.79-36.51-36.83-3.24-65.24-12.57-69.73-56.85v-.02h0ZM493.37,424.29c-18.15-17.47-26.47-31.24-22.54-50.95,3.55-17.78-4.36-31.52-22.61-37.93-16.28-5.69-34.04-8.19-44.35-25.43-3.43-5.72-11.74-5.57-18.31-1.44-7.16,4.52-6.23,11.13-4.74,17.87,3.68,16.68,13.83,25.43,31.1,26.47,23.4,1.4,36.16,10.13,36.02,37.7-.09,18.13,11.5,35.65,45.4,33.69l.04.02h0ZM593.6,433.25c19.2-13.6-2.36-37.6,15.79-41.85,56.57-13.27,29.77-56.38,34.29-88.2.98-6.98-1.68-13.79-9.91-14.79-7.95-.96-11.87,5.64-14.81,11.39-5.01,9.78-7.79,20.46-2.05,30.89,9.91,18.06,5.29,28.92-13.44,38.14-32.1,15.81-22.96,39.28-9.84,64.41h-.04.01Z" fill="#dfe5bc"/>
  <path d="M421.28,611.51c-6.91,26.12-26.19,34.6-49.78,29.76-64.4-13.23-129.49-24.87-192.15-44.14-36.23-11.15-23.09-53.74-22.96-78.45.33-66.6,5.53-68.79,69.93-46.14,87.75,30.88,177.54,50.34,269.82,59.81,4.69.49,9.08,4.04,14.86,6.76-26.83,21.32-51.74,41.12-76.63,60.91-2.26-2.19-4.52-4.39-6.77-6.58-12.94-60.88-41.22-74.48-83.23-44.83-25.47,17.96,4.95,29.91-1.05,42.83-6.42,13.85-1.28,19.99,10.12,25.01,7.44,3.29,13.71,0,17.59-5.62,6.9-9.94,4.97-20.08-1.56-30.02-4.95-7.54-22.18-12.94-7.74-24.82,6.21-5.11,16.26-12.64,25.64-5.5,9.21,7,13.79,20.44,8.7,28.88-22.23,36.81,16.24,22.81,25.87,32.59l-.63-.46h-.03ZM238.03,516.85c15.53-2.29,31.44-7.72,41.66,7.21,5.22,7.63,4.22,20.18-3.27,26.31-8.87,7.26-25.96,8.93-11.31,25.35,7.19,8.07,16.47,16.51,28.18,11.39,15.74-6.86,5.74-21.32,6.9-32.42.54-5.34-.32-10.82-.37-16.23-.51-45.81-34.46-38.72-63.7-41.71-41.19-4.22-14.83,22.26-17.99,35.81-2.36,10.19-8.45,19.45-11.52,29.53-2.57,8.47.47,16.8,8.61,20.64,9.29,4.39,13.43-3.55,19.18-9.49,17.28-17.84,7.23-37.09,3.62-56.41v.02h.01Z" fill="#dfe5bc"/>
  <path d="M359.72,678.37c-19.1,16.31-38,32.85-57.31,48.9-55.38,46.02-37.74,45.6-83.07-15.79-14.63-19.81-24.01-43.51-38.93-71.26,62.93,3.22,116.26,27.57,179.31,38.14h0Z" fill="#dfe5bc"/>
  <path d="M968.96,663.23c5.04,7.54,8.56,15.19,14.18,20.74,14.98,14.79,32.84,33.69,20.25,52.02-11.17,16.24-34.85,6.51-52.04-2.77-6.98-3.78-13.32-10.62-21.2-2.33-6.55,6.88-4.74,14.48-1.65,22.56,3.85,10.05,6.46,20.58,9.85,30.81,6.48,19.53,7.23,41.12-11.99,50.53-23,11.27-40.73-7.96-55.87-22.89-7.47-7.37-7.37-16.7,2.28-27.9,32.12-37.32,61.61-76.89,96.18-120.77h.01Z" fill="#dfe5bc"/>
  <path d="M885.84,195.83c-6.76,19.39-1.54,49.25-29.63,61.03-9.96,4.18-60.63-43.93-56.97-51.92,11.25-24.45,32.15-42.11,57.01-47.35,20.27-4.27,29.97,13.72,29.6,38.23h0Z" fill="#dfe5bc"/>
  <path d="M80.38,682.12c-16.52-1.96-32.19-4.46-33.26-26.66-1.16-24.1,34.22-80.29,47.52-73.34,22.46,11.73,28.44,37.48,31.54,61,4.46,34.1-24.68,32.1-45.81,39h.01Z" fill="#dfe5bc"/>
  <path d="M924.91,253.35c20.39,4.18,42.81,7.7,40.03,32.12-2.59,22.72-6.07,49.64-36.2,56.47-6.04,1.37-57.83-53.28-55.26-59.18,9.92-22.79,34.25-20.81,51.43-29.41h0Z" fill="#dfe5bc"/>
  <path d="M192.89,299.28c-30.04,5.57-30.25,80.53-81.06,29.11-13.72-13.88-26.52-29.69-11.76-49.53,14.34-19.27,55.68-10.36,92.82,20.43h0Z" fill="#dfe5bc"/>
  <path d="M972.6,604.21c6.35-9.89-10.4-38.51,15.18-46.73,17.89-5.76,54.65,37.09,53.12,57.25-2.1,27.66-22.09,27.67-41.47,24.47-14.7-2.43-40.94,4.13-26.82-34.99h-.02,0Z" fill="#dfe5bc"/>
  <path d="M964.2,450.28c22.89,3.03,43.99,6.81,62.91,17,14.04,7.56,24.07,21.41,17.87,36.83-8.51,21.21-29.28,25.21-50.45,26.73-21.3,1.54-18.69-11.04-19.31-25.7-.72-17.07-15.74-31.54-11.04-54.86h.02Z" fill="#dfe5bc"/>
  <path d="M200.99,781.61c11.11,13.46,14.58,31.7,32.24,39.77,11.97,5.48,28.81,16.02,17.71,33.43-10.22,16.03-26.69,28.88-47.42,25.52-17.38-2.82-24.7-22.44-22.37-34.25,4.11-20.88-2.14-46.21,19.83-64.48v.02h0Z" fill="#dfe5bc"/>
  <path d="M135.43,382.26c-17.52,13.55-1.1,50.11-26.36,51.6-20.92,1.24-53.53-10.94-56.64-35.78-2.96-23.77,25.22-32.08,46.89-34.25,13.25-1.33,30.18-2.05,36.11,18.43Z" fill="#dfe5bc"/>
  <path d="M137.74,690.59c4.74,1.35,8.66,1.33,9.43,2.87,11.59,23.24,28.18,46.87,20.76,73.37-4.78,17.07-24.71,26.5-42.8,23.73-20.23-3.08-14.18-22.82-15.33-36.53-2.24-26.54,14.23-44.65,27.95-63.45h-.02.01Z" fill="#dfe5bc"/>
  <path d="M840.49,808.32c5.5,29,10.03,48.66,12.69,68.58,1.66,12.39-.98,26.64-13.23,31.49-10.89,4.31-20.32-5.6-26.83-14.39-11.04-14.9-21.13-30.51-33.22-48.2,19.36-11.45,41.66-14.02,60.6-37.46v-.02h-.01Z" fill="#dfe5bc"/>
  <path d="M219.51,203.27c17,3.01,43.69,9.14,42.59,33.27-1,21.84-33.01,35.51-48.47,35.08-18.38-.51-29.6-30.35-32.78-49.57-2.85-17.29,18.5-18.8,38.65-18.78h.02-.01Z" fill="#dfe5bc"/>
  <path d="M104.29,503.49c-5.9,14.42,7.02,41.4-22.16,37.72-18.13-2.28-43.79-6.42-42.99-33.27.81-26.47,23.84-33.5,45.23-36.79,31.12-4.78,11.36,22.56,19.92,32.33v.02h0Z" fill="#dfe5bc"/>
  <path d="M931.64,367.88c14.72,0,25.42.46,36.04-.09,20.18-1.03,42.11,2.98,44.97,23.93,2.71,19.88-20.36,24.43-36.14,31.35-13.27,5.81-21.65,6.28-26.01-10.99-3.48-13.78-11.1-26.5-18.85-44.2h-.01Z" fill="#dfe5bc"/>
  <path d="M580.03,172.48c-8.7-3.38-25.01-.67-20.27-13.51,8.03-21.76,12.73-53.61,37.93-56.45,16.93-1.91,24.05,28.51,24.33,45.33.46,27.11-27.66,16.98-41.99,24.63h0Z" fill="#dfe5bc"/>
  <path d="M411.91,930.98c2.33-8.59-2.85-27.15,12.85-20.93,16.91,6.7,47.12-5.46,49.29,18.47,1.82,19.97-16.98,43.71-39.87,44.07-22.19.35-18.92-24.93-22.28-41.61h.02-.01Z" fill="#dfe5bc"/>
  <path d="M294.53,859.58c9.56,16.45,39.26,13.79,39.96,32.68.58,15.44-6.84,41.5-29.13,43.29-26.94,2.15-18.94-25-22.26-39.52-2.4-10.47-7.02-26.92,11.43-36.46v.02h0Z" fill="#dfe5bc"/>
  <path d="M757.85,859.51c2.49,24.98,17.38,52.79-13.46,68.32-18.01,9.05-30.74-6.58-33.82-19.52-8.45-35.32,34.04-28.15,47.29-48.8h-.02.01Z" fill="#dfe5bc"/>
  <path d="M575.61,914.67c-7.4,26.36-8.84,53.81-39.61,56.73-16.89,1.61-24.03-12.01-25.56-29.2-1.28-14.48,3.38-18.45,17.14-19.18,14.23-.75,28.29-4.76,48.03-8.37v.02Z" fill="#dfe5bc"/>
  <path d="M672.05,899.46c-6.07,15.46-8.63,26.29-14.25,35.16-6.7,10.57-9.56,30-25.56,26.64-16.87-3.54-16.3-23.38-18.27-37.25-2.89-20.22,15.37-13.22,25.42-16.28,8.75-2.66,17.75-4.55,32.66-8.3v.02h0Z" fill="#dfe5bc"/>
  <path d="M677.65,171.73c-13.58-4.59-32.29-3.75-27.45-26.24,3.27-15.14,10.9-30.68,28.27-27.8,21.79,3.62,22.18,26.1,23.47,42.25,1.28,16-15.33,9.49-24.29,11.78h0Z" fill="#dfe5bc"/>
  <path d="M401.81,169.67c-16.14-7.72-35.86,29.79-46.86-4.5-4.6-14.37-6.91-36.53,8.03-39.52,27.71-5.55,26.1,26.89,38.82,44.02h0Z" fill="#dfe5bc"/>
  <path d="M780.33,172.22c-2.47,7.74,1.66,23.72-13.11,18.29-13.3-4.88-35.95-3.03-35.9-24.86.04-15.82,12.18-31.05,27.52-30.77,21.76.4,19.97,21.23,21.49,37.34Z" fill="#dfe5bc"/>
  <path d="M290.47,223.84c.54-26.41-19.18-47.1,1.38-61.07,10.48-7.11,27.95,5.09,33.41,21.04,11.2,32.68-22.04,20.51-34.8,40.01v.02h0Z" fill="#dfe5bc"/>
  <path d="M369.24,958.76c-6.11-25.38-2.38-46.98-26.26-61.7,51.2,2.73,54.12,9.61,26.26,61.7Z" fill="#dfe5bc"/>
  <path d="M467.77,150.55c1.93,12.52-9.73,11.34-18.12,12.66-16.61,2.61-25.15-6.62-26.45-21.98-1.05-12.36,5.71-21.2,18.73-19.8,15.05,1.61,22.09,13.04,25.84,29.11v.02h0Z" fill="#dfe5bc"/>
  <path d="M535.07,148.29c1.68,10.17-2.82,16.05-12.8,14.9-12.87-1.51-23.89-7.07-21.48-22.81,1.38-9.03-3.69-25.99,12.81-22.93,13.25,2.47,19.22,17.01,21.46,30.84h0Z" fill="#dfe5bc"/>
  <path d="M434.35,600.02c-4.36,3.83-8.72,7.67-13.08,11.48l.63.46c-8.72-9.43,1.49-13.06,5.67-18.54,2.26,2.19,4.52,4.39,6.77,6.58v.02h0Z" fill="#dfe5bc"/>
  <path d="M535.84,742.28c-12.09-17.28-19.5-32.71-23.75-50.08-4.41-18.03-2.63-31.91,15.19-41.05,10.33-5.3,21.53-18.47,31.91-6.32,8.79,10.27-3.76,19.32-11.48,26.38-18.99,17.35-1,28.44,6.72,41.01,9.24,15.02,23.28,33.17,10.13,47.61-17.57,19.32-41.73,32.98-67.34,41.5-2.52.84-10.1-5.37-10.94-9.28-2.54-11.69,2.17-21.9,13.65-26.24,14.06-5.3,25.05-13.67,35.92-23.52l-.02-.02h.01Z"/>
  <path d="M787.47,499.97c-3.41-.95-11.22-.95-15.93-4.76-21.76-17.61-34.74-8.61-47.77,11.71-6.62,10.31-17.89,26.13-32.21,13.41-15.05-13.41,7.58-18.52,11.57-28.06,15.53-37.05,42.15-47.22,77.4-26.41,17.75,10.47,30.65-.74,45.18-6.37,8.23-3.2,17.96-12.23,24.29.18,4.64,9.08-.39,18.34-9.8,23.59-15.44,8.61-31.75,14.74-52.76,16.73l.02-.02h.01Z"/>
  <path d="M644.66,585.34c4.5,44.3,32.92,53.61,69.73,56.85,17.15,1.51,25.43,17.17,21.79,36.51-2.38,12.66-9.42,25.66,1.26,38.51,5.79,6.98,13.72,16.37,2.56,24.12-11.38,7.88-20.09-2.71-28.22-8.96-3.8-2.92-8.51-10.33-7.23-13.36,20.64-48.89-8.66-56.97-47.35-67.23-31.93-8.47-13.76-40.35-12.55-66.46v.02h0Z"/>
  <path d="M493.37,424.29c-33.92,1.96-45.51-15.56-45.4-33.69.14-27.57-12.64-36.3-36.02-37.7-17.28-1.03-27.43-9.8-31.1-26.47-1.49-6.74-2.42-13.36,4.74-17.87,6.56-4.13,14.88-4.29,18.31,1.44,10.31,17.24,28.09,19.74,44.35,25.43,18.26,6.39,26.17,20.15,22.61,37.93-3.94,19.71,4.39,33.48,22.54,50.95l-.04-.02h.01Z"/>
  <path d="M593.6,433.25c-13.13-25.14-22.26-48.59,9.84-64.41,18.73-9.22,23.37-20.08,13.44-38.14-5.72-10.43-2.96-21.11,2.05-30.89,2.94-5.76,6.86-12.36,14.81-11.39,8.23,1,10.9,7.81,9.91,14.79-4.5,31.82,22.3,74.93-34.29,88.2-18.15,4.25,3.43,28.25-15.79,41.85h.04-.01Z"/>
  <path d="M238.03,516.85c3.61,19.32,13.67,38.58-3.62,56.41-5.76,5.93-9.87,13.86-19.18,9.49-8.14-3.83-11.18-12.16-8.61-20.64,3.06-10.08,9.15-19.34,11.52-29.53,3.15-13.55-23.19-40.03,17.99-35.81,29.23,2.99,63.19-4.1,63.7,41.71.05,5.41.91,10.89.37,16.23-1.14,11.11,8.84,25.56-6.9,32.42-11.71,5.11-21-3.34-28.18-11.39-14.65-16.42,2.43-18.08,11.31-25.35,7.49-6.13,8.51-18.68,3.27-26.31-10.22-14.93-26.15-9.5-41.66-7.21v-.02h-.01Z"/>
  <path d="M427.58,593.44c-4.18,5.48-14.39,9.1-5.67,18.54-9.63-9.78-48.08,4.22-25.87-32.59,5.09-8.44.51-21.86-8.7-28.88-9.4-7.14-19.45.39-25.64,5.5-14.44,11.9,2.78,17.28,7.74,24.82,6.53,9.94,8.45,20.08,1.56,30.02-3.89,5.6-10.15,8.89-17.59,5.62-11.39-5.04-16.54-11.18-10.12-25.01,6-12.92-24.42-24.87,1.05-42.83,42.03-29.65,70.29-16.05,83.23,44.83h.02v-.02Z"/>
</svg>