<?xml version="1.0" encoding="UTF-8"?>
<svg id="Layer_1" xmlns="http://www.w3.org/2000/svg" version="1.1" viewBox="0 0 1080 1080">
  <!-- Generator: Adobe Illustrator 29.7.1, SVG Export Plug-In . SVG Version: 2.1.1 Build 8)  -->
  <path d="M1060.12,641.26c-.16,82.06-9.25,163.48-15.3,245.13-2.69,36.11-18.55,50.19-52.56,49.2-66.17-1.94-132.16.61-198.6-3.41-166.06-10.04-332.54-15.37-498.89-16.23-49.33-.25-99.75,7.61-149.83,9.93-56.33,2.64-89.53-24.76-92.08-81.4-3.45-76.82,10.86-152.51,20.2-228.34,3.11-25.34,7.54-43.24-20.88-60.41-43.8-26.45-43.8-52.67-6.43-90.61,9.84-10,12.8-18.1,10.88-31.8-1.62-11.49-.47-32.14,5.33-34.53,49.79-20.58,55.34-80.73,98.1-106.43,2.87-1.72,9.7-1.87,9.7-2.66-1.11-64.18,62.08-71.95,93.25-107.67,22.09-25.32,45.66-42.95,80.57-36.22,29.32,5.64,45.68,23.47,44.32,54.48-1.04,23.61,17.33,17.76,29.38,19.02,141.79,14.87,270.86,65.79,389.8,142,60.87,39,130.47,56.71,194.2,88.71,43.94,22.07,64.63,47.75,59.44,96.91-3.29,31.12-.61,62.85-.61,94.31v.02h.01ZM945.61,647.62l1.24,1.17c.9-19.21-20.92-40.44,3.25-57.35,27.13-18.98,47.26,1.96,68.38,18.51,4.18-17.13,7.7-30.47,10.47-43.99.59-2.87-1.62-6.3-2.6-9.64-12.07-8.46-24.31-1.02-35.16,1.67-219.38,54.07-441.97,62.13-666.37,50.06-52.7-2.84-121.48-38.48-152.67-6.97-30.42,30.72-19.34,101.8-28.35,154.84-6.97,41.03,9.37,54.34,48.75,49.38,66.69-8.4,133.38-3.18,200.34-.43,122.57,5.06,243.31,29.59,366.28,30.35,58.83.36,117.99-4.29,176.69,9.84,73.05,17.56,73.3,15.68,77.14-60.87.79-15.68,4.08-31.23,5.51-46.92,7.09-77.79,3.86-81.67-72.92-89.64l.02-.02h0ZM632.91,346.34c-45.75-17.74-86.53-41.64-136.18-35.12-19.77,2.6-37.26,7.56-26.04,31.19,27.67,58.25,2.35,83.03-52.99,95.06-15.89,3.45-47.53,7.56-36.61,32.27,20.92,47.39-3.36,69.26-41.55,92.21,64.07,5.89,124.26,6.95,184.38,5.44,27.49-.7,60.87,2.35,29.36-45.11-13.74-20.69,1.2-50.17,30.47-61.16,12.55-4.72,28.26,2.73,42.09-13.11-27.92-33.06-45.99-68.92,7.06-101.65v-.02h.01ZM470.42,282.97c-5.85-5.21-9.61-11.4-13.07-11.22-25.14,1.33-48.07-12.89-76.14.84-44.39,21.71-61.61,65.18-92.44,97.38-40.19,42-78.99,85.4-118.08,128.46-17.35,19.14-20.47,40.19,8.24,47.71,35.07,9.19,74.63,21.82,107.18,13.36,25.86-6.73,66.03-48.36,61.86-65.02-16.97-67.91,23.85-77.23,69.85-89.98,19.14-5.3,42.9-11.53,23.88-41.77-14.22-22.61-8.37-43.17,11.17-60.66,6.07-5.44,11.1-12.03,17.54-19.09h.02-.01ZM112.4,578.12c-8.08,82.85-16.29,165.67-24.22,248.54-3.97,41.5,17.87,53.4,56.47,55.83,60.84,3.86,120.51-10.25,181.02-7.06,171.47,9.03,342.97,17.69,514.44,27.06,50.39,2.75,100.47,8.8,151.25,3.66,12.59-1.29,25.32,3.54,27.6-13.13,3.07-22.43-13.45-12.68-24.24-13.63-176.17-15.44-353.3-1.94-529.81-25.61-94.81-12.73-193.05-20.83-290.25-8.6-27.89,3.52-45.18-7.9-53.08-37.28-12.16-45.11-11.51-89.62-2.23-134.6,6.45-31.32,11.94-62.56-6.93-95.19l-.02.02h0ZM784.93,558.26c-50.15-39.2-59.58-62.31-23.83-83.86,47.33-28.53,16.43-44.75-2.91-62.31-17.81-16.16-40.01-27.42-59.99-41.28-24.6-17.08-38.19,6.75-53.89,16.16-19.59,11.74-2.3,22.18,5.85,32.54,33.31,42.36,3.36,57.5-30.74,71.18-13.27,5.33-38.48,7.24-27.28,27.47,8.26,14.92,4.38,45.02,40.65,41.39,50.26-5.03,101.38-1.26,152.13-1.26l.02-.02h-.01ZM995.99,519.24c-48.02-39.43-109.95-47.8-162.08-77-2.55-1.42-11.83,2.96-11.74,3.99,3.81,37.3-38.34,35.68-50.24,57.19,69.19,74.93,146.87,30.83,224.06,15.82h0ZM145.85,453.99c15.75-2.66,34.73-8.91,32.11-26.31-3.95-26.31-29.97-31.12-51.97-32.75-18.03-1.35-38.07,6.54-35.14,28.59,4.06,30.62,36.31,19.43,54.98,30.49l.02-.02ZM238.29,241.38c-11.58.5-25.98,7.67-23.31,23.81,3.32,20.15,11.51,43.89,35.57,46.6,23.04,2.6,33.51-22.55,33.56-37.26.07-19.95-20.69-30.06-45.84-33.13l.02-.02h0ZM225.72,350.07c-9.55-18.1-23.4-28.93-44.41-29.68-16.72-.59-29.23,6.59-25.41,23.65,4.96,22.16,24.82,34.55,45.05,36.31,13,1.13,18.84-17.49,24.78-30.29h0ZM353.38,209.17c-2.75-16.29-7.11-33.02-28.1-29.07-14.44,2.71-32.32,7.63-30.58,28.62,1.62,19.36,12.66,34.01,32.81,33.22,17.94-.7,26.11-14.65,25.86-32.77h.01ZM89.27,484.16c-9.07,3.59-26.92,4.4-24.08,23,2.32,15.26,16.95,19.54,32.11,20.47,14.62.88,23.67-2.53,22.84-19.07-.86-17.22-10.81-24.26-30.87-24.4Z"/>
  <path d="M945.61,647.62c76.75,7.97,80,11.85,72.92,89.64-1.42,15.68-4.72,31.23-5.51,46.92-3.84,76.57-4.08,78.42-77.14,60.87-58.7-14.11-117.87-9.46-176.69-9.84-122.97-.77-243.71-25.3-366.28-30.35-66.94-2.75-133.65-7.99-200.34.43-39.36,4.96-55.72-8.35-48.75-49.38,9-53.03-2.08-124.12,28.35-154.84,31.19-31.51,100,4.15,152.67,6.97,224.42,12.07,446.98,4.02,666.37-50.06,10.88-2.69,23.11-10.16,35.16-1.67.97,3.32,3.18,6.77,2.6,9.64-2.78,13.52-6.3,26.88-10.47,43.99-21.12-16.52-41.25-37.49-68.38-18.51-24.17,16.9-2.35,38.16-3.23,57.37-18.26-3.72-36.45-8.01-54.84-11.08-14.51-2.41-32.16-17.45-43.35-.18-21.44,33.08-45.88,47.57-85.98,33.38-14.83-5.26-32.27,4.36-35.21,23.25-3.09,20,8.17,35.03,26.9,39.09,12.89,2.8,27.42-1.99,41.23-3.41,1.83,1.51,3.63,3.02,5.42,4.58-10.27,25.57-8.31,47.66,19.25,60.82,25.73,12.28,49.67,8.58,70.39-11.33,17.38-16.7,33.51-34.78,51.55-50.71,50.35-44.48,50.62-44.17,3.36-85.62v.05-.02ZM602.69,719.87c0-40.08-29.61-77.66-61.75-78.4-46.85-1.08-90.36,35.25-90.38,75.44-.02,42.83,34.51,74.14,82.8,75.11,40.62.81,69.35-29.09,69.33-72.17v.02ZM371.62,777.93c33.81,1.2,55.97-11.44,46.74-48.79-4.36-17.65,3.68-25.95,12.73-36.15,11.62-13.09,8.87-28.64-1.13-37.76-18.21-16.61-42-13-64.25-7.88-13.74,3.16-22.5,13.72-17.69,26.97,6.64,18.24,5.51,30.65-10.56,43.8-12.82,10.49-15.66,27.67-7.15,42.99,8.71,15.68,25.05,17.02,41.32,16.81h-.01ZM251.65,642.61c-35.88-8.12-59.99,7.13-56.71,48.05,3.29,40.98,35.61,43.42,69.24,44.57,37.12,1.29,61.36-18.33,59.92-49.83-1.69-36.9-32.34-50.15-72.44-42.79h0ZM624.76,740.76c.61,24.96,8.64,50.67,40.78,53.71,33.11,3.14,39.79-25.86,41.93-49.49,2.1-23.06,1.44-49.76-32.57-54.73-37.19-5.44-42.74,21.21-50.15,50.48v.02h.01Z" fill="#dfe5bc"/>
  <path d="M632.91,346.34c-53.06,32.72-34.98,68.58-7.06,101.65-13.83,15.84-29.54,8.4-42.09,13.11-29.29,11.01-44.21,40.46-30.47,61.16,31.51,47.46-1.9,44.41-29.36,45.11-60.12,1.51-120.31.47-184.38-5.44,38.19-22.95,62.45-44.82,41.55-92.21-10.9-24.73,20.72-28.82,36.61-32.27,55.31-12.03,80.66-36.81,52.99-95.06-11.22-23.61,6.27-28.59,26.04-31.19,49.65-6.52,90.45,17.38,136.18,35.12v.02h0Z" fill="#dfe5bc"/>
  <path d="M470.42,282.97c-6.41,7.06-11.44,13.65-17.54,19.09-19.54,17.47-25.39,38.05-11.17,60.66,19.02,30.26-4.72,36.47-23.88,41.77-45.99,12.75-86.82,22.07-69.85,89.98,4.15,16.63-36,58.29-61.86,65.02-32.54,8.44-72.1-4.2-107.18-13.36-28.71-7.52-25.61-28.57-8.24-47.71,39.09-43.06,77.86-86.46,118.08-128.46,30.81-32.2,48.05-75.67,92.44-97.38,28.07-13.72,51,.5,76.14-.84,3.43-.18,7.2,5.98,13.07,11.22h-.02.01Z" fill="#dfe5bc"/>
  <path d="M112.4,578.12c18.87,32.63,13.38,63.87,6.93,95.19-9.28,44.98-9.93,89.48,2.23,134.6,7.92,29.38,25.19,40.78,53.08,37.28,97.22-12.23,195.44-4.13,290.25,8.6,176.5,23.67,353.64,10.2,529.81,25.61,10.79.95,27.31-8.8,24.24,13.63-2.28,16.68-15.01,11.85-27.6,13.13-50.78,5.15-100.86-.9-151.25-3.66-171.45-9.37-342.94-18.03-514.44-27.06-60.5-3.18-120.17,10.92-181.02,7.06-38.59-2.46-60.44-14.33-56.47-55.83,7.9-82.87,16.11-165.69,24.22-248.54l.02-.02h0Z" fill="#dfe5bc"/>
  <path d="M784.93,558.26c-50.76,0-101.89-3.77-152.13,1.26-36.24,3.63-32.36-26.47-40.65-41.39-11.19-20.22,13.99-22.14,27.28-27.47,34.1-13.68,64.05-28.82,30.74-71.18-8.12-10.34-25.43-20.81-5.85-32.54,15.71-9.41,29.29-33.24,53.89-16.16,19.97,13.86,42.18,25.12,59.99,41.28,19.34,17.56,50.21,33.78,2.91,62.31-35.75,21.55-26.31,44.66,23.83,83.86l-.02.02h.01Z" fill="#dfe5bc"/>
  <path d="M995.99,519.24c-77.16,15.03-154.86,59.13-224.06-15.82,11.89-21.51,54.03-19.88,50.24-57.19-.11-1.04,9.19-5.42,11.74-3.99,52.15,29.2,114.06,37.58,162.08,77h0Z" fill="#dfe5bc"/>
  <path d="M145.85,453.99c-18.66-11.06-50.91.14-54.98-30.49-2.93-22.05,17.11-29.95,35.14-28.59,22,1.65,48.02,6.43,51.97,32.75,2.6,17.4-16.36,23.65-32.11,26.31l-.02.02Z" fill="#dfe5bc"/>
  <path d="M238.29,241.38c25.14,3.07,45.9,13.2,45.84,33.13-.05,14.71-10.52,39.86-33.56,37.26-24.08-2.71-32.25-26.45-35.57-46.6-2.66-16.11,11.74-23.31,23.31-23.81l-.02.02h0Z" fill="#dfe5bc"/>
  <path d="M225.72,350.07c-5.94,12.82-11.78,31.41-24.78,30.29-20.22-1.74-40.08-14.15-45.05-36.31-3.81-17.06,8.69-24.24,25.41-23.65,21.01.74,34.87,11.58,44.41,29.68h0Z" fill="#dfe5bc"/>
  <path d="M353.38,209.17c.27,18.12-7.9,32.07-25.86,32.77-20.18.77-31.21-13.86-32.81-33.22-1.74-20.99,16.14-25.91,30.58-28.62,20.99-3.95,25.37,12.77,28.1,29.07h-.01Z" fill="#dfe5bc"/>
  <path d="M125.81,504.75c.29,13.95-8.62,24.69-28.19,25.21-21.98.59-34.03-10.65-35.79-25.57-1.92-16.16,17.6-19.93,33.33-22.03,22.88-3.05,27.65,9.84,30.65,22.36v.02h0Z" fill="#dfe5bc"/>
  <path d="M945.61,647.62c47.26,41.46,46.99,41.14-3.36,85.62-18.03,15.93-34.17,34.01-51.55,50.71-20.72,19.91-44.66,23.63-70.39,11.33-27.56-13.16-29.54-35.25-19.25-60.82,18.57-9.66,41.34-22.23,58.61-13.99,40.13,19.14,58.99-6.43,82.96-27.87-52.04-38.25-71.65-36.11-146.99,37.28-13.79,1.4-28.32,6.18-41.23,3.41-18.73-4.06-30.02-19.09-26.9-39.09,2.93-18.89,20.36-28.48,35.21-23.25,40.1,14.2,64.54-.29,85.98-33.38,11.19-17.29,28.82-2.26,43.35.18,18.39,3.07,36.58,7.36,54.84,11.08-.02,0-1.26-1.2-1.26-1.2l-.02-.02h0Z"/>
  <path d="M602.69,719.87c0,43.08-28.71,72.96-69.33,72.17-48.32-.95-82.82-32.27-82.8-75.11,0-40.22,43.53-76.55,90.38-75.44,32.16.74,61.75,38.3,61.75,78.4v-.02ZM569.52,722.03c-7.63-25.86-25.28-40.24-52.09-41.1-20.9-.65-31.62,12.37-31.84,32.59-.38,34.55,28.23,34.53,50.73,39.67,24.04,5.51,27.6-13.99,33.22-31.19l-.02.02h0Z"/>
  <path d="M371.55,777.89c-16.2.25-32.54-1.08-41.25-16.77-8.51-15.3-5.66-32.5,7.15-42.99,16.07-13.13,17.2-25.55,10.56-43.8-4.81-13.22,3.95-23.79,17.69-26.97,22.25-5.12,46.04-8.73,64.25,7.88,10,9.12,12.75,24.67,1.13,37.76-9.05,10.2-17.08,18.51-12.73,36.15,9.23,37.35-12.93,49.99-46.78,48.75h-.02ZM350.16,741.69c30.06,9.21,41.88-4.25,35.45-40.37-4.2,19.41-26.68,21.39-35.45,40.37Z"/>
  <path d="M251.65,642.61c40.13-7.33,70.75,5.89,72.44,42.79,1.44,31.51-22.79,51.12-59.92,49.83-33.63-1.15-65.94-3.59-69.24-44.57-3.27-40.92,20.83-56.17,56.71-48.05h.01ZM251.26,661.37c-6.52,6.07-19.63,12.53-20.02,19.66-1.29,23.72,20.42,18.44,34.33,21.48,10.36,2.28,25.75.93,23.31-12.05-2.98-15.75-20.29-22.07-37.62-29.11v.02h0Z"/>
  <path d="M624.76,740.76c7.4-29.29,12.93-55.92,50.15-50.48,34.03,4.96,34.66,31.66,32.57,54.73-2.14,23.63-8.8,52.63-41.93,49.49-32.14-3.05-40.17-28.75-40.78-53.71v-.02h-.01Z"/>
  <path d="M795.65,729.89c75.35-73.37,94.94-75.51,146.99-37.28-23.97,21.42-42.83,47.01-82.96,27.87-17.26-8.24-40.04,4.33-58.61,13.99-1.78-1.56-3.59-3.09-5.42-4.58h0Z" fill="#dfe5bc"/>
  <path d="M569.52,722.03c-5.62,17.2-9.19,36.67-33.22,31.19-22.5-5.15-51.09-5.15-50.73-39.67.23-20.22,10.97-33.27,31.84-32.59,26.81.86,44.46,15.23,52.09,41.1l.02-.02h0Z" fill="#dfe5bc"/>
  <path d="M350.16,741.69c8.78-18.98,31.26-20.99,35.45-40.37,6.44,36.12-5.38,49.58-35.45,40.37Z" fill="#dfe5bc"/>
  <path d="M251.26,661.37c17.33,7.04,34.66,13.36,37.62,29.11,2.44,12.95-12.95,14.31-23.31,12.05-13.9-3.05-35.61,2.21-34.33-21.48.38-7.13,13.5-13.59,20.02-19.66v-.02h0Z" fill="#dfe5bc"/>
</svg>