<?xml version="1.0" encoding="UTF-8"?>
<svg id="Layer_1" xmlns="http://www.w3.org/2000/svg" version="1.1" viewBox="0 0 1080 1080">
  <!-- Generator: Adobe Illustrator 29.7.1, SVG Export Plug-In . SVG Version: 2.1.1 Build 8)  -->
  <path d="M918.61,1026.78c-105.39,9.93-206.44-23.28-310-31.08-141.32-10.65-282.3-26.53-424.38-24.84-38.68.46-45.8-9.82-46.52-47.75-1.09-57.23-12.82-113.74-11.86-171.29.88-53.39-4.16-107.04-.24-160.12,1.78-24.14-7.15-33.44-24.3-40.56-43.95-18.25-62.61-55.08-75.03-97.41-4.3-14.67-3.25-34.22,6.03-39.25,32.25-17.5,20.9-38.18,14.86-64.45-8.86-38.56,4.76-55.48,41.68-64.45,8.67-2.12,14.63-3.19,10.6-13.7-.39-1-1.41-2.17-1.16-2.94,13.05-40.99,24.4-82.64,40.12-122.58,7.73-19.63,29.88-17.31,48.28-16.91,7.47.17,15.88,5.93,17.57-9.68,7.56-69.94,35.1-84.58,96.97-51.5,16.53,8.85,37.3,17.38,43.77,35.68,21.51,60.87,82.56,64.37,127.89,87.48,44.1,22.48,90.84,41.35,136.68,61.2,36.73,15.91,72.14,35.03,107.93,52.81,106.59,52.95,210.95,110.42,315.64,167.11,17.24,9.33,28.06,23.31,20.6,47.36-26.78,86.29-15.33,174.73-11.43,262.61,1.4,31.56.9,62.76-7.73,93.55-9.11,32.49-11.2,66.04-12.29,99.57-1.05,32.42-19.99,44.46-49.48,46.24-18.1,1.11-36.14,3.25-54.19,4.92v-.04.02ZM1027.8,532.43c-278.61,66.18-558.63,88.85-843.51,69.54-.83,21.3,1.37,45.32,3.11,69.7,4.62,65.02,24.52,127.41,28.8,192.25,1.02,15.46,4.99,23.7,25.64,22.63,41.06-2.1,82.62,4.87,123.59,2.24,90.4-5.79,179.44,1.94,267.62,20.53,115.15,24.28,231.72,36.11,348.96,41.81,17.03.83,43.48-1.65,20.97-32.2-6.64-9-5.35-20.7-1.27-31.09,8.86-22.58,7.13-46.73,7.09-69.66-.17-96.61-14.68-193.93,18.98-285.76h.02ZM1010.66,500.71c-77.65-53.46-157.6-90.44-234.54-132.72-53.49-29.41-111.19-51.12-164.6-80.68-74.45-41.21-152.49-74.74-228.09-113.35-8.75-4.47-12.17-4.34-16.62,4.81-19.81,40.63-40.84,80.68-60.52,121.38-38.45,79.46-73.87,160.56-120.84,235.53-16.24,25.94-1.37,29.88,17.93,30.23,59.49,1.11,117.97,11.68,178.2,10.44,102.5-2.13,204.45-10,305.98-20.6,52.26-5.45,104.89-8.6,157.03-16.01,55.45-7.88,110.09-18.14,166.05-39.03h.02ZM154.12,583.68c0,57.12.06,113.28,0,169.44-.07,56.25,9.9,111.88,11.23,167.85.64,26.88,5.38,35.06,33.28,33.65,36.18-1.82,72.26-9.55,108.77-4.4,42.32,5.97,85.28,8.76,127.57,10.33,113,4.18,224.78,17.07,336.53,32.72,67.22,9.4,134.91,13.59,202.93,6.98,18.82-1.82,29.76-9.41,31.85-30.87-39.48,4.05-78.36,1.27-117.22.9-106.93-1.01-211.14-22.99-316.34-37.12-49.51-6.65-98.1-14.18-148.86-11.11-63.48,3.84-127.52.76-191.21-1.98-39.69-1.7-45.61-11.75-52.02-51.7-2.75-17.14-.88-33.97-3.08-50.9-8.75-67.1-22.3-133.82-14.94-202.28,1.06-9.95-1.24-22.59-8.46-31.49h0v-.02ZM308.68,225.8c-16.23-.77-25.06-8.03-34.96-16.53-23.82-20.43-44.74-45.52-77.1-54.57-16.98-4.74-32.29-4.01-43.51,9.94-10.73,13.37-2.29,26.53,5.16,38.27,5.68,8.94,11.56,18.87,22.23,22.47,36.33,12.22,61.66,40.26,91.15,62.27,20.38-15.04,19.98-41.61,37.04-61.85h-.01ZM89.34,312.2c-15.77,1.04-20.9,27.75-10.53,47.76,18.32,35.31,56.5,47.49,83.31,72.9,10.99,10.41,26.83,21.9,37.22-1.59,6.94-15.7,22.04-33.22-8.31-44.72-22.11-8.38-38.47-26.46-53.54-44.89-12.54-15.33-28.08-26.23-48.15-29.47h.01,0ZM234.44,101.51c3.03,13.92,6.4,25.62,12.93,37.22,10.94,19.42,30.82,29.03,44.42,45.44,6.5,7.84,17.83,25.78,28.91,15.23,14.28-13.62,33.9-34.33,23.42-54.52-17.63-33.97-49.8-54.55-88.1-61.88-13.11-2.5-23.03,3.86-21.55,18.5h-.03ZM125.53,258.59c5.03,15.4,2.5,36.01,17.78,43.63,28.34,14.1,51.22,33.36,71.56,56.97,9.48,11,19.22,12.35,25.51-4.49,2.94-7.91,7.73-15.21,12.22-22.44,10.01-16.08,8.18-26.24-11.32-33.88-30.64-12.01-61.23-24.79-83.13-51.75-5.16-6.36-14.29-10.17-23.41-6.39-8.12,3.37-9.17,10.95-9.22,18.35h.01ZM58.79,448.12c-1.26,23.16,33.61,63.39,62.65,75.9,14.34,6.18,25.26,7.87,30.7-8.46,5.23-15.64,29.79-30.69,3.53-48.84-20.88-14.42-40.92-30.22-62.71-43.09-19.7-11.64-32.76-1.4-34.17,24.5h0Z"/>
  <path d="M1027.8,532.43c-33.66,91.82-19.15,189.14-18.98,285.76.04,22.95,1.76,47.09-7.09,69.66-4.08,10.38-5.36,22.08,1.27,31.09,22.51,30.54-3.94,33.01-20.97,32.2-117.23-5.7-233.82-17.53-348.96-41.81-88.17-18.59-177.22-26.31-267.62-20.53-40.98,2.63-82.55-4.34-123.59-2.24-20.67,1.06-24.64-7.19-25.64-22.63-4.27-64.84-24.17-127.23-28.8-192.25-1.73-24.39-3.93-48.4-3.11-69.7,284.9,19.31,564.92-3.36,843.51-69.54h-.02ZM635.44,682.63c-25,4.26-50.1,7.87-74.93,12.97-21.03,4.31-28.16,17.75-12.7,33.91,11.99,12.54,3.73,27.23,9.51,38.78,12.07,24.1-11.27,21.41-20.27,29.38-13.77,12.18-19.66,26.2-7.78,42.15,12.15,16.33,25.64,13.42,41.53,2.57,26.13-17.85,24.5-42.51,20.88-68.46-2.06-14.74-4.65-29.41-6.84-44.11-.73-4.87-3.61-11.38,4.37-12.53,15.77-2.27,32.83-7.98,47.2-4.15,13.26,3.53,5.76,22.6,8.23,34.2,2.02,9.54,15.93,26.71-7.19,34.22-20.39,6.62-29.83,23.63-22,42.98,6.26,15.43,21.01,28.56,40.37,23.1,22.31-6.3,32.92-21.22,26.96-46.35-6.35-26.76-16.78-53.5-13.8-81.26,2.93-27.22-1.88-42.23-33.55-37.37l.03-.03h-.02ZM971.97,662.57c-4.11-32.31-28.26-45.66-55.15-54.34-20.6-6.65-38.02-8.12-54.03,16.81-15.15,23.58-33.5,57.07-74.39,37.33-4.06-1.96-10.48.83-15.77,1.55-12.01,1.62-21.19,8.75-21.23,20.28-.04,12.5,8.68,23.02,21.77,23.45,20.86.69,41.83,3.41,60.55-13.16,15.93-14.09,32.07-26.46,44.38-44.92,19.82-29.72,43.59-7.16,60.68,4,20.54,13.42-1.12,24.23-9.53,34.27-19.53,23.34-37.06,48.5-75.55,36.21-16.22-5.17-27.51,8.59-30.18,25.85-2.72,17.68,8.86,23.96,22.78,29.49,23.39,9.3,40.04-4.33,53.78-18.11,19.41-19.48,37.95-40.06,54.65-62.38,8.61-11.52,17.67-20.85,17.25-36.33h-.01ZM324.8,655.41c-13.4-.18-30.19,12.76-48.65,20.61-23.38,9.94-30.21,23.52-10.37,46.35,14.38,16.56,28.8,35.29,3.21,59.21-16.49,15.41-5.57,41.28,14.41,45.15,23.28,4.52,51.88-28.84,40.22-51.14-10.48-20.02-12.73-42.91-25.7-61.48-4.95-7.09-16.69-16.88.64-21,15.08-3.59,33.25-27.99,44-8.88,11.39,20.24,38.28,44.83,9.14,73.41-11.24,11.02-4.18,24.11,1.78,35.7,4.24,8.25,10.02,12.73,20.64,10.66,28.99-5.7,42.34-27,30.14-54.33-11.64-26.06-26.25-50.82-40.2-75.79-6.61-11.82-16.78-19.31-39.25-18.48h-.01ZM475.19,731.93c26.82,2.24,56.03-18.59,57.37-40.92,1.19-19.73-32.09-50.65-57.19-53.2-17.63-1.78-55.88,32.07-56.49,49.98-.73,21.62,24.61,41.49,56.32,44.13h-.01ZM880.51,904.77c25.06,1.33,39.8-12,42.11-35.93,2.24-23.28-20.58-44.54-44.56-45.25-25.64-.76-49.49,17.25-51.29,38.75-1.91,22.77,21.12,40.87,53.74,42.43h0ZM753.89,880.23c23.29.18,25.96-17.13,28.22-30.68,2.71-16.3-9.33-27.22-24.61-26.34-15.22.87-28.47,10.45-29.07,28.13-.62,18.25,13.33,24.52,25.47,28.88h0ZM200.12,646.22c-3.55,13.37,3.64,23.97,18.93,24.22,13.44.22,29.68-3.37,29.58-21.77-.07-14.68-7.26-27.26-24.5-28.4-16-1.04-23.31,7.99-24.03,25.94h.02Z" fill="#dfe5bc"/>
  <path d="M1010.66,500.71c-55.96,20.88-110.6,31.15-166.05,39.03-52.15,7.41-104.79,10.55-157.03,16.01-101.53,10.59-203.49,18.47-305.98,20.6-60.23,1.26-118.71-9.33-178.2-10.44-19.3-.36-34.17-4.3-17.93-30.23,46.98-74.97,82.4-156.05,120.84-235.53,19.69-40.7,40.71-80.74,60.52-121.38,4.45-9.14,7.87-9.28,16.62-4.81,75.61,38.61,153.65,72.14,228.09,113.35,53.39,29.56,111.09,51.29,164.6,80.68,76.92,42.28,156.87,79.26,234.54,132.72h-.02ZM633.66,471.03c8.5-.68,25.38-4.88,25.26-25.27-.14-23.03-16.58-13.34-30.08-12.79-24.91,1.02-51.88-3.65-66.16-24.79-28.05-41.52-66.03-38.36-104.58-27.15-28.87,8.41-51.62,8.6-70.26-17.85-4.94-7.01-13.74-12.46-22.42-7.31-12.51,7.4,1.02,13.4,2.07,20.28,3.75,24.5,20.09,30.73,41.05,37.48,21.35,6.87,39.12,1.16,58.63-3.44,21.43-5.06,47.6-14.53,62.09,7.76,23.41,36.01,57.25,47.58,104.43,53.1h-.01l-.02-.02ZM436.42,504.58c1.74-29.21-33.5-63.4-62.25-57-19.37,4.31-34.98,5.68-49.84-9.7-6.98-7.23-17.32-9.54-26.34-2.45-10.3,8.1-8.57,18.59-3.54,29.02,9.91,20.5,25.58,30.66,48.93,27.9,26.41-3.12,53.99-10.11,68.97,23.03,2.27,5,10.8,6.46,17.45,2.81,5.45-2.99,6.36-8.12,6.61-13.6h.01Z" fill="#dfe5bc"/>
  <path d="M154.12,583.68c7.23,8.9,9.53,21.53,8.46,31.49-7.35,68.46,6.19,135.19,14.94,202.28,2.21,16.92.35,33.76,3.08,50.9,6.4,39.97,12.33,50,52.02,51.7,63.69,2.74,127.73,5.82,191.21,1.98,50.76-3.07,99.36,4.47,148.86,11.11,105.19,14.13,209.4,36.1,316.34,37.12,38.86.37,77.75,3.15,117.22-.9-2.09,21.46-13.02,29.05-31.85,30.87-68.02,6.61-135.72,2.42-202.93-6.98-111.76-15.64-223.53-28.55-336.53-32.72-42.29-1.56-85.27-4.35-127.57-10.33-36.5-5.16-72.58,2.57-108.77,4.4-27.9,1.41-32.64-6.79-33.28-33.65-1.33-55.96-11.29-111.59-11.23-167.85.07-56.16,0-112.31,0-169.44h0v.02Z" fill="#dfe5bc"/>
  <path d="M308.68,225.8c-17.06,20.24-16.66,46.81-37.02,61.87-29.49-22.02-54.83-50.07-91.15-62.29-10.67-3.59-16.55-13.51-22.23-22.47-7.45-11.74-15.88-24.9-5.16-38.27,11.21-13.96,26.53-14.68,43.51-9.94,32.36,9.04,53.28,34.13,77.1,54.57,9.9,8.49,18.73,15.76,34.96,16.53h-.01Z" fill="#dfe5bc"/>
  <path d="M89.34,312.19c20.06,3.26,35.6,14.16,48.14,29.49,15.07,18.43,31.45,36.51,53.54,44.89,30.35,11.49,15.23,29.02,8.31,44.72-10.38,23.49-26.23,12-37.22,1.59-26.82-25.42-65-37.59-83.31-72.9-10.38-20.02-5.25-46.73,10.53-47.78h.01Z" fill="#dfe5bc"/>
  <path d="M234.44,101.51c-1.49-14.64,8.45-21,21.55-18.5,38.31,7.33,70.48,27.91,88.1,61.88,10.48,20.18-9.14,40.91-23.42,54.52-11.06,10.55-22.41-7.4-28.91-15.23-13.6-16.41-33.47-26.02-44.42-45.44-6.54-11.61-9.9-23.31-12.93-37.22h.03Z" fill="#dfe5bc"/>
  <path d="M125.53,258.59c.06-7.4,1.11-14.97,9.22-18.35,9.11-3.79,18.23.03,23.41,6.39,21.9,26.97,52.49,39.73,83.13,51.75,19.51,7.66,21.35,17.81,11.32,33.88-4.51,7.23-9.28,14.53-12.22,22.44-6.28,16.84-16.02,15.5-25.51,4.49-20.35-23.61-43.23-42.87-71.56-56.97-15.28-7.6-12.75-28.23-17.78-43.63h-.01Z" fill="#dfe5bc"/>
  <path d="M58.79,448.12c1.41-25.89,14.47-36.14,34.17-24.5,21.79,12.87,41.83,28.67,62.71,43.09,26.28,18.15,1.7,33.21-3.53,48.84-5.45,16.33-16.38,14.63-30.7,8.46-29.05-12.51-63.91-52.74-62.65-75.9h0Z" fill="#dfe5bc"/>
  <path d="M635.44,682.63c31.67-4.88,36.5,10.13,33.55,37.37-3,27.76,7.45,54.51,13.8,81.26,5.96,25.13-4.65,40.06-26.96,46.35-19.37,5.46-34.12-7.67-40.37-23.1-7.85-19.35,1.59-36.36,22-42.98,23.11-7.51,9.21-24.68,7.19-34.22-2.45-11.6,5.05-30.68-8.23-34.2-14.38-3.82-31.42,1.88-47.2,4.15-7.98,1.15-5.1,7.66-4.37,12.53,2.2,14.72,4.78,29.38,6.84,44.11,3.62,25.95,5.25,50.61-20.88,68.46-15.88,10.85-29.39,13.76-41.53-2.57-11.88-15.95-5.99-29.96,7.78-42.15,9-7.96,32.34-5.28,20.27-29.38-5.78-11.54,2.47-26.24-9.51-38.78-15.46-16.17-8.32-29.6,12.7-33.91,24.82-5.09,49.93-8.71,74.93-12.97l-.03.03h.02Z"/>
  <path d="M971.97,662.57c.41,15.47-8.64,24.82-17.25,36.33-16.7,22.31-35.23,42.9-54.65,62.38-13.74,13.78-30.39,27.41-53.78,18.11-13.92-5.53-25.51-11.81-22.78-29.49,2.67-17.28,13.95-31.04,30.18-25.85,38.49,12.29,56.03-12.87,75.55-36.21,8.41-10.04,30.07-20.86,9.53-34.27-17.09-11.16-40.85-33.72-60.68-4-12.3,18.47-28.45,30.83-44.38,44.92-18.72,16.56-39.69,13.84-60.55,13.16-13.09-.43-21.83-10.94-21.77-23.45.04-11.53,9.22-18.66,21.23-20.28,5.31-.72,11.71-3.51,15.77-1.55,40.88,19.73,59.24-13.76,74.39-37.33,16.01-24.91,33.43-23.46,54.03-16.81,26.89,8.68,51.04,22.02,55.15,54.34h.01Z"/>
  <path d="M324.8,655.41c22.47-.83,32.64,6.66,39.25,18.48,13.95,24.97,28.56,49.73,40.2,75.79,12.21,27.33-1.15,48.65-30.14,54.33-10.62,2.09-16.4-2.39-20.64-10.66-5.94-11.59-13.01-24.68-1.78-35.7,29.13-28.58,2.24-53.18-9.14-73.41-10.76-19.12-28.92,5.28-44,8.88-17.32,4.12-5.6,13.89-.64,21,12.97,18.57,15.22,41.46,25.7,61.48,11.65,22.29-16.94,55.66-40.22,51.14-19.96-3.87-30.88-29.74-14.41-45.15,25.59-23.92,11.17-42.65-3.21-59.21-19.84-22.84-13.01-36.4,10.37-46.35,18.46-7.85,35.25-20.79,48.65-20.61h.01Z"/>
  <path d="M475.19,731.93c-31.7-2.65-57.05-22.51-56.32-44.13.61-17.92,38.86-51.76,56.49-49.98,25.12,2.53,58.38,33.47,57.19,53.2-1.34,22.33-30.55,43.16-57.37,40.92h.01ZM495.12,692.79c-1.49-11.86-8.78-16.59-19.74-13.77-9.36,2.41-25.78-7.58-27,6.18-1.26,14.28,15.86,15.95,27.95,19.01,10.66,2.7,15.48-2.6,18.79-11.42h0Z"/>
  <path d="M880.51,904.77c-32.61-1.56-55.66-19.66-53.74-42.43,1.81-21.48,25.64-39.5,51.29-38.75,23.97.71,46.8,21.97,44.56,45.25-2.31,23.93-17.05,37.26-42.11,35.93h0ZM892.95,866.62c-4.2-9.4-10.31-16.15-21.7-15.41-6.51.41-14.25,1.01-12.69,9.87,1.89,10.74,9.43,16.2,20.86,15.18,6.43-.58,13.13-.55,13.53-9.64Z"/>
  <path d="M753.89,880.23c-12.14-4.37-26.09-10.63-25.47-28.88.61-17.68,13.85-27.25,29.07-28.13,15.28-.88,27.3,10.05,24.61,26.34-2.25,13.55-4.92,30.86-28.22,30.68h0Z"/>
  <path d="M200.12,646.22c.72-17.94,8.03-26.99,24.03-25.94,17.24,1.12,24.41,13.71,24.5,28.4.1,18.4-16.15,22-29.58,21.77-15.29-.25-22.48-10.85-18.93-24.22h-.02Z"/>
  <path d="M633.66,471.03c-47.18-5.52-81.03-17.09-104.43-53.1-14.49-22.29-40.66-12.82-62.09-7.76-19.51,4.6-37.29,10.31-58.63,3.44-20.96-6.75-37.3-12.98-41.05-37.48-1.05-6.87-14.57-12.87-2.07-20.28,8.7-5.14,17.49.3,22.42,7.31,18.65,26.45,41.39,26.25,70.26,17.85,38.56-11.21,76.53-14.36,104.58,27.15,14.28,21.14,41.25,25.81,66.16,24.79,13.51-.55,29.94-10.24,30.08,12.79.12,20.39-16.76,24.59-25.26,25.27h.01l.02.02Z"/>
  <path d="M436.39,504.57c-.24,5.49-1.15,10.63-6.58,13.62-6.65,3.65-15.18,2.2-17.45-2.81-14.97-33.14-42.55-26.16-68.97-23.03-23.36,2.76-39.01-7.38-48.93-27.9-5.05-10.42-6.76-20.92,3.54-29.02,9.01-7.09,19.35-4.78,26.34,2.45,14.86,15.39,30.47,14.02,49.84,9.7,28.76-6.4,63.99,27.79,62.22,56.99h-.01Z"/>
  <path d="M495.12,692.79c-3.29,8.82-8.13,14.12-18.79,11.42-12.1-3.06-29.21-4.74-27.95-19.01,1.2-13.76,17.64-3.77,27-6.18,10.95-2.82,18.25,1.91,19.74,13.77h0Z" fill="#dfe5bc"/>
  <path d="M892.94,866.65c-.39,9.06-7.09,9.03-13.52,9.61-11.45,1.02-18.98-4.42-20.86-15.18-1.56-8.86,6.18-9.46,12.69-9.87,11.39-.72,17.52,6.01,21.7,15.44h-.01Z" fill="#dfe5bc"/>
</svg>