<?xml version="1.0" encoding="UTF-8"?>
<svg id="Layer_1" xmlns="http://www.w3.org/2000/svg" version="1.1" viewBox="0 0 1080 1080">
  <!-- Generator: Adobe Illustrator 29.7.1, SVG Export Plug-In . SVG Version: 2.1.1 Build 8)  -->
  <path d="M1011.07,709.06c30.64,24.06,58.4,49.03,43.4,90.22-16.81,46.14-62.24,55.51-101.86,61.12-32.53,4.61-41.98,11.45-40.95,44.89,1.52,48.34-36.15,63.28-76.08,70.67-12.38,2.29-25.7.37-38.49-.73-41.57-3.57-78.63-14.65-111.25,34.8-22.85,34.65-77.74,20.75-116.71,9.78-22.17-6.23-41.24-6.75-63.47-6.67-58.75.19-119.47-.71-160.83-54.72-2.87-3.76-6.71-7.31-10.86-9.47-44.52-23.04-100.46-13.77-141.66-53.99-6.94-6.79-49.78-5.34-72.71-18.59-27.34-15.79-54.18-42.75-51.54-71.21,5.42-58.19-13.5-109.11-28.81-162-1.79-6.17-6.09-14.52-3.68-18.55,34.09-57.3,4.4-103.75-20.01-154.41-17.16-35.63,13.59-99.97,55.18-122.78,18.99-10.41,16.14-12.98,8.31-29.4-39.14-81.91-16.91-131.31,70.94-154.44,21.44-5.65,27.98-15,32.55-33.55,15.62-63.44,59.98-82.45,119.31-51.48,14.65,7.64,26.82,17.12,41.49-1.35,36.31-45.72,80.08-28.73,121.92-10.53,12.94,5.63,20.07,15.39,37.41,5.17,48.28-28.42,110.19-15.1,143.47,32.2,13.88,19.71,23.54,26.76,48.59,21.81,55.49-10.95,89.7,7.94,118.79,58.5,9.66,16.79,17.37,28.69,42.79,28.38,38.66-.46,93.86,44.44,102.75,99.82,2.64,16.45,4.45,29.79,19.92,40.68,50.02,35.19,58.79,84.38,44.81,141.04-3.01,12.17-12.98,22.96.35,39.39,63.38,78.17,60.87,105.3-13.07,175.36l-.02.04h.02ZM104.53,371.96c-69.78,42.17-77.43,89.43-20.38,136.09,19.63-40.57,13-86.94,30.29-127.28,3.14-4.01,11.99-7.15,5.32-13.21-4.51-4.09-11.45-1.81-15.23,4.4h0ZM358.84,482.19l-.54-.64c3.91,4.53,6.96,10.66,11.88,13.38,67.06,37.08,127.57-3.49,190.75-17.45-17.18-3.41-32.57-51.77-51.81.15-4.65,12.57-20.25,13.42-33.53,5.38-14.06-8.52-10.57-20.52-2.99-28.34,20.42-21.02,4.51-34.96-9-46.51-57.11-48.9-122.03-86.82-184.16-128.68-26.51-17.85-46.06,3.86-50.17,16.74-10.53,32.93-61.74,47.86-41.13,93.09,1.2,2.66,4.4,4.84,7.17,6.34,30.68,16.45,56.73,42.61,93.96,45.5l-1-.81c21,18.24,43.69,33.65,70.61,41.88l-.04-.02h0ZM292.01,243.91c7.5,5.05,13.19,10.66,20.05,13.25,106.61,40.3,182.58,126.76,277.44,185.06,38.45,23.64,30.85,59.6-12.57,73.96-25.53,8.43-50.48,18.66-77.4,24.56-105.8,23.23-210.53,51.31-316.14,75.43-29.31,6.69-27.82,19.69-16.7,40.07,27.53,50.5,58.29,96.56,112.22,124.92,55.49,29.19,115.42,46.08,172.57,70.4,65.98,28.07,137.92,46.22,207.68,42.05,113.53-6.79,190.35-76.49,234.23-179.9,36.23-85.36,30.25-172.22-1.12-257.89-65.67-179.22-154.04-273.83-349.38-272.54-19.61.12-38.49.25-55.8-10.01-14.52-8.62-27.51-8.37-44.71-3.1-53.51,16.43-104.93,35.65-150.38,73.73l.02.02h0ZM355.6,882.01c20.65,81.02,104.83,98.03,163.93,89.1,22.64-3.41,37.71-11.09,59.06,9.64,18.47,17.93,50.92,12.38,77.36,7.27,13.27-2.56,23.62-13.27,22.21-27.69-1.95-20.15-17.62-13.32-29.73-11.8-20.69,2.6-40.09-1.62-60.68-5.4-76.68-14.06-151.76-34.17-232.19-61.12h.04,0ZM140.61,515.55c5.32,11.38,4.94,25.72,4.45,40.28-.37,10.72,7.64,23.37,16.12,17.8,41.71-27.32,95.04-12.01,135.97-39.01,24.58-16.2,13.34-28.25-6.88-36.33-37-14.81-74.33-28.71-108.48-49.78-16.31-10.05-28.4-4.15-32.82,13.19-4.28,16.83-5.48,34.44-8.35,53.83v.02h0ZM344.3,871.89c-81.98-34.17-159.55-73.56-209.7-151.38-30.64,30.19-40.7,60.52-18.66,93.15,19.82,29.31,41.9,58.69,84.26,26.76,11.2-8.43,25.7,3.99,32.24,14.56,30.23,48.88,68.24,43.83,111.87,16.89l-.02.02h0ZM881.52,834.94c44.69,1.91,81.12-6.42,116.48-20.9,18.55-7.58,37.56-16.76,30.02-41.13-10.08-32.59-38.06-43.09-68.33-52.48-30.1-9.33-20.44,17.6-27.11,27.17-18.03,25.91-32.26,54.45-51.06,87.31v.02h0ZM235.67,218.85c-71.65-34.86-91.14-33.92-128.24,1.99-27.38,26.51-23.2,63.69,9.58,91.57,35.77,30.43,40.74-12.34,50.92-25.49,18.39-23.72,30.1-52.54,67.74-68.06v-.02h0ZM955.98,664.27c-.12,11.28.56,28.34,24.89,23.62,28.13-5.46,66.46-55.97,62.55-83.84-3.91-27.92-22.62-48.99-48.96-50.88-29.6-2.14-31.64,24.78-32.82,48.18-.96,19.13-3.37,38.18-5.65,62.93h-.01ZM324.75,146.81c-12.65-28.4-36.25-47.76-64.84-49.8-28.05-1.99-48.01,20.92-49.15,48.69-1,23.89,22.91,37.52,38.45,53.12,4.69,4.72,75.56-45.37,75.54-52.02h0ZM997.76,449.53c1.75-29.83-15.44-50.32-35.21-68.91-7.5-7.04-18.39-6.29-27.11-2.02-10.7,5.26-7.83,14.58-5.94,24.6,4.42,23.18,14.81,44.6,16.12,69.07.81,15.39,2.83,41.28,22.81,41.24,17.47-.04,23.39-22.89,26.88-40.24,1.58-7.77,1.68-15.83,2.47-23.74h-.02,0ZM752.23,934.03c38.33,10.18,71.19,5.38,103.29.31,17.14-2.7,25.22-18.68,28.09-35.52,2.91-17.14-8.5-26.11-20.73-34.57-9.45-6.52-18.59-6.07-25.37,2.78-21.23,27.67-55.13,39.45-85.28,66.98v.02ZM840.08,244.91c9.27,44.1,54.7,63.49,61.1,107.36,39.45-46.99,12.9-93.01-61.1-107.36h0ZM514.21,127.05c14.31,3.97,26.26,10.24,37.95,9.85,21.07-.73,44.62,2.1,61.57-12.49,5.71-4.92-4.07-18.05-13.75-21.29-25.43-8.52-51.64-19.47-74.56,5.59-4.07,4.45-6.46,10.43-11.22,18.36v-.02h0ZM371.02,132.29c19.42,8.64,31.04-4.63,44.75-5.36,14.48-.75,28.67-2.87,38.22-14.15,4.47-5.28-1.04-11.74-7.27-14.52-17.93-8-37.41-12.42-54.53-1.89-11.3,6.96-18.68,20.38-21.15,35.92h-.02ZM91.69,584.46c-27.19,27.05-12.28,56.38-9.24,83.39,1.23,10.97,16.62,17.51,27.03,13.52,11.38-4.36,4.84-17.03,2.66-25.59-5.96-23.27-13.15-46.22-20.44-71.32h-.01Z"/>
  <path d="M292.01,243.91c45.45-38.08,96.87-57.32,150.38-73.73,17.2-5.28,30.18-5.53,44.71,3.1,17.3,10.26,36.19,10.14,55.8,10.01,195.32-1.31,283.71,93.32,349.38,272.54,31.39,85.65,37.35,172.51,1.12,257.89-43.88,103.41-120.7,173.11-234.23,179.9-69.76,4.18-141.7-13.96-207.68-42.05-57.17-24.33-117.08-41.22-172.57-70.4-53.93-28.38-84.7-74.43-112.22-124.92-11.11-20.38-12.61-33.38,16.7-40.07,105.62-24.12,210.34-52.23,316.14-75.43,26.92-5.9,51.89-16.12,77.4-24.56,43.42-14.35,51.04-50.32,12.57-73.96-94.83-58.29-170.81-144.75-277.44-185.06-6.86-2.6-12.57-8.21-20.05-13.25l-.02-.02h0ZM546.39,613.4c-18.14,12.46-43.56,19.63-52.06,44.56-7.98,23.45,1.93,42.11,18.26,60.56,14.02,15.85,52.08,33.82,5.78,58.08-7.1,3.72-8.81,13.61-3.74,21.36,5.82,8.87,14.08,12.01,24.62,7.56,21.94-9.27,46.6-15.66,52.75-43.44,5.9-26.57-9.95-39.53-30.56-53.04-24.95-16.31-49.82-37.6-7.4-63.94,9.2-5.71,13.67-13.17,9.1-23.97-2.8-6.67-7.89-9.56-16.76-7.75l.02.02h-.01ZM748.53,490.98c-23.12-2.58-39.28,8.27-54.82,19.86-7.31,5.44-17.91,12.01-10.16,22.96,6.56,9.27,17.68,8.41,25.47,1.06,32.89-31.04,40.22-5.34,51.17,20.67,19.55,46.51,42.88,54.51,87.31,35.59,12.73-5.42,26.49-10.2,21.98-25.7-4.11-14.11-18.34-16.91-32.22-12.38-31.97,10.45-50.09-.66-53.45-34.19-2.35-23.39-17.76-28.25-35.25-27.86h-.03ZM584.14,251.91c-25.3,4.9-47.55,7.87-51.69,32.35-3.78,22.31,10.91,36.17,29.58,44.39,16.89,7.44,27.13,15.75,18.51,36.21-3.66,8.7-4.34,19.94,9.45,21.96,9.27,1.35,14.94-5.88,17.8-13.25,8.85-22.79,19.69-48.99-12.71-60.58-37.64-13.44-42.86-30.21-10.95-61.1v.02h.01Z" fill="#dfe5bc"/>
  <path d="M289.23,441.14c-37.25-2.89-63.28-29.04-93.96-45.5-2.76-1.47-5.94-3.66-7.17-6.34-20.61-45.23,30.6-60.16,41.13-93.09,4.11-12.88,23.68-34.59,50.17-16.74,62.16,41.86,127.06,79.75,184.16,128.68,13.5,11.57,29.42,25.51,9,46.51-7.58,7.81-11.07,19.82,2.99,28.34,13.3,8.04,28.88,7.19,33.53-5.38,19.24-51.94,34.63-3.55,51.81-.15-63.17,13.96-123.69,54.51-190.75,17.45-4.92-2.72-7.96-8.83-11.88-13.38,10.45-17.89,20.88,2.76,31.83.02,20.15-5.01,35.75-15.12,39.87-35.96,2.16-10.93-1.64-22.79-15.39-26.15-19.36-4.72-38-5.48-52.7,11.63-14.02,16.33,7.81,34.67-3.05,51.13-26.94-8.23-49.61-23.64-70.55-41.82,20.03,1.75,45.2,16.91,51.52-18.14,2.35-12.96-.6-28.23-16.72-28.19-29.58.04-32.03,21.63-29.94,44.79.06.64-2.56,1.54-3.93,2.31l.04-.02h0ZM278.55,321.42c-22.25.96-33.8,12.19-36.04,32.37-1.83,16.39,3.51,28.73,22.31,29.81,26.38,1.52,30.91-17.55,33.99-37.39,2.6-16.76-7.77-22.66-20.25-24.78h0Z" fill="#dfe5bc"/>
  <path d="M355.6,882.01c80.42,26.94,155.52,47.07,232.19,61.12,20.59,3.78,39.99,8,60.68,5.4,12.11-1.52,27.75-8.35,29.73,11.8,1.41,14.42-8.93,25.14-22.21,27.69-26.47,5.09-58.89,10.66-77.36-7.27-21.36-20.73-36.44-13.07-59.06-9.64-59.1,8.91-143.28-8.08-163.93-89.1h-.04Z" fill="#dfe5bc"/>
  <path d="M140.61,515.55c2.87-19.38,4.07-37,8.35-53.83,4.42-17.37,16.52-23.27,32.82-13.19,34.15,21.07,71.48,34.98,108.48,49.78,20.19,8.08,31.43,20.11,6.88,36.33-40.9,26.99-94.23,11.7-135.97,39.01-8.48,5.55-16.49-7.08-16.12-17.8.5-14.54.87-28.88-4.45-40.28v-.02h0Z" fill="#dfe5bc"/>
  <path d="M344.3,871.89c-43.63,26.94-81.64,31.97-111.87-16.89-6.54-10.57-21.04-23.02-32.24-14.56-42.36,31.93-64.44,2.56-84.26-26.76-22.06-32.62-11.99-62.97,18.66-93.15,50.15,77.82,127.72,117.21,209.7,151.38l.02-.02h0Z" fill="#dfe5bc"/>
  <path d="M881.52,834.94c18.8-32.86,33.03-61.43,51.06-87.31,6.65-9.56-2.99-36.5,27.11-27.17,30.27,9.37,58.25,19.88,68.33,52.48,7.54,24.37-11.47,33.55-30.02,41.13-35.36,14.46-71.8,22.79-116.48,20.9v-.02h0Z" fill="#dfe5bc"/>
  <path d="M235.67,218.85c-37.64,15.54-49.34,44.33-67.74,68.06-10.18,13.15-15.14,55.92-50.92,25.49-32.78-27.88-36.94-65.06-9.58-91.57,37.1-35.92,56.59-36.85,128.24-1.99v.02h0Z" fill="#dfe5bc"/>
  <path d="M955.98,664.27c2.29-24.76,4.69-43.81,5.65-62.93,1.16-23.39,3.22-50.32,32.82-48.18,26.34,1.91,45.06,22.98,48.96,50.88,3.91,27.88-34.4,78.38-62.55,83.84-24.33,4.72-25.01-12.34-24.89-23.62h0Z" fill="#dfe5bc"/>
  <path d="M324.75,146.81c0,6.65-70.84,56.76-75.54,52.04-15.54-15.62-39.45-29.23-38.45-53.12,1.16-27.8,21.11-50.71,49.15-48.69,28.59,2.04,52.18,21.42,64.84,49.8v-.02h0Z" fill="#dfe5bc"/>
  <path d="M997.76,449.53c-.77,7.91-.89,15.98-2.47,23.74-3.51,17.35-9.43,40.2-26.88,40.24-19.98.04-21.98-25.84-22.81-41.24-1.29-24.47-11.7-45.89-16.12-69.07-1.91-9.99-4.78-19.34,5.94-24.6,8.75-4.28,19.63-5.03,27.11,2.02,19.78,18.59,36.96,39.08,35.21,68.91h.02,0Z" fill="#dfe5bc"/>
  <path d="M752.23,934.03c30.16-27.53,64.07-39.3,85.28-66.98,6.77-8.85,15.91-9.31,25.37-2.78,12.22,8.43,23.64,17.41,20.73,34.57-2.87,16.85-10.95,32.8-28.09,35.52-32.1,5.07-64.98,9.87-103.29-.31v-.02Z" fill="#dfe5bc"/>
  <path d="M114.44,380.75c-17.28,40.34-10.66,86.71-30.29,127.28-57.07-46.66-49.42-93.9,20.38-136.09l9.91,8.79v.02Z" fill="#dfe5bc"/>
  <path d="M840.08,244.91c74,14.36,100.55,60.37,61.1,107.36-6.4-43.85-51.83-63.26-61.1-107.36h0Z" fill="#dfe5bc"/>
  <path d="M514.21,127.05c4.76-7.94,7.17-13.92,11.22-18.36,22.91-25.03,49.13-14.08,74.56-5.59,9.68,3.24,19.47,16.39,13.75,21.29-16.97,14.6-40.51,11.78-61.57,12.49-11.7.39-23.64-5.88-37.95-9.85v.02h0Z" fill="#dfe5bc"/>
  <path d="M371.02,132.29c2.49-15.54,9.85-28.96,21.15-35.92,17.14-10.53,36.6-6.11,54.53,1.89,6.25,2.78,11.76,9.24,7.27,14.52-9.56,11.28-23.74,13.4-38.22,14.15-13.71.71-25.32,14-44.75,5.36h.02Z" fill="#dfe5bc"/>
  <path d="M91.69,584.46c7.29,25.1,14.5,48.05,20.44,71.32,2.18,8.56,8.73,21.23-2.66,25.59-10.43,3.99-25.8-2.56-27.03-13.52-3.03-27.01-17.95-56.34,9.24-83.39h.01Z" fill="#dfe5bc"/>
  <path d="M104.53,371.96c3.76-6.23,10.7-8.52,15.23-4.4,6.67,6.07-2.18,9.2-5.32,13.21l-9.91-8.79v-.02Z" fill="#dfe5bc"/>
  <path d="M546.39,613.4c8.87-1.81,13.96,1.1,16.76,7.75,4.57,10.8.08,18.26-9.1,23.97-42.42,26.32-17.55,47.61,7.4,63.94,20.63,13.48,36.46,26.45,30.56,53.04-6.17,27.78-30.81,34.15-52.75,43.44-10.53,4.45-18.8,1.31-24.62-7.56-5.07-7.75-3.37-17.64,3.74-21.36,46.31-24.26,8.27-42.25-5.78-58.08-16.33-18.45-26.26-37.08-18.26-60.56,8.5-24.95,33.92-32.12,52.06-44.56l-.02-.02h.01Z"/>
  <path d="M748.53,490.98c17.51-.39,32.91,4.47,35.25,27.86,3.37,33.53,21.5,44.64,53.45,34.19,13.88-4.53,28.11-1.72,32.22,12.38,4.53,15.48-9.24,20.28-21.98,25.7-44.44,18.93-67.74,10.93-87.31-35.59-10.95-26.01-18.26-51.71-51.17-20.67-7.81,7.37-18.9,8.23-25.47-1.06-7.75-10.95,2.85-17.51,10.16-22.96,15.56-11.59,31.7-22.44,54.82-19.86h.03Z"/>
  <path d="M584.14,251.91c-31.91,30.89-26.69,47.64,10.95,61.1,32.41,11.57,21.58,37.77,12.71,60.58-2.87,7.35-8.52,14.6-17.8,13.25-13.79-2.02-13.13-13.25-9.45-21.96,8.6-20.46-1.64-28.77-18.51-36.21-18.68-8.23-33.36-22.08-29.58-44.39,4.13-24.47,26.4-27.42,51.69-32.35v-.02h-.01Z"/>
  <path d="M358.84,482.19c10.89-16.43-10.95-34.8,3.05-51.13,14.71-17.14,33.36-16.35,52.7-11.63,13.73,3.34,17.55,15.23,15.39,26.15-4.13,20.84-19.71,30.95-39.87,35.96-10.97,2.72-21.4-17.91-31.83-.02l.54.66h.02Z"/>
  <path d="M278.55,321.42c12.49,2.12,22.85,8.02,20.25,24.78-3.07,19.84-7.6,38.93-33.99,37.39-18.8-1.08-24.12-13.42-22.31-29.81,2.24-20.17,13.79-31.41,36.04-32.37h0Z"/>
  <path d="M289.23,441.14c1.37-.77,3.99-1.66,3.93-2.31-2.1-23.18.35-44.75,29.94-44.79,16.12-.02,19.07,15.23,16.72,28.19-6.32,35.05-31.51,19.86-51.52,18.14-.06-.04.93.77.93.77h0Z"/>
</svg>