<?xml version="1.0" encoding="UTF-8"?>
<svg id="Layer_1" xmlns="http://www.w3.org/2000/svg" version="1.1" viewBox="0 0 1080 1080">
  <!-- Generator: Adobe Illustrator 29.7.1, SVG Export Plug-In . SVG Version: 2.1.1 Build 8)  -->
  <path d="M153.01,865.75c-1.05-.06-7.23-1.05-13.33-.66-29.13,1.89-32.58-1.59-32.47-32.1.16-45.54-.38-91.09.21-136.62.16-12.04,2.33-24.32,5.51-35.97,2.41-8.83,4.85-21.59,19.9-11.31,3.23,2.21,8.93.97,13.49,1.01,32.31.26,47.66,15.85,38.61,46.87-6.44,22.09,2.64,26.64,18.72,34.39,28.56,13.77,60.96,79.96,34.1,113.21-17.64,21.84-42,15.26-63.45,20.98-5.04,1.35-10.75.2-21.28.2h-.01ZM130.75,739.6c2.13,32.4,3.9,61.46,6.13,90.49.32,4.18-4.87,11.23,5.07,12.06,22.95,1.92,45.79.92,68.21-3.95,8.83-1.92,13.88-10.68,15.81-18.72,7.79-32.32-23.2-72.36-56.73-75.48-12.05-1.12-24.41,1.89-38.5-4.4h0ZM129.41,698.29c.24,11.37-3.47,23.24,13.07,22.26,17.81-1.05,26.65-11.84,26.63-28.23,0-12.33.37-26.61-19.54-27.4-31.16-1.25-11.18,24.94-20.16,33.37Z" fill="#dfe5bc" stroke="#000" stroke-miterlimit="10" stroke-width="5"/>
  <path d="M384.56,633.88c7.57,40.34-1.57,80.4,2.08,121.29,15.36-1.66,24.84-13.82,37.16-20.42,5.12-2.75,10.17-10.78,15.66-4.13,6.41,7.76-2.45,12.31-7.46,16.38-7.79,6.33-15.92,12.34-24.45,17.62-12.95,8.03-12.64,16.46-1.29,25.02,12.76,9.62,21.06,22.15,26.85,36.76,2.9,7.33,7.37,15.36-2.85,19.73-8.29,3.55-12.37-3.25-15.65-9.82-6.92-13.87-17.06-25.12-29.86-38.97v39.12c0,6.25.38,13.96-8.01,13.79-7.3-.15-9.21-7.26-9.39-13.77-.37-13.86-1.32-27.77-.54-41.58,2.85-50.65,1.72-101.51,8.05-151.97.5-3.96,1.27-7.66,9.7-9.06h0Z" fill="#dfe5bc" stroke="#000" stroke-miterlimit="10" stroke-width="5"/>
  <path d="M630.07,796.12c-.37,4.63.45,9.81-1.37,13.77-3.98,8.66,10.01,19.48-8.12,27.8-27.82,12.77-52.2,15.2-72.21-9.01-12.47-15.08-8.46-32.1,4.25-48.57,12.83-16.63,25.54-28.58,47.99-23.05,12.58,3.1,14.65-3.6,13.22-14.13-4.43-32.68,4.05-65.8-3.19-98.4-.72-3.25-.52-6.21,2.39-8.19,3.84-2.62,7.49-1.41,10.2,1.77,4.44,5.21,8.87,10.06,8.81,18.08-.36,46.64-.17,93.29-.17,139.93h-1.8ZM595.97,772.34c-17.07.18-38.11,18.76-37.45,32.96.87,18.91,15.58,23.81,30.46,25.95,12.84,1.85,24-19.41,25.25-41.06.92-15.91-7.11-18.48-18.26-17.85h0Z" fill="#dfe5bc" stroke="#000" stroke-miterlimit="10" stroke-width="5"/>
  <path d="M343.31,823.9c.71,5.3,1.2,10.65,2.18,15.9,1.13,6.04-.21,11.22-6.05,13.44-7.06,2.68-9.25-2.46-10.84-8.15-1.85-6.67-3.9-12.17-12.23-4.96-16.95,14.67-32.71,4.24-44.88-6.33-13.01-11.29-10.4-41.5,3.18-52.94,10.39-8.75,22.27-19.13,36.64-17.09,17.77,2.52,12.72-10.13,12.65-17.17-.1-9.36-5.15-16.76-16.76-11.42-5.85,2.69-13.4,10.09-15.87-1.28-2.11-9.7,3.29-17.87,15.16-18.91,19.08-1.68,31.45,9.42,31.94,25.74.83,27.82,6.45,55.21,4.87,83.15v.02h.01ZM319.47,793.55c1.5-6.28-3.19-9.84-7.36-8.34-11.64,4.19-25.49,7.1-26.77,23.36-.75,9.5,5.61,16.28,13.52,14.9,15.44-2.69,17.46-17.26,20.61-29.92h0Z" fill="#dfe5bc" stroke="#000" stroke-miterlimit="10" stroke-width="5"/>
  <path d="M507.55,846.42c-31.63-1.33-47.87-18.06-49.86-51.34-1.36-22.79,21.22-52.46,42.32-56.63,9.14-1.81,17.55-.91,23.52,5.79,7.68,8.61,5.67,20.46,6.27,30.86.35,6.07-7.07,6.93-12.78,6.85-5.41-.07-11.05-.87-16.19.35-10.14,2.4-29.36-7.86-23.4,18.06,4.33,18.81,16.67,31.06,34,27.9,7.58-1.38,14.17-12.33,22.59-3.14,1.84,2.01,1.08,7.61-.11,10.97-2.5,7.08-13.19,10.88-26.37,10.32h0Z" fill="#dfe5bc" stroke="#000" stroke-miterlimit="10" stroke-width="5"/>
  <path d="M130.75,739.6c14.08,6.29,26.44,3.28,38.5,4.4,33.52,3.12,64.51,43.16,56.73,75.48-1.94,8.04-6.98,16.8-15.81,18.72-22.42,4.88-45.26,5.88-68.21,3.95-9.94-.83-4.75-7.88-5.07-12.06-2.23-29.03-3.99-58.09-6.13-90.49h0Z"/>
  <path d="M129.41,698.29c8.98-8.43-11-34.62,20.16-33.37,19.91.8,19.53,15.08,19.54,27.4,0,16.39-8.82,27.18-26.63,28.23-16.54.98-12.83-10.89-13.07-22.26Z"/>
  <path d="M595.97,772.34c11.15-.63,19.18,1.93,18.26,17.85-1.25,21.65-12.41,42.91-25.25,41.06-14.88-2.14-29.59-7.04-30.46-25.95-.66-14.21,20.38-32.78,37.45-32.96h0Z"/>
  <path d="M319.47,793.55c-3.15,12.66-5.17,27.22-20.61,29.92-7.91,1.38-14.27-5.4-13.52-14.9,1.28-16.25,15.13-19.16,26.77-23.36,4.17-1.5,8.86,2.06,7.36,8.34h0Z"/>
  <path d="M122.83,254.73c.34,34.46,2.95,36.96,37.81,36.12,7.55-.18,18.27-4.15,19.83,5.4,1.49,9.12-9.43,11.66-16.96,11.03-28.62-2.39-40.33,9.58-37.15,38.45,1.05,9.55-2.72,19.77-5.04,29.5-1.56,6.54-5.63,11.25-13.42,9.3-7.36-1.84-10.18-6.1-7.04-13.75,13.46-32.86,3.49-66.9,4.65-100.38.42-12.32-1.95-24.76-1.24-37.04.95-16.41,8.93-27.92,27.2-27.26,29.3,1.06,58.63,2.17,87.8,4.8,6.6.59,20.16-1.31,18.57,10.98-1.49,11.61-12.08,3.68-18.77,4.75-27.8,4.46-55.16,1.92-83-.43-26.27-2.22-7.23,20.8-13.25,28.53h0Z" fill="#dfe5bc" stroke="#000" stroke-miterlimit="10" stroke-width="5"/>
  <path d="M566.46,513.75c8.27-26.8,23.62-50.45,38.71-73.1,31.1-46.67,32.52-51.62-3.67-97.54-3.35-4.25-7.66-8.01-9.92-12.76-3.19-6.7-7.89-15.96.79-20.47,10.2-5.3,9.23,6.65,12.61,11.65.43.64.89,1.27,1.34,1.9,11.71,16.3,21.67,43.96,35.56,46.09,18.31,2.82,21.48-28.37,34.2-42.64,2.49-2.79,4.21-7.22,8.32-5.76,5.65,2.01,4.3,7.12,3.27,11.8-4.96,22.46-21.01,39.03-31.25,58.69-22.55,43.26-46.5,85.79-70.05,128.52-3.06,5.56-4.73,15.12-14.44,10.07-5.97-3.11-6.96-9.76-5.46-16.46h-.01Z" fill="#dfe5bc" stroke="#000" stroke-miterlimit="10" stroke-width="5"/>
  <path d="M450.36,236.44c12.37,22.44,7.42,43.66,9.57,63.83.69,6.47-2.03,14.61,10.46,11.7,38.26-8.91,58.2,5.04,62.12,42.5.08.75,0,1.59-.26,2.29-3.58,9.69,7.09,27.79-9.67,28.22-13.04.34-6.41-15.92-7.6-25.11-.49-3.81-2.01-7.52-2.25-11.32-1-15.97-8.72-28.69-24.86-27.31-16.22,1.39-24.19,15.34-25.52,31.53-.62,7.55,2.63,15.42-2.05,22.62-2.62,4.02-5.5,7.83-11.07,6.17-4.65-1.38-8.16-4.14-9.25-9.36-1.89-9.05,5.86-120.3,10.38-135.77h0Z" fill="#dfe5bc" stroke="#000" stroke-linecap="round" stroke-linejoin="round" stroke-width="5"/>
  <path d="M324.35,367.72c6.07-.7,15.28-8.56,16.74,3.22,1.2,9.69-5.79,16.51-15.62,16.44-20.06-.13-39.84-2.79-57.82-12.82-1.33-.74-2.54-1.79-3.63-2.87-9.95-9.89-4.57-60.47,7.54-71.13,16.81-14.8,48.13-11.32,62.16,6.89,10.41,13.51,4.6,27.8-12.52,29.96-10.71,1.35-21.52,2.12-32.3,2.55-6.22.25-12.56-1.23-12.49,8.39.06,8.03,2.54,13.42,11.35,14.48,12.22,1.47,24.4,3.24,36.59,4.88h0ZM325.2,321.43c-20.04-19.54-29.1-19.34-43.29,0h43.29Z" fill="#dfe5bc" stroke="#000" stroke-miterlimit="10" stroke-width="5"/>
  <path d="M398.9,377.35c-5.17-17.25-19.47-21.75-30.26-29.8-19.97-14.91-19.43-24.91,2.49-36.97,11.04-6.08,23.49-6.87,35.56-8.83,4.87-.79,9.6,1.5,10.91,6.64,1.79,6.98-4.23,6.32-8.38,7.4-11.7,3.07-29.88.87-32.82,12.25-3.22,12.49,16.04,15.04,24.25,23.37,10.38,10.53,23.77,19.97,12.47,36.62-6.52,9.61-49.44,8.66-56.78.08-5.6-6.55-1.98-8.25,4.44-10.8,12.37-4.93,24.27,2.09,38.09.04h.03Z" fill="#dfe5bc" stroke="#000" stroke-miterlimit="10" stroke-width="5"/>
  <path d="M567.68,260.8c2.01,37.29-.73,74.45-2.64,111.65-.42,8.28.49,16.47-10.68,16.33-11.08-.14-11.58-9.58-11-16.94,3.09-39.52,6.56-79.02,10.96-118.4.54-4.83-4.55-17.01,7.75-14.86,8.6,1.5,6.76,10.67,6,17.6-.17,1.54-.25,3.08-.38,4.63h-.01Z" fill="#dfe5bc" stroke="#000" stroke-miterlimit="10" stroke-width="5"/>
  <path d="M211.3,346.54c0,9.2.48,18.44-.18,27.59-.4,5.47-2.86,10.99-9.99,9.99-5.33-.75-8.25-5.94-7.82-10.09,2.45-23.51-.58-47.59,7.34-70.55,4.75-13.75,15.98-8.98,25.34-9.23,10.85-.29,19.82,4.57,24.71,13.89,2.73,5.19-3.31,9.67-7.58,7.55-41.9-20.83-30.05,11.09-31.83,30.84h.01Z" fill="#dfe5bc" stroke="#000" stroke-miterlimit="10" stroke-width="5"/>
  <path d="M325.2,321.43h-43.29c14.18-19.34,23.25-19.54,43.29,0Z"/>
  <path d="M801.74,873.52c-41.96.11-60.56-12.06-74.17-46.44-7.57-19.13-1.16-35.42,13.49-47.29,16-12.97,35.29-9.77,53.73-4.9,1.96.52,4.21,4.75,4.12,7.18-.19,5.06-3.87,9.42-8.81,8.93-7.01-.69-13.35.25-20.25,1.37-19.49,3.16-23.55,12.26-18.55,30.91,5.81,21.64,21.54,26.18,39.67,28.52,21.39,2.76,35.81-4.93,45.14-25.93,20.51-46.14,62.56-65.09,110.39-51.97,18.35,5.03,34.95,26.72,33.85,44.22-1.66,26.45-16.78,43.82-40.29,46.42-3.03.33-6.09.87-8.98,1.81-7.29,2.36-16.81,7.13-17.99-4.85-.93-9.43,4.9-18.01,16.92-17.67,12.85.37,25.22-.41,30.77-14.74,5.8-14.99-3.78-32.61-20.56-38.64-31.82-11.42-70.61,5.56-84.06,36.95-11.07,25.83-23.41,49.93-54.43,46.12h0Z" fill="#dfe5bc" stroke="#000" stroke-miterlimit="10" stroke-width="5"/>
  <path d="M963.46,486.51c-1.49,12.46-12.94,10.48-19.46,16.35,15.98,15.1,25.4,32.7,21.5,55.74-2.89,17.04-11.5,26.07-29.3,25.72-37.63-.76-61.77-26.97-59.97-65.89.48-10.34-1.45-12.33-13-10.56-19.62,3.01-39.87,1.93-59.86,2.38-6.76.15-12.66-1.71-12.71-10-.04-6.98,5.5-9.2,10.93-9.83,16.03-1.86,32.96-6.99,48.06-3.82,35.81,7.52,70.51,2.7,105.61-2.29,2.57-.37,5.45,1.42,8.19,2.2h.01ZM950.37,545.1c-.07-18.44-13.97-31.46-37.6-35.24-21.21-3.39-29.45,7.02-21.78,27.45,5.32,14.16,17.54,21.07,29.92,27,18.94,9.07,29.54,1.76,29.46-19.21Z" fill="#dfe5bc" stroke="#000" stroke-miterlimit="10" stroke-width="5"/>
  <path d="M927.03,412.55c-30.75-.77-57.03-21.66-58.67-43.68-1.88-25.22,28.41-41.78,55.88-42.79,23.35-.86,42.97,23.28,42.92,51.28-.04,20.2-17.78,35.76-40.14,35.2h.01ZM926.04,393.28c5.72-2.58,22.43-1.4,22.38-18.31-.04-14.58-8.12-29.54-25.36-30.46-16-.85-31.31,4.64-32.31,24.72-1,19.97,13.7,22.59,35.29,24.04h0Z" fill="#dfe5bc" stroke="#000" stroke-miterlimit="10" stroke-width="5"/>
  <path d="M903.35,653.39c12.18.62,23.82,1.65,36.17-3.14,8.43-3.27,13.98-6.31,13.73-15.25-.27-9.71-8.2-13.55-15.88-13.89-14.32-.65-28.45-6.01-43.17-.98-6.27,2.14-13.71,3.17-20.31-.77-4.15-2.47-7.47-5.47-6.7-11.01.62-4.49,3.55-5.91,7.59-7.22,27.62-8.92,55.03-3.57,80.88,4.85,22.69,7.39,22.9,42.37,2.09,57.12-13.06,9.26-70.66,11.25-83.53,2.7-1.7-1.13-3.74-3.42-3.71-5.14.08-4.33,3.28-7.12,7.39-7.3,8.47-.36,16.97-.02,25.45.02h0Z" fill="#dfe5bc" stroke="#000" stroke-miterlimit="10" stroke-width="5"/>
  <path d="M864.96,267.88c.68-5.71.54-11.27,4.68-15.58,2.77-2.88,5.96-5.99,9.86-3.41,1.93,1.27,3.21,5.15,3.01,7.7-.41,5.27-3.88,10.89-2.75,15.55,2.43,10,2.35,24.98,14.92,25.88,10.81.77,10.28-13.12,13.2-21.62,4.44-12.89,7.81-26.06,20.86-34.43,21.24-13.62,39.2-6.91,44.85,17.92,1.56,6.87,4,14.46.3,20.47-5.48,8.9-1.91,29.16-17.74,24.6-12.73-3.67-1.6-18.62.3-27.71,2.21-10.57,5.41-21.84-5.55-26.26-11.83-4.77-19.93,3.93-23.87,15.69-3.44,10.26-8.68,20.09-10.75,30.59-2.04,10.37-5.34,18.04-16.78,18.36-11.25.32-21.07-1.89-26.29-14.42-4.56-10.95-5.9-22.36-8.26-33.32h.01Z" fill="#dfe5bc" stroke="#000" stroke-miterlimit="10" stroke-width="5"/>
  <path d="M931.05,733.7c-8.49-.05-17.01.25-25.47-.23-12.64-.72-23.57-.87-20.73,17.54,1.05,6.78-1.94,15.21-11.05,14.49-7.58-.6-13.9-8.48-12.09-14.64,5.39-18.35-5.96-14.07-15.76-14.01-7.77.05-20.5,5.88-21.82-4.66-1.4-11.08,12.45-9.83,19.83-9.39,15.65.94,23.36-3.81,22.49-20.52-.25-4.84,1.52-11.71,8.72-11.52,6.94.19,4.72,6.68,5.42,10.72,2.03,11.7,6.21,15.52,20.16,14.17,21.26-2.06,43.07,1.48,64.64,2.67,5.75.32,11.77,1.57,11.02,8.77-.75,7.22-7.18,11.62-13.35,9.59-10.82-3.57-21.49.6-32-2.98h-.01Z" fill="#dfe5bc" stroke="#000" stroke-miterlimit="10" stroke-width="5"/>
  <path d="M916.14,445.07c3.72.43.68.07-2.37-.27-11.08-1.24-29.79,8.57-30.95-6.57-.94-12.29,20.11-7.35,31.01-11.16,6.93-2.42,15.18-2.28,22.66-1.53,7.61.76,16.44,3.24,14.29,13.79-1.89,9.25-9.17,8.11-16.48,6.02-3.52-1.01-7.56-.21-18.15-.28h0Z" fill="#dfe5bc" stroke="#000" stroke-miterlimit="10" stroke-width="5"/>
  <path d="M950.37,545.1c.08,20.97-10.52,28.28-29.46,19.21-12.38-5.93-24.6-12.84-29.92-27-7.67-20.43.57-30.84,21.78-27.45,23.64,3.77,37.53,16.8,37.6,35.24Z"/>
  <path d="M926.04,393.28c-21.59-1.46-36.29-4.07-35.29-24.04,1-20.09,16.31-25.58,32.31-24.72,17.24.92,25.32,15.88,25.36,30.46.05,16.91-16.66,15.73-22.38,18.31h0Z"/>
</svg>