<?xml version="1.0" encoding="UTF-8"?>
<svg id="Layer_1" xmlns="http://www.w3.org/2000/svg" version="1.1" viewBox="0 0 1080 1080">
  <!-- Generator: Adobe Illustrator 29.7.1, SVG Export Plug-In . SVG Version: 2.1.1 Build 8)  -->
  <path d="M414.68,24.82c55.42-1.87,86.94,10.25,111.7,29.58,19.38,15.12,30.68,16.44,53.92,2.69,53.31-31.53,120.48-21.41,160.33,20.15,10.89,11.35,18.84,24.55,45.46,14.14,39.19-15.33,84.71-20.92,117.28,5.66,35.74,29.18,28.16,68.54,9.46,101.29-14.61,25.61-24.08,56.25-60.27,72.7-15.89,7.21-9.28,18.8-8.85,28.89,3.54,82.1,5.9,164.27,11.89,246.27,1.91,25.95,10.71,52.27,21.67,77.07,18.52,41.95.98,79.42-22.38,115.11-68.74,105.12-153.41,201.64-275.59,276.47-5.47,3.35-10.51,7.31-16.61,9.78-95.09,38.35-96.38,51.08-162.49-23.19-58.87-66.14-93.45-140.45-131.78-214-26.03-49.93-66.51-95.61-88.96-147.25-16.25-37.37-24.99-72.22,11.96-108.88,24.99-24.82,15.14-60.06,16.16-90.84,1.7-51.48-10.12-103.37,9.44-154.23,12.57-32.68-29.43-47.46-43.73-71.05-29.57-48.82-43.07-91.53,53.22-113.1,10.17-2.28,13.59-7.02,16.48-13.46,4.04-9.06,10.14-17.8,22.06-21.51,54.51-17.03,118.8-12.14,149.62-42.28l.02-.03v.02ZM377.1,586.87c.54,24.79,6.9,49.71-20.2,70.89-34.13,26.68-27.19,53.33,18.68,79.29,5.42-23.71-1.93-53.2,46.45-56.29,11.17-.72,11.1-10.59,7.47-15.9-18.09-26.45-20.15-58.28-47.75-81.47-40.8-90.02-81.61-180.03-122.41-270.05-9.19,24.6-21.24,52.11,1.82,68.95,48.54,35.45,43.23,73.52,29.16,117-7.17,22.14-7.26,51.34,30.68,60.2,23.81,5.56,37.31,18.54,56.1,27.36h0v.02ZM610.3,834.48c10.28,8.72,15.64-.72,19.33-4.34,72.66-71.22,138.75-145.72,197.12-224.2,9.87-13.29,3.54-22.47-9.83-25.16-19.97-4.03-11.55,11.36-15.09,18.33-4.61,9.03-9.83,17.18-24.1,18.78-9.85,1.1-20.47-1.77-19.15-9.2,7.49-41.85-26.39-83.87-.89-124.52,5.85-9.3-.82-46.12,42.53-22.42,8.69,4.75,12.39-6.52,12.44-12.84.32-38.21.16-76.44.16-114.67-38.26,57.52-87.23,106.43-124.02,160.29-53.67,78.58-91.8,165.37-179.91,228.63-15.34,11.02-9.96,24.17-12.25,36.94-9.53,53.14,12.59,108.28-18.29,160.15-5.95,10.01,1.34,14.09,15.7,11.98,37.92-5.56,112.29-67.72,117.51-98.72l-1.25.94v.02h0ZM757.02,347.22c22.76-31.5,34.04-69.3,64.93-84.95,55.85-28.32,57.05-68.58,67.35-108.55,4.33-16.77-5.38-30.93-25.12-40.37-19.31-9.24-36.22-3.91-54.01,3.66-14.48,6.16-24.74,14.18-32.38,25.16-7.13,10.25-18.7,15.19-34.9,12.98-18.27-2.51-19.61-13.03-21.76-23.84-1.57-7.88-4.02-15.71-7.06-23.33-10.87-27.12-38.1-36.77-72.55-36.63-36.17.15-45.41,21.18-52.04,42.35-3.72,11.91,6.04,30.47-19.88,30.93-20.17.36-25.37-17.05-31.84-28.58-17.52-31.33-42.94-53.49-90.71-57.97-42.07-3.97-62.95,10.49-53.74,40.97,4.2,13.92,17.16,31.6-5.74,38.04-24.69,6.93-37.44-9.25-40.53-26.88-2.93-16.67-14.34-24.74-35.67-19.95-22.19,4.98-35.74,16.19-28.82,35.46,3.22,8.96,9.46,17.44,11.35,26.5,2.04,9.89,7.62,22.4-10.08,27.83-17.32,5.3-24.99-5.75-33.18-14.14-6.26-6.4-11.57-13.34-17.54-19.91-14.18-15.64-24.17-4.65-30.82,4.22-19.13,25.47,27.39,84.09,66.38,83.25,162.55-3.5,324.83,2.68,487.12,8.05,18.99.64,41.94-3.79,59.84,17.05-178.62,21.7-354.5-2.35-528.21,12.1,10.64,24.37,23.49,33.91,38.56,28.61,65.2-22.88,78.88-18.11,99.44,34.54,3.72,9.53.54,24.29,19.58,24.27,18.63-.02,24.28-11.83,27.19-24.96,6.13-27.86,30.75-30.23,63.02-27.14,32.95,3.16,42.94,22.23,52.49,39.41,15.7,28.27,28.32,28.13,52.99,5.06,41.42-38.73,73.3-39.1,116.39-3.24h-.05ZM849.06,624.53c-16.59,22.93-32,42.14-44.82,62.29-55.17,86.7-133.94,160.98-217.99,231.7-65.02,54.71-127.79,44.97-170.5-23.59-45.41-72.88-90.68-146.1-143.38-215.98-23.99-31.82-22.1-71.8-61.54-103.51-4.83,22.47.32,38.24,7.94,54.35,36.65,77.38,92.93,148.02,132.6,224.54,27.21,52.53,52.29,106.96,98.88,152.67,9.6,9.42,15.55,27.41,39.62,16.36,50.77-23.31,107.34-41.8,144.15-78.46,68.69-68.46,144.74-133.32,193.55-212.1,20.29-32.72,46.27-65.45,21.51-108.31l-.02.03h0ZM554.5,507.32c12.94-28.61,33.7-56.01,67.47-43.24,45.52,17.22,46.61-5.48,58.89-24.05,11.71-17.68,22.06-36.6,38.37-51.63,17.5-16.14,15.57-30.74-2.02-41.2-20.17-12-34.2,2.32-47.41,13.53-57.26,48.65-75.91,47.03-118.98-9.73-13.84-18.25-35.22-30.3-48.56-4.81-14.05,26.81-35.31,39.96-69.56,39.33-39.8-.74-31-30.49-43.32-47.77-6.13-8.58-9.33-24.91-25.1-21.44-16.63,3.66-38.49,9.73-39.9,27.71-.7,9.03,2.09,18.4,4.77,27.36,12.3,40.89,40.69,73.9,88.3,95.9,45.61-46.88,56.3-44.29,137,40.05h.05ZM490.73,581.07c18.72-31.53,44.21-38.52,72.87-20.01,18.06,11.66,22.4,5.94,34.95-4.19,14.14-11.43,17.77-25.71,27.5-38.11,10.03-12.77,9.55-28.61-6.83-35.12-17.7-7.02-25.05,7.81-33.31,18.28-25.55,32.34-50.74,31.21-74.62-2.68-5.76-8.19-10.69-16.74-16.23-25.03-13.48-20.2-35.06-17.41-41.26-.57-10.21,27.74-39.55,23.79-67.47,28.12,12.28,14.23,10.92,37.73,33.47,34.47,45.7-6.61,52.13,18.61,70.92,44.85v-.02h0ZM454.78,721.81c-18.13,20.15-14.98,49.01-58.84,50.84-9.94.41-6.47,8.53-3.63,12.53,23.06,32.51,36.74,68.2,59.68,101.95-8.67-55.94,36.65-110.2,2.79-165.34v.02h0ZM478.54,693.83c46.02-24.98,56.42-60.59,81.67-88.11,7.74-8.45-4.06-18.09-12.35-24.37-15.48-11.76-19.49,2.87-27.1,8.34-28.48,20.51-52.17,20.17-68.9-9.13-3.84-6.73-2.97-16.55-22.19-13.08,5.15,42.48,39.78,78.26,48.86,126.35h0ZM255.74,548.09c15.39,38.62,25.83,66.09,37.49,93.26,2.79,6.51,6.24,18.33,19.65,12.63,18.97-8.08,40.98-14.99,42.75-36.46,1.54-18.71-7.53-34.49-30.21-36-26.19-1.75-42.26-12.67-69.69-33.42v-.02h0ZM784.66,553.26c2.54-16.75,14.23-34.76-7.13-56.35-6.49,23.22-8.1,39.94,7.13,56.35Z"/>
  <path d="M757.02,347.22c-43.09-35.86-74.98-35.48-116.39,3.24-24.67,23.07-37.29,23.21-52.99-5.06-9.55-17.2-19.52-36.27-52.49-39.41-32.25-3.09-56.89-.74-63.02,27.14-2.88,13.13-8.53,24.94-27.19,24.96-19.04.02-15.86-14.75-19.58-24.27-20.54-52.65-34.24-57.42-99.44-34.54-15.07,5.29-27.92-4.25-38.56-28.61,173.72-14.45,349.57,9.6,528.21-12.1-17.91-20.86-40.87-16.41-59.84-17.05-162.28-5.39-324.54-11.55-487.12-8.05-38.99.84-85.51-57.8-66.38-83.25,6.65-8.87,16.63-19.86,30.82-4.22,5.97,6.57,11.28,13.49,17.54,19.91,8.22,8.41,15.86,19.47,33.18,14.14,17.7-5.42,12.12-17.94,10.08-27.83-1.86-9.05-8.12-17.54-11.35-26.5-6.94-19.29,6.63-30.49,28.82-35.46,21.33-4.79,32.75,3.28,35.67,19.95,3.11,17.63,15.84,33.82,40.53,26.88,22.9-6.44,9.94-24.12,5.74-38.04-9.21-30.49,11.66-44.92,53.74-40.97,47.75,4.5,73.16,26.64,90.71,57.97,6.45,11.54,11.66,28.94,31.84,28.58,25.92-.46,16.16-19.04,19.88-30.93,6.63-21.16,15.89-42.19,52.04-42.35,34.45-.14,61.68,9.49,72.55,36.63,3.06,7.62,5.49,15.47,7.06,23.33,2.16,10.81,3.49,21.34,21.76,23.84,16.2,2.21,27.78-2.71,34.9-12.98,7.62-11,17.91-19.02,32.38-25.16,17.79-7.57,34.7-12.87,54.01-3.66,19.74,9.44,29.46,23.62,25.12,40.37-10.3,39.98-11.51,80.23-67.35,108.55-30.89,15.65-42.16,53.45-64.93,84.95h.05,0ZM439.38,152.65c-5.42,20.67,11.73,30.35,34.68,30.25,27.78-.14,44.73-16.19,48.61-35.24,4.02-19.64-19.09-29.76-39.24-30.55-27.37-1.06-44.5,12.5-44.07,35.55h.02ZM644.96,192.73c30.55-2.3,48.41-12.1,50.24-31.98,1.82-19.6-17.47-23.91-38.49-23.4-25.42.6-37.92,12.51-38.72,30.59-.68,15.48,11.05,24.1,26.96,24.8v-.02h.01ZM366.08,205.06c23.19-.77,35.88-9.63,35.61-27.55-.27-18.01-15.43-27.31-36.63-27.07-23.94.26-30.32,13.58-31.02,30.49-.75,18.11,11.91,23.24,32.04,24.13h0ZM860.45,190.47c-3.25-13.7-12.82-27.83-32.04-26.54-24.58,1.65-30.36,18.44-30.18,35.58.16,14.52,6.81,22.13,28.37,20.75,24.92-1.6,32.59-12.84,33.84-29.8h.02-.01Z" fill="#dfe5bc"/>
  <path d="M611.57,833.52c-5.22,31.02-79.59,93.16-117.51,98.72-14.34,2.11-21.65-1.97-15.7-11.98,30.89-51.87,8.74-107.01,18.29-160.15,2.29-12.79-3.11-25.94,12.25-36.94,88.14-63.25,126.24-150.04,179.91-228.63,36.79-53.87,85.76-102.75,124.02-160.29,0,38.23.16,76.44-.16,114.67-.05,6.32-3.74,17.58-12.44,12.84-43.34-23.71-36.67,13.11-42.53,22.42-25.53,40.65,8.37,82.67.89,124.52-1.34,7.43,9.3,10.3,19.15,9.2,14.27-1.6,19.52-9.77,24.1-18.78,3.56-6.97-4.88-22.37,15.09-18.33,13.37,2.69,19.7,11.88,9.83,25.16-58.37,78.48-124.47,152.98-197.12,224.2-3.7,3.64-9.05,13.08-19.33,4.34-.39-12.12,14.86-20.14,13.28-33.42-1.84-15.43-4.54-30.06-25.42-35.74-23.42-6.39-27.35,11.72-37.67,20.89-13.3,11.79-21.08,27.28-10.87,40.37,14.71,18.88,40.46,7.66,61.93,6.93h0ZM621.76,667.87c2.79,10.76-.39,26.37,17.34,30.06,13.73,2.87,32.5,1.12,45.16-4.03,34.93-14.23,60.84-73.98,47.45-102.6-8.92-19.07-51.51-27.52-62.09-10.42-17.38,28.1-47.02,52.87-47.84,86.99h-.02,0Z" fill="#dfe5bc"/>
  <path d="M849.06,624.53c24.74,42.86-1.25,75.58-21.51,108.31-48.81,78.77-124.88,143.66-193.55,212.1-36.79,36.67-93.36,55.17-144.15,78.46-24.08,11.05-30.02-6.93-39.62-16.36-46.59-45.71-71.64-100.14-98.88-152.67-39.67-76.54-95.93-147.18-132.6-224.54-7.62-16.1-12.78-31.88-7.94-54.35,39.44,31.7,37.54,71.68,61.54,103.51,52.72,69.88,97.97,143.09,143.38,215.98,42.73,68.56,105.48,78.29,170.5,23.59,84.06-70.72,162.83-145,217.99-231.7,12.82-20.15,28.23-39.36,44.82-62.29l.02-.03h0Z" fill="#dfe5bc"/>
  <path d="M554.5,507.32c-80.7-84.33-91.39-86.93-137-40.05-47.61-22.01-76-55.03-88.3-95.9-2.7-8.96-5.49-18.33-4.77-27.36,1.41-17.99,23.26-24.07,39.9-27.71,15.77-3.47,18.97,12.86,25.1,21.44,12.35,17.3,3.54,47.03,43.32,47.77,34.22.64,55.51-12.51,69.56-39.33,13.34-25.49,34.74-13.42,48.56,4.81,43.05,56.77,61.7,58.38,118.98,9.73,13.21-11.21,27.21-25.54,47.41-13.53,17.59,10.45,19.52,25.06,2.02,41.2-16.32,15.04-26.66,33.94-38.37,51.63-12.28,18.56-13.39,41.27-58.89,24.05-33.77-12.77-54.53,14.62-67.47,43.24h-.05Z" fill="#dfe5bc"/>
  <path d="M490.73,581.07c-18.79-26.25-25.21-51.46-70.92-44.85-22.56,3.26-21.2-20.24-33.47-34.47,27.91-4.33,57.26-.38,67.47-28.12,6.2-16.84,27.78-19.62,41.26.57,5.54,8.29,10.44,16.84,16.23,25.03,23.87,33.88,49.06,35,74.62,2.68,8.26-10.45,15.61-25.3,33.31-18.28,16.38,6.51,16.86,22.35,6.83,35.12-9.74,12.39-13.37,26.69-27.5,38.11-12.55,10.13-16.88,15.84-34.95,4.19-28.66-18.5-54.15-11.52-72.87,20.01v.02h-.01Z" fill="#dfe5bc"/>
  <path d="M377.1,586.87c-18.79-8.82-32.29-21.8-56.1-27.36-37.94-8.86-37.85-38.06-30.68-60.2,14.07-43.48,19.38-81.55-29.16-117-23.03-16.82-11.01-44.36-1.82-68.95,40.8,90.02,81.61,180.03,122.41,270.05-1.54,1.17-3.09,2.32-4.67,3.47h.02Z" fill="#dfe5bc"/>
  <path d="M454.78,721.81c33.86,55.14-11.46,109.38-2.79,165.34-22.94-33.75-36.63-69.43-59.68-101.95-2.84-4-6.33-12.12,3.63-12.53,43.87-1.84,40.71-30.69,58.84-50.84v-.02h0Z" fill="#dfe5bc"/>
  <path d="M478.54,693.83c-9.08-48.1-43.71-83.87-48.86-126.35,19.24-3.45,18.36,6.37,22.19,13.08,16.73,29.3,40.42,29.64,68.9,9.13,7.6-5.48,11.6-20.1,27.1-8.34,8.26,6.28,20.08,15.93,12.35,24.37-25.26,27.52-35.65,63.13-81.67,88.11h0Z" fill="#dfe5bc"/>
  <path d="M381.78,583.4c27.57,23.19,29.66,55,47.75,81.47,3.63,5.32,3.7,15.19-7.47,15.9-48.38,3.09-41.03,32.58-46.45,56.29-45.89-25.95-52.83-52.61-18.68-79.29,27.12-21.18,20.76-46.12,20.2-70.89,1.59-1.13,3.13-2.28,4.67-3.47h-.02Z" fill="#dfe5bc"/>
  <path d="M255.74,548.09c27.41,20.75,43.48,31.67,69.69,33.42,22.67,1.51,31.73,17.29,30.21,36-1.77,21.47-23.76,28.37-42.75,36.46-13.39,5.7-16.86-6.13-19.65-12.63-11.66-27.17-22.1-54.65-37.49-93.26v.02h0Z" fill="#dfe5bc"/>
  <path d="M784.66,553.26c-15.23-16.41-13.62-33.11-7.13-56.35,21.35,21.59,9.67,39.6,7.13,56.35Z" fill="#dfe5bc"/>
  <path d="M439.38,152.65c-.45-23.05,16.68-36.61,44.07-35.55,20.13.79,43.23,10.92,39.24,30.55-3.88,19.05-20.86,35.1-48.61,35.24-22.94.1-40.1-9.58-34.68-30.25h-.02Z"/>
  <path d="M644.96,192.73c-15.91-.69-27.62-9.3-26.96-24.8.79-18.06,13.3-29.99,38.72-30.59,21.01-.5,40.3,3.79,38.49,23.4-1.84,19.88-19.72,29.68-50.24,31.98v.02h0Z"/>
  <path d="M366.05,205.06c-20.11-.88-32.75-6.03-32.02-24.13.7-16.89,7.06-30.21,31.02-30.49,21.2-.24,36.35,9.06,36.63,27.07.27,17.92-12.39,26.78-35.63,27.53v.02h0Z"/>
  <path d="M860.45,190.47c-1.25,16.96-8.92,28.22-33.84,29.8-21.58,1.37-28.23-6.23-28.37-20.75-.18-17.15,5.61-33.94,30.18-35.58,19.2-1.29,28.8,12.84,32.04,26.54h-.02.01Z"/>
  <path d="M621.76,667.87c.82-34.11,30.45-58.89,47.84-86.99,10.58-17.1,53.17-8.65,62.09,10.42,13.39,28.61-12.53,88.37-47.45,102.6-12.64,5.15-31.41,6.9-45.16,4.03-17.72-3.69-14.55-19.29-17.34-30.06h.02,0ZM663.18,678.76c10.17-8.67,25.12-15.67,27.23-24.44,3.95-16.5,21.69-31.55,11.48-49.54-1.29-2.27-8.28-4.27-12.14-3.85-15.14,1.68-46.82,59.08-38.4,69.19,2.43,2.9,6.67,4.94,11.82,8.63h.01Z"/>
  <path d="M611.57,833.52c-21.47.72-47.2,11.95-61.93-6.93-10.21-13.1-2.43-28.6,10.87-40.37,10.33-9.17,14.25-27.28,37.67-20.89,20.88,5.68,23.58,20.31,25.42,35.74,1.59,13.29-13.66,21.3-13.28,33.42l1.25-.94v-.02h0Z"/>
  <path d="M663.18,678.76c-5.17-3.69-9.4-5.73-11.82-8.63-8.42-10.09,23.26-67.49,38.4-69.19,3.86-.43,10.85,1.58,12.14,3.85,10.21,17.97-7.53,33.04-11.48,49.54-2.11,8.77-17.04,15.78-27.23,24.44h-.01Z" fill="#dfe5bc"/>
</svg>