<?xml version="1.0" encoding="UTF-8"?>
<svg id="Layer_1" xmlns="http://www.w3.org/2000/svg" version="1.1" viewBox="0 0 1080 1080">
  <!-- Generator: Adobe Illustrator 29.7.1, SVG Export Plug-In . SVG Version: 2.1.1 Build 8)  -->
  <path d="M426.79,523.69c-.65,28.15,4,54.68,18.59,79.75,5.08,8.73,12.95,21.97.12,31.45-9.67,7.15-19.75,5.17-27-5.51-5.18-7.61-11.61-5.65-18.22-2.19-22.74,11.92-40.99-.44-50.31-17.15-13.35-23.91-27.62-12.62-30.76-.14-9.87,39.24-43.87,30.31-67.45,34.06-18.25,2.9-38.67-9-60.41-5.98-16.09,2.24-14.75-15.05-14.61-25.97.51-41.72,1.56-83.46,3.18-125.17,1.64-41.98,56.62-81.79,95.64-69.93,29.21,8.89,50.43,42.73,36.51,69.63-17,32.83,12.95,52.61,14.37,79.66.47,8.71,11.97,7.06,13.83-1.38,5.93-26.78,26.97-32.22,48.71-38.25,6.74-1.86,22.05,4.58,17.38-11.77-2.16-7.58.3-24.2-17.74-18.34-8.29,2.69-13.64-.23-14.51-9.15-.99-10.21,5.41-14,14.25-16.33,25.59-6.76,39.35,11.79,38.42,52.7h.01ZM243.9,541.02c-19.95.74-29.68,8.07-29.21,21.97,1.16,34.2,14.52,48.05,47.53,45.9,17.8-1.16,38.61-.87,36.38-29.65-2.54-32.55-11.91-39.81-54.7-38.21v-.02h0ZM216.94,513.46c12.69-18.02,32.05-7.99,47.73-14.96,19.03-8.46,22.23-21.72,16.36-39.48-6.22-18.82-16.85-18.86-34.96-13.31-36.3,11.13-38.36,34.54-29.12,67.75h-.01ZM404.17,580.99c-3.92-8.88,4.94-27.08-14.96-27.84-16.09-.62-21.94,12.75-21.87,25.67.06,11.44,6.53,23.77,19.96,23.99,10.74.17,19.81-6.49,16.87-21.79v-.02h0Z" fill="#dfe5bc" stroke="#000" stroke-linecap="round" stroke-linejoin="round" stroke-width="8"/>
  <path d="M283.69,939.13c6.62-23.34-10.03-29.11-27.08-35.67-21.24-8.16-45.22-13.86-42.8-45.46,2.93-38.13,29.09-83.16,55.09-90.62,16.48-4.73,32.88-2.67,45.67,9.51,13.32,12.66,10.96,29.68,8.77,45.78-.74,5.48-3.39,11.59-10.83,11.53-7.87-.05-8.2-6.07-9.12-11.96-1.83-11.62-4.67-27.2-19.63-21.82-17.41,6.26-30.44,21.57-34.74,40.6-2.96,13.16,1.01,24.9,15.41,31.36,48.32,21.64,60.99,44.97,51.33,92.71-5.57,27.57-39.32,52.73-62.91,46.87-31.03-7.7-47.73-41.71-37.89-74,3.23-10.59,7.03-17.14,18.52-15.48,10.53,1.5,17.2,8.23,16.69,18.89-.69,14.55-7.79,33.85,15.9,33.18,21.16-.6,17.65-20.2,17.6-35.43l.02.02h0Z" fill="#dfe5bc" stroke="#000" stroke-linecap="round" stroke-linejoin="round" stroke-width="8"/>
  <path d="M84.94,221.72c-4.09-42.97-3.77-89.18-4.3-135.42-.6-52.37,21.25-72.2,71.8-60.32,24.15,5.68,48.39.69,72.51,0,7.91-.23,16.49-6.5,19.06,5.56,1.89,8.89-4.27,16.03-12.12,19.18-23.61,9.51-48.87,13.41-73.7,10.69-20.19-2.21-42.25-11.73-42.29,20.16-.03,20.28-17.84,56.2,30.92,48.3,11.79-1.91,29.48,1.08,31.19,15.53,2.01,17-15.12,17.32-27.74,18.59-26.39,2.67-38.79,14.3-31.36,42.73,2.84,10.87.18,23.11.62,34.71.62,16.34-4.82,29.08-22.92,27.32-18.04-1.76-15.14-17.42-14.57-30.07.21-4.61,1.52-9.16,2.9-16.93v-.03h0Z" fill="#dfe5bc" stroke="#000" stroke-linecap="round" stroke-linejoin="round" stroke-width="8"/>
  <path d="M770.12,613.95c-11.28,12.87-14.64,32.58-34.69,23.53-19.45-8.77-32.29-21.15-34.09-43.93-1.8-22.81,4.12-50.87,23.83-52.22,49.64-3.42,47.91-39.78,57.9-71.29,5.24-16.52,8.67-46.59,27.83-40.6,20.38,6.38,3.69,31.15-.59,48-12.53,49.22-5.23,99.2-4.49,148.87.2,12.98,11.76,30.77-8.98,34.03-16.93,2.66-20.28-15.36-23.34-29.09-.92-4.1-1.62-8.25-3.38-17.29h0ZM770.99,574.75c-8.92-4.1,2.46-23.62-15.33-21.45-17.45,2.15-25.95,16.45-27.84,31.42-1.49,11.65,11.98,14.15,20.61,12.66,10.87-1.88,22.9-5.98,22.59-22.63h-.03Z" fill="#dfe5bc" stroke="#000" stroke-linecap="round" stroke-linejoin="round" stroke-width="8"/>
  <path d="M796.93,257.65c24.5-15.59,27.47-39.21,43.6-52.9,5.36-4.55,8.61-11.64,16.72-7.76,11.59,5.54,4.69,14.07,1.56,20.65-7.96,16.75-14.72,34.75-25.94,49.16-29.54,37.92-47.4,81.99-69.25,123.98-4.25,8.17-8.67,16.39-14.09,23.79-9.76,13.37-24,23.25-38.55,12-17.2-13.28-2.22-27.47,6.26-38.78,22.75-30.28,43.61-61.67,57.48-96.99,8.74-22.27-18.95-41.84-6.76-65.63,2.27-4.42-2.12-11.97-.39-17.02,2.69-7.82,1.94-20.95,15.39-19.01,9.85,1.41,10.44,10.6,10.74,19.21.53,14.64,1.85,29.26,3.21,49.31h.02Z" fill="#dfe5bc" stroke="#000" stroke-linecap="round" stroke-linejoin="round" stroke-width="8"/>
  <path d="M667.72,905.08c2.48,31.15-17.32,59.38-11.07,91.64,1.59,8.22-11.4,17.86-20.2,11.34-13.1-9.69-24.11-1.46-36.02-1.13-26.18.74-49.41-4.97-56.4-34.3-4.91-20.65,25.92-57.75,50.72-56.58,22.11,1.05,24.95-4.85,25.79-24.84.89-21.33-7.79-56.98,21.16-58.53,29.84-1.59,17.24,35.99,25.7,55.28,2.12,4.82.32,11.34.32,17.09v.02h0ZM621.21,958.08c-.38-8.82-2.48-15.42-11.76-15.15-15.47.45-27.33,7.09-30.55,23.05-1.95,9.75,6.89,10.71,13.7,11.23,14.9,1.17,23.37-7.43,28.6-19.13h.02-.01Z" fill="#dfe5bc" stroke="#000" stroke-linecap="round" stroke-linejoin="round" stroke-width="8"/>
  <path d="M574.03,62.54c23.67,24.62,6.74,53.14,12.27,78.67,3.27,15.15,2.69,20.61,21.27,19.21,48.21-3.63,85.2,59.34,62.31,102.8-4.16,7.9-9.07,13.68-18.7,11.92-8.61-1.58-10.17-8.43-10.23-15.78-.11-12.77.95-25.64-.32-38.3-1.5-15.2-4.87-32.44-23.76-33.09-21.01-.72-26.85,15.56-25.67,33.55,1.17,17.51,2.21,34.57-6.4,50.76-3.65,6.86-8.67,11.5-16.48,9.49-5.92-1.52-9.93-6.77-9.73-13.02,2.15-65.44-3.84-131.17,6.91-196.28.47-2.78,4.18-5.02,8.52-9.94h0Z" fill="#dfe5bc" stroke="#000" stroke-linecap="round" stroke-linejoin="round" stroke-width="8"/>
  <path d="M513.46,516.26c7.28-4.36,14.81-9.93,23.17-13.58,8.85-3.86,16.82-21.34,24.84-11.89,10.74,12.66-4.82,22.92-14.52,29.59-19.09,13.1-18.02,24.57-2.04,39.41,14.18,13.16,30.71,25.76,28.28,49.07-.59,5.54,2.15,12.26-4.1,15.56-7.36,3.89-13.08-.24-18.11-5.75-10.32-11.32-16.66-24.81-23.22-38.48-3.09-6.46-9.34-15.71-18.08-12.71-9.12,3.14-7.25,13.44-6.23,21.4.74,5.66,3.96,11.14,4.07,16.73.21,10.41.26,23.47-14.33,22.74-10.24-.53-20.17-7.01-20.28-20.08-.44-55.21-3.21-110.52,6.43-165.34,1.56-8.88,5.78-16.33,15.05-16.3,13.05.05,6.92,11.2,9.1,18.07,7.36,23.16-10.65,48.32,9.96,71.58h.01v-.02Z" fill="#dfe5bc" stroke="#000" stroke-linecap="round" stroke-linejoin="round" stroke-width="8"/>
  <path d="M999.37,1013.6c-1.22,21.22-10.78,40.04-32.47,43.16-20.31,2.93-41.12-5.35-56.14-20.89-5.6-5.8-4.76-15.59,2.09-22.21,7.63-7.37,16.21-8.05,25.29-2.22,8.29,5.32,15.8,16.21,27.02,6.23,2.75-2.43,4.31-8.86,3.23-12.5-3.98-13.26-14.48-15.21-27.27-15.83-25.68-1.25-34.63-18.11-36.96-41.96-2.91-29.81,15.05-48.5,35.28-62.93,14.66-10.47,31-1.16,42.58,12.72,7.79,9.36,15.98,20.68,6.22,30.74-10.6,10.92-14.6-5.23-20.82-10-6.77-5.2-11.85-4.39-18.5-.2-11.56,7.3-13.13,18.01-12.72,30.22.33,9.96,6.5,10.26,14.03,10.57,34.71,1.43,47.05,23.35,49.16,55.09h-.02Z" fill="#dfe5bc" stroke="#000" stroke-linecap="round" stroke-linejoin="round" stroke-width="8"/>
  <path d="M894.79,962.95c.39,31.58-37.25,64.04-74.07,63.88-38.19-.18-66.37-23.73-67.12-56.13-.72-31.27,36.14-82.87,60.03-84.02,36.42-1.74,80.73,39.87,81.16,76.27h0ZM827.7,999.58c19-.78,42.14-23.7,41.14-38.72-1.17-17.3-33.64-44.05-52.97-42.32-27.93,2.51-37.92,26.16-38.18,46.71-.39,31.84,31.95,26.52,50.03,34.33h-.02,0Z" fill="#dfe5bc" stroke="#000" stroke-linecap="round" stroke-linejoin="round" stroke-width="8"/>
  <path d="M325.32,215.38c-.36-42.77,28.12-77.98,63.78-81.72,24.03-2.52,34.09,10.54,39.32,30.1,5.87,21.94-8.2,31.76-25.91,38.19-6.49,2.36-15.24,1.64-19.66,5.81-8.47,7.99-26.85-6.38-28.04,11.74-.71,10.74,11.17,16.99,18.53,24.12,10.72,10.38,22.93,10.87,34.33,1.2,10.45-8.89,21.55-18.52,30.29-.44,7.9,16.34-5.87,21.48-18.16,26.91-48.5,21.43-94.06-5.33-94.48-55.92h-.01.01ZM387.29,182.58c7.01-2.64,20.26,6.68,20.67-8.25.21-7.69-7.03-14.75-17.24-12.45-9.54,2.15-24.11.11-23.37,14.46.57,11.38,12.53,5.36,19.94,6.23h0Z" fill="#dfe5bc" stroke="#000" stroke-linecap="round" stroke-linejoin="round" stroke-width="8"/>
  <path d="M655.09,630.04c-27.87-.92-68.62-36.08-71.29-61.47-3.26-31.06,22.86-69.67,53.93-76.27,20.91-4.45,40.9.6,46,24.81,4.55,21.51-7.39,28.94-29.03,32.85-12.9,2.34-37.11-15.11-39.2,10.27-2.12,25.88,22.87,32.68,43.04,36.56,12.35,2.37,24.08,1.83,22.87,17.75-1.22,16.04-14.6,15.27-26.34,15.51l.02-.02h0Z" fill="#dfe5bc" stroke="#000" stroke-linecap="round" stroke-linejoin="round" stroke-width="8"/>
  <path d="M509.21,170.31c-14.25-1.34-25.83.57-29.27,17.09-4.48,21.55,13.01,13.01,21.93,16.45,15.83,6.1,29.12,16.4,30.8,33.72,1.62,16.79,2.63,35.83-16.28,45.84-14.64,7.75-29.69,12.57-45.91,2.19-9.66-6.17-16.99-12.48-12.98-24.93,4.07-12.65,13.77-11.11,22.56-6.95,11.08,5.26,22.56,6.64,24.81-6.97,2.15-12.9-9.76-13.61-21-15.89-33.15-6.76-42.04-27.14-30.34-63.23,4.51-13.89,46.98-30.8,62.93-25.25,10.75,3.74,14.22,12.47,12.53,22.02-2.31,12.95-10.45,13.86-19.78,5.93v-.02h0Z" fill="#dfe5bc" stroke="#000" stroke-linecap="round" stroke-linejoin="round" stroke-width="8"/>
  <path d="M718.2,62.85c13.44,29.62,16.1,61.23,13.59,91-3.2,38.06-3.81,75.62.09,113.32,1.37,13.14.68,24.48-13.47,27.09-16.06,2.97-17.12-12.08-21.19-22.39-10.83-27.41-1.25-55.28.2-82.56,1.83-34.51,7.99-68.88,7.81-103.69-.05-8.23,1.82-15.87,12.98-22.77h-.01Z" fill="#dfe5bc" stroke="#000" stroke-linecap="round" stroke-linejoin="round" stroke-width="8"/>
  <path d="M364.17,953.68c3.18-13.41,0-24.62-18.55-27.71-11.65-1.94-17.71-15.06-7.87-18.91,22.45-8.8,22.83-24.86,24.05-43.54.59-8.92,4.94-19.69,16.81-18.07,10.5,1.44,8.08,10.87,8.56,19.22,1.68,29.66,18.85,57.4,11.08,88.42-3.8,15.2,8.88,41.12-16.51,42.31-26.12,1.23-17.71-23.19-17.59-41.72h.02Z" fill="#dfe5bc" stroke="#000" stroke-linecap="round" stroke-linejoin="round" stroke-width="8"/>
  <path d="M449.12,902.27c14.93,13.4,8.88,31.79,14.99,46.38,2.54,6.07,1.67,14.78,10.33,16.64,10.48,2.25,14.42-6.19,17.83-13.28,3.98-8.29,7.22-17.17,9.15-26.15,1.92-8.98.45-20.94,13.44-20.17,11.97.71,19.73,12.42,18.26,22.09-3.44,22.69-8.31,47.08-30.29,59.76-13.68,7.88-30.35,14.03-46.12,2.33-15.78-11.71-27.27-26.27-20.91-47.26,3.89-12.83-2.79-28.81,13.32-40.34h0Z" fill="#dfe5bc" stroke="#000" stroke-linecap="round" stroke-linejoin="round" stroke-width="8"/>
  <path d="M206.73,200.54c0-16.9-.29-28.48.12-40.04.21-5.89,4.75-15.36,8.29-12.95,23.8,16.16,46.02-2.19,68.8-1.16,7.72.35,12.23,6.47,13.16,13.8.86,6.77-4.81,12.59-9.84,12.39-58.81-2.34-49.74,36.05-44.2,72.54.69,4.58,1.1,9.22,1.43,13.86.54,7.78-1.65,13.77-10.59,14.73-8.53.92-12.99-3.23-13.85-11.55-2.33-22.68-20.95-42.26-13.31-61.62l-.02-.02v.02Z" fill="#dfe5bc" stroke="#000" stroke-linecap="round" stroke-linejoin="round" stroke-width="8"/>
  <path d="M706.14,949.13c.05-11.34-6.94-32.19,10.38-28.73,17.05,3.41,15.35,27.84,17.11,44.55.9,8.52,4.45,22.72-8.88,21.7-23.29-1.8-18.85-21.48-18.61-37.52Z" fill="#dfe5bc" stroke="#000" stroke-linecap="round" stroke-linejoin="round" stroke-width="8"/>
</svg>