<?xml version="1.0" encoding="UTF-8"?>
<svg id="Layer_1" xmlns="http://www.w3.org/2000/svg" version="1.1" viewBox="0 0 1080 1080">
  <!-- Generator: Adobe Illustrator 29.7.1, SVG Export Plug-In . SVG Version: 2.1.1 Build 8)  -->
  <path d="M535.27,1021.3c-11.18-1.47-28.91-5.92-43.23-23.29-40.2-48.73-56.42-51.8-108.26-20.96-26.99,16.04-50.36,9.96-73-6.93-21.22-15.82-45.54-31.28-23.71-63.41,4.58-6.75.66-11.99-2.57-16.87-41.08-61.68-51.52-133.76-68.91-203.41-6.06-24.31-10.56-44.86-44.67-29.68-26.02,11.59-55.8,4.26-82.28-.18-38.37-6.43-51.18-35.88-42.37-72.98,5.14-21.68,9.78-39.96-12.05-57.89-9.66-7.93-16.91-37.41-11.91-41.76,50.94-44.43-18.33-115.65,30.82-151.55,34.96-25.52,38.53-48.21,29.31-83.35-4.4-16.81-4.24-39.63,8.85-48.35,39.41-26.2,64.69-60.4,83.97-103.28,9.86-21.93,34.66-34.92,63.21-20.62,10.9,5.46,17.67-.76,26.54-10.04,34.27-35.78,85.01-38.23,107.12,2.03,37.23,67.78,106.27,88.22,163.12,126.73,80.09,54.23,178.94,67.62,261.28,118.1,57,34.94,121.76,53.51,183.05,79.37,12.99,5.48,32.53,6.99,24.58,30.94-40.86,123.18,18.79,232.67,47.26,346.51,11.24,45.02,10.28,91.16-1.67,135.65-12.65,47.06-42.2,55.5-81.28,26.6-40.2-29.72-55.8-23.51-59.37,27.67-3.13,45-29.64,66.04-68.31,77.36-41.52,12.15-62.52-14.2-81.4-44.57-37.51-60.46-92.56-66.06-135.09-12.45-21.1,26.58-47.24,39.19-89.09,40.6h.06ZM964.35,438.16c-87.56,32.49-168.72,65.42-255.58,80.43-53.17,9.2-104.23,26.4-152.74,51.36-21.6,11.1-46.3,23.73-69.29,23.21-73.53-1.71-143.28,20.36-215.12,27.91-23.81,2.51-30.32,10.34-22.75,36.42,14.52,50.06,40.94,96.03,47.65,148.84,3.43,27.05,6.99,69.47,22.47,75.88,21.97,9.08,54.99-8.81,83.35-14.92,18.25-3.92,36.8-6.59,54.89-11.12,106.23-26.66,212.81-51.2,322.46-59.65,64.61-4.98,129.51,2.49,194.28-11.18,34.27-7.23,34.45-17.07,23.57-44.51-19.94-50.26-43.03-99.55-46.1-155.45-2.63-47.93.44-95.03,12.95-147.23l-.04.02h0ZM952.62,413.38c-189.14-66.56-361.45-141.85-526.15-233.73-35.04-19.54-58.47-13.45-79.91,15.16-20.36,27.17-39.35,55.42-58.09,83.75-57.14,86.5-73.79,178.86-42.1,279.31,5.92,18.79,11.79,24.84,31.5,21.18,56.24-10.42,112.96-18.23,169.22-28.59,17.95-3.31,38.49,3.05,53.71-11.26,31.72-29.84,72.88-39.8,112.42-50.46,108.42-29.21,217.99-54.03,339.38-75.37l.02.02h0ZM323.87,932.39c19.7,10.39,34.23,12.75,43.59,7.09,55.3-33.43,97.98-27.19,142.24,20.8,33.49,36.32,61.2,35.58,92.2-2.49,52.48-64.41,134.67-59.47,177.51,11.89,13.29,22.15,24.25,46.08,55.14,39.94,29.54-5.88,40.04-29.25,46.28-56.8,16.38-72.2,39.96-82.32,102.12-45.08,12.17,7.29,23.85,18.73,36.4,4.4,21.5-24.54,19.5-54.63,14.56-84.13-3.63-21.7-20.62-14.76-33.33-12.03-66.72,14.34-134.65,16.24-202.33,20.66-33.89,2.21-68.35,1.81-101.56,7.93-123.62,22.83-245.46,53.77-372.82,87.82h0ZM129.71,345.4c-27.19-11.34-48.57,4.94-55.4,21.79-6.34,15.66,5.32,38.67,24.33,50.66,9.18,5.78,17.95,12.27,27.37,17.61,12.93,7.33,17.71,18.45,11.79,31.26-6.77,14.66-17.87,6.16-27.73,2.29-15.02-5.9-33.39-10.86-42.47,4.5-9.66,16.32.52,32.95,14.86,44.41,9.54,7.63,14.16,20.76,27.95,23.71,9.5,2.03,18.57,7.27,18.47,17.97-.14,14.46-12.25,15.22-23.29,16.95-25.96,4.04-21.12,25.12-10.34,33.41,23.05,17.71,52.06,16.24,79.25,7.19,24.68-8.21,32.13-27.49,28.33-51.96-4.26-27.61-10.3-55.01-12.87-82.78-13.29-143.88,63.87-245.36,160.85-336.37,11.91-11.18,34.39-13.27,20.48-36.78-13.07-22.11-30.16-42.83-58.11-40.08-25.94,2.55-21.46,27.19-20.96,44.63.34,11.18,14.26,23.89-.62,32.87-13.13,7.91-24.29-4.04-32.09-12.63-16.77-18.53-33.61-37.27-57.46-13.35-18.83,18.87-16.73,40.62,2.17,60.76,10.12,10.78,15.74,26.02,5.5,38.09-12.85,15.14-24.58,1.67-35.72-6.53-14.26-10.5-28.67-9.92-42.89.66-14.44,10.74-16.77,23.63-11.75,40.98,5.74,19.84,14.26,37.39,26.93,53.57,6.87,8.77,24.64,13.79,15.42,29.64-7.67,13.17-21.48,9.18-32.05,7.55h.04v-.02Z"/>
  <path d="M964.35,438.16c-12.49,52.2-15.58,99.31-12.95,147.23,3.07,55.9,26.16,105.19,46.1,155.45,10.88,27.45,10.7,37.29-23.57,44.51-64.77,13.67-129.67,6.2-194.28,11.18-109.65,8.45-216.2,32.99-322.46,59.65-18.09,4.54-36.64,7.21-54.89,11.12-28.35,6.08-61.38,23.99-83.35,14.92-15.5-6.41-19.05-48.85-22.47-75.88-6.69-52.81-33.11-98.81-47.65-148.84-7.57-26.08-1.06-33.91,22.75-36.42,71.86-7.55,141.59-29.64,215.12-27.91,23.01.54,47.69-12.09,69.29-23.21,48.51-24.96,99.57-42.16,152.74-51.36,86.88-15.04,168.02-47.97,255.58-80.43l.04-.02h0ZM464.98,734.06c-12.05,1.12-31.98,2.39-35.94,25.5-3.11,18.11-3.67,43.09,14.86,50.24,21.38,8.25,46.86,18.81,70.82,4.56,18.09-10.76,32.87-24.86,24.13-49.23-10.7-29.88-7.09-58.63,8.77-85.05,15.84-26.36,1.37-33.51-20.62-35.58-30.88-2.89-61.98-3.37-92.86-6.41-31.74-3.13-51.4,1.77-44.13,41.86,5.3,29.23,9.66,60.6-35.5,68.27-17.39,2.95-24.68,23.13-19.46,42.18,5.46,19.94,23.57,24.92,40.22,25.92,19.28,1.16,32.69-12.97,36.92-30.22,5.46-22.17,11.57-46.38,7.97-68.15-8.31-50.1,21.42-54.53,55.96-49.77,11.87,1.63,43.93-7.27,34.45,21.28-5.52,16.64,5.34,57.93-45.62,44.57l.02.02h.01ZM787.9,581.66c11.18,27.39,23.11,51.62-9.24,73.43-11.75,7.91-8.77,29.21.3,43.23,9.78,15.12,25.2,16.4,41.4,12.79,32.87-7.33,40.96-33.49,17.79-66.8-19.28-27.73-11.63-70.86-33.45-88.3-30.72-24.58-52.02,27.91-83.53,29.39-40.56,1.93-33.77,20.44-16.77,43.69,18.35,25.08,33.91,49.43-4.32,71.92-12.31,7.23-13.35,20.9-5.94,32.99,8.21,13.41,20.66,10.2,33.11,6.49,34.68-10.36,36.98-32.49,23.41-61.36-20.46-43.53-25.68-81.96,37.23-97.44v-.02h.01ZM671.92,711.87c-1.93-25.06-23.03-38.81-45.4-39.03-29.21-.28-40.54,25.32-42,51.26-1.49,26.24,15.34,39.59,40.56,39.11,30.1-.56,41.08-21.87,46.86-51.36l-.02.02h0ZM900.42,573.29c14.01-2.95,36.84,1.65,35.8-27.09-.9-24.8-15.1-43.99-37.93-45.22-24.23-1.31-28.13,25.36-32,43.15-4.72,21.58,10.9,29.68,34.13,29.15h0ZM304.57,656.73c-4.86,4.04-15.32,4.52-16.16,15.98-1.08,14.78,4.3,28.19,19.15,31.78,12.91,3.13,18.53-7.67,19.26-19.4.84-13.69-5.82-22.89-22.27-28.37h.02Z" fill="#dfe5bc"/>
  <path d="M952.62,413.38c-121.39,21.34-230.96,46.14-339.38,75.37-39.55,10.66-80.69,20.6-112.42,50.46-15.22,14.32-35.76,7.95-53.71,11.26-56.26,10.36-112.98,18.17-169.22,28.59-19.74,3.65-25.58-2.37-31.5-21.18-31.68-100.45-15.04-192.81,42.1-279.31,18.73-28.35,37.73-56.58,58.09-83.75,21.44-28.61,44.88-34.7,79.91-15.16,164.68,91.86,337,167.17,526.15,233.73l-.02-.02h0ZM387.58,289.64c-15.82-.92-26.48,5.54-31.58,17.85-6.1,14.74-1.16,29.31,12.37,36.28,39.9,20.52,36.18,41.82,3.9,65.9-7.91,5.9-11.93,14.68-11.46,24.4.56,12.21.14,25.82,14.38,31.58,11.26,4.56,22.87,2.07,29.03-8.11,36.32-59.87,73.02-56.9,113.5-3.67,4.96,6.51,18.21,22.35,30.72,7.81,8.93-10.38,4.56-23.39-3.35-34.33-4.52-6.24-7.69-13.67-12.97-19.11-22.57-23.29-39.17-45.9-1.65-70.86,3.45-2.29,4.14-11.32,3.33-16.83-1.1-7.55-9.38-10.32-14.2-6.59-45.46,35.2-80.94,10.22-116.47-17.89-4.64-3.67-11.34-4.76-15.54-6.43h0Z" fill="#dfe5bc"/>
  <path d="M323.87,932.39c127.36-34.05,249.19-64.99,372.82-87.82,33.21-6.12,67.64-5.72,101.56-7.93,67.7-4.42,135.61-6.32,202.33-20.66,12.69-2.73,29.68-9.68,33.33,12.03,4.96,29.5,6.95,59.59-14.56,84.13-12.57,14.34-24.23,2.89-36.4-4.4-62.16-37.27-85.71-27.13-102.12,45.08-6.26,27.55-16.77,50.92-46.28,56.8-30.88,6.14-41.82-17.77-55.14-39.94-42.85-71.36-125.03-76.3-177.51-11.89-31,38.05-58.71,38.81-92.2,2.49-44.25-47.99-86.92-54.23-142.24-20.8-9.36,5.66-23.89,3.3-43.59-7.09h0Z" fill="#dfe5bc"/>
  <path d="M129.71,345.4c10.58,1.65,24.4,5.62,32.05-7.55,9.22-15.84-8.55-20.86-15.42-29.64-12.67-16.18-21.16-33.73-26.93-53.57-5.02-17.35-2.69-30.24,11.75-40.98,14.22-10.58,28.61-11.16,42.89-.66,11.14,8.19,22.87,21.64,35.72,6.53,10.24-12.07,4.62-27.31-5.5-38.09-18.89-20.14-21-41.86-2.17-60.76,23.85-23.91,40.7-5.18,57.46,13.35,7.77,8.59,18.93,20.54,32.09,12.63,14.88-8.98.94-21.68.62-32.87-.52-17.45-4.98-42.08,20.96-44.63,27.95-2.75,45.04,17.99,58.11,40.08,13.91,23.51-8.57,25.6-20.48,36.78-96.98,91.02-174.14,192.49-160.85,336.37,2.57,27.75,8.61,55.18,12.87,82.78,3.77,24.48-3.65,43.73-28.33,51.96-27.19,9.06-56.2,10.52-79.25-7.19-10.8-8.29-15.64-29.39,10.34-33.41,11.02-1.71,23.15-2.47,23.29-16.95.1-10.68-8.98-15.94-18.47-17.97-13.79-2.95-18.41-16.08-27.95-23.71-14.32-11.46-24.52-28.09-14.86-44.41,9.1-15.36,27.45-10.4,42.47-4.5,9.86,3.88,20.96,12.35,27.73-2.29,5.92-12.81,1.14-23.93-11.79-31.26-9.42-5.34-18.19-11.83-27.37-17.61-19.01-11.99-30.66-35-24.33-50.66,6.83-16.87,28.23-33.15,55.4-21.79h-.04v.02Z" fill="#dfe5bc"/>
  <path d="M464.98,734.06c50.96,13.35,40.1-27.93,45.62-44.57,9.48-28.55-22.59-19.66-34.45-21.28-34.55-4.76-64.27-.32-55.96,49.77,3.61,21.76-2.51,45.98-7.97,68.15-4.24,17.25-17.65,31.38-36.92,30.22-16.64-1-34.76-5.98-40.22-25.92-5.22-19.07,2.07-39.23,19.46-42.18,45.16-7.67,40.8-39.05,35.5-68.27-7.29-40.1,12.37-45,44.13-41.86,30.86,3.03,61.98,3.51,92.86,6.41,21.99,2.07,36.44,9.2,20.62,35.58-15.86,26.42-19.5,55.18-8.77,85.05,8.73,24.38-6.02,38.47-24.13,49.23-23.95,14.26-49.41,3.69-70.82-4.56-18.53-7.17-17.95-32.13-14.86-50.24,3.96-23.11,23.89-24.38,35.94-25.5l-.02-.02h0Z"/>
  <path d="M787.9,581.66c-62.93,15.48-57.71,53.91-37.23,97.44,13.57,28.87,11.26,51-23.41,61.36-12.45,3.71-24.9,6.93-33.11-6.49-7.41-12.09-6.34-25.76,5.94-32.99,38.21-22.49,22.67-46.82,4.32-71.92-17.01-23.25-23.77-41.76,16.77-43.69,31.5-1.49,52.79-53.97,83.53-29.39,21.85,17.47,14.18,60.6,33.45,88.3,23.17,33.31,15.08,59.47-17.79,66.8-16.2,3.61-31.62,2.31-41.4-12.79-9.08-14.01-12.03-35.32-.3-43.23,32.35-21.81,20.42-46.04,9.24-73.43v.02h-.01Z"/>
  <path d="M671.92,711.87c-5.76,29.48-16.75,50.78-46.86,51.36-25.24.48-42.04-12.87-40.56-39.11,1.47-25.94,12.79-51.52,42-51.26,22.39.2,43.49,13.97,45.4,39.03l.02-.02h0Z"/>
  <path d="M900.42,573.29c-23.23.52-38.85-7.57-34.13-29.15,3.9-17.79,7.77-44.47,32-43.15,22.83,1.24,37.02,20.44,37.93,45.22,1.04,28.73-21.78,24.13-35.8,27.09h0Z"/>
  <path d="M304.57,656.73c16.44,5.48,23.09,14.68,22.27,28.37-.72,11.73-6.34,22.53-19.26,19.4-14.86-3.59-20.24-17.01-19.15-31.78.84-11.44,11.3-11.95,16.16-15.98h-.02Z"/>
  <path d="M387.58,289.64c4.2,1.67,10.88,2.75,15.54,6.43,35.52,28.11,71,53.09,116.47,17.89,4.82-3.73,13.09-.96,14.2,6.59.8,5.5.12,14.54-3.33,16.83-37.53,24.98-20.92,47.59,1.65,70.86,5.28,5.44,8.45,12.87,12.97,19.11,7.91,10.92,12.29,23.93,3.35,34.33-12.49,14.54-25.76-1.31-30.72-7.81-40.48-53.23-77.18-56.18-113.5,3.67-6.16,10.18-17.77,12.65-29.03,8.11-14.26-5.74-13.81-19.38-14.38-31.58-.46-9.72,3.55-18.49,11.46-24.4,32.29-24.09,36-45.38-3.9-65.9-13.51-6.97-18.47-21.54-12.37-36.28,5.1-12.31,15.76-18.77,31.58-17.85h.01Z"/>
</svg>