<?xml version="1.0" encoding="UTF-8"?>
<svg id="Layer_1" xmlns="http://www.w3.org/2000/svg" version="1.1" viewBox="0 0 1080 1080">
  <!-- Generator: Adobe Illustrator 29.7.1, SVG Export Plug-In . SVG Version: 2.1.1 Build 8)  -->
  <path d="M521.32,1044.36c-25.83,6.19-49.21-9.56-73.17-26.57-73.98-52.55-98.19-133.55-130.27-212.63-40.48-99.79-50.85-205.22-76.61-307.39-15.22-60.36-37.92-120.21-51-182.34-4.11-19.55-24.27-27.29-40.09-36.7-51.11-30.42-62.06-83.89-29.61-147.53,19-37.26,52.68-43.5,109.13-20.01,13.41,5.58,25.06,16.86,39.52-1.47,33.94-43.06,82.86-56.38,129.2-31.49,23.16,12.44,32.3,7.37,51.15-8.22,63.42-52.44,102.46-47.61,156.04,17.6,17.98,21.87,22.9,24.8,41.88-.04,28.17-36.85,85.16-39.63,116.85-4.92,21.37,23.38,35.82,21.45,58.67,7.68,56.4-33.96,97.38-32.61,126.16,2.12,36.76,44.37,39.98,110.35-1.2,153.81-28.95,30.55-44.7,59.37-53.36,102.37-12.05,59.72-46.36,114.73-69.06,172.57-60.47,154.09-124.7,306.52-191.07,458.16-22.9,52.31-59.09,63.99-113.15,65.06v-.06ZM285.95,369.59c-16.16,33.37,13.54,56.88,18.26,86.36,17.52,109.02,37.26,218.06,71.97,322.85,22.61,68.23,43.78,139.96,108.78,185.34,31.34,21.89,79.82,26.81,90.38,1.55,28.12-67.29,62.37-131.28,94.76-196.38,34.71-69.81,61.76-143.4,93.73-214.6,32.98-73.46,67.77-146.13,101.95-219.04,14.11-30.09,3.56-44.59-27.45-36.24-48.05,12.95-95.17,11.59-144.29,8.16-29.41-2.08-59.77-5.51-89.64-6.34-91.22-2.58-179.92,22.83-270.45,18.63-38.49-1.79-60.49,5.38-48.02,49.75l.02-.04ZM533.24,245.02c37.05,11.57,60.18-1.71,61.41-47.06,1.16-43.34-36.15-108.54-64.32-110.88-27.82-2.32-62.63,37.66-63.2,72.54-.9,54.83,21.13,83.3,66.11,85.4h0ZM937.08,174.14c1.27-37.35-32.02-73.94-60.34-63.31-35.45,13.3-65.26,35.65-75.54,74.95-18.68,71.36-18.2,71.49,56.88,68.36,46.95-1.95,77.39-32.78,79.01-80h-.02.01ZM755.87,259.04c-15.42-23.4-11.15-41.57-7.44-59.22,7.28-34.6,12.25-72.76-27.16-86.4-37.05-12.84-48.33,30.24-64.38,51.24-34.31,44.92-10.41,86.38,46.32,88.88,13.27.59,26.48,2.71,52.66,5.53v-.02h0ZM413.86,202.14c0-13.52,1.47-23.92-.26-33.79-6.06-34.62-34.31-42.16-62.46-50.17-27.71-7.89-37,15.55-45.88,30.75-16.36,28.08,22.98,41.44,23.4,66.5.83,49.69,38.6,36.65,64.69,34.92,36.3-2.41,13.25-34.16,20.49-48.22h.02ZM197.79,153.85c-25.35.48-40.7,11.46-37.72,33.85,3.67,27.77,9.93,56.27,36.24,73.81,7.59-28.82,58.08-13.58,54.87-54.3-2.82-35.6-25.17-48.66-53.36-53.36h-.03Z"/>
  <path d="M285.95,369.59c-12.47-44.37,9.53-51.55,48.02-49.75,90.54,4.2,179.22-21.21,270.45-18.63,29.87.85,60.23,4.29,89.64,6.34,49.12,3.46,96.25,4.81,144.29-8.16,31.01-8.35,41.55,6.12,27.45,36.24-34.2,72.91-68.97,145.58-101.95,219.04-31.97,71.23-59.02,144.8-93.73,214.6-32.37,65.13-66.63,129.11-94.76,196.38-10.56,25.26-59.05,20.34-90.38-1.55-64.99-45.38-86.16-117.11-108.78-185.34-34.71-104.77-54.45-213.81-71.97-322.85-4.75-29.48-34.42-52.99-18.26-86.36l-.02.04h0ZM496.37,434.82c21.13,0,39.47-.28,57.82.07,20.27.39,40.59.94,60.82,2.23,17.06,1.09,40.92,5.95,40.52,21.69-.55,21.52-7.72,47.78-35.43,55.81-16.1,4.68-33.2,6.36-48.72,12.36-23.44,9.05-40.22,27.71-41.57,52.4-1.55,28.45,49.84,54.45,98.52,51.02,37.68-2.67,58.11-31.34,50.87-61.82-8.64-36.39,5.64-63.16,23.01-85.42,29.96-38.47,5.86-56.36-21.02-71.56-18.39-10.39-41.64-15.2-63.07-16.58-42.25-2.69-83.85-7.48-125.29-16.36-17.39-3.72-37.33-8.86-51.94,9.14-16.73,20.6-1.82,36.5,5.75,55.39,12.77,31.93,40.94,69.63-23.64,83.63-27.84,6.04-45.38,28.56-40.13,61.58,4.02,25.28,22.55,33.85,43.48,33.83,29.79-.04,53.67-8.11,64.51-43.65,14.32-46.95,9.25-93.01,5.49-143.81l.02.04h0ZM573.33,773.2c4.33-35.34-28.15-43.21-61.3-47.81-21.37-2.95-68.08,48.66-65.04,73.61,4.18,34.2,23.71,54.48,61.34,52.81,38.75-1.71,65.96-29.59,64.97-78.62h.03Z" fill="#dfe5bc"/>
  <path d="M533.24,245.02c-44.95-2.04-66.98-30.51-66.11-85.4.57-34.88,35.38-74.86,63.2-72.54,28.17,2.34,65.48,67.55,64.32,110.88-1.2,45.36-24.34,58.63-61.41,47.06h0Z" fill="#dfe5bc"/>
  <path d="M937.08,174.14c-1.6,47.22-32.06,78.05-79.01,80-75.08,3.13-75.54,3-56.88-68.36,10.28-39.3,40.11-61.63,75.54-74.95,28.32-10.63,61.61,25.96,60.34,63.31h.02-.01Z" fill="#dfe5bc"/>
  <path d="M755.87,259.04c-26.18-2.8-39.39-4.94-52.66-5.53-56.73-2.49-80.63-43.96-46.32-88.88,16.05-20.99,27.34-64.08,64.38-51.24,39.41,13.65,34.44,51.83,27.16,86.4-3.72,17.65-7.98,35.82,7.44,59.22v.02h0Z" fill="#dfe5bc"/>
  <path d="M413.86,202.14c-7.24,14.08,15.81,45.82-20.49,48.22-26.07,1.73-63.86,14.76-64.69-34.92-.42-25.08-39.78-38.45-23.4-66.5,8.86-15.2,18.17-38.64,45.88-30.75,28.15,8,56.4,15.55,62.46,50.17,1.73,9.86.26,20.29.26,33.79h-.02Z" fill="#dfe5bc"/>
  <path d="M197.79,153.85c28.19,4.7,50.54,17.78,53.36,53.36,3.21,40.72-47.28,25.48-54.87,54.3-26.31-17.56-32.56-46.06-36.24-73.81-2.95-22.39,12.38-33.37,37.72-33.85h.03Z" fill="#dfe5bc"/>
  <path d="M496.37,434.82c3.74,50.8,8.84,96.84-5.49,143.81-10.85,35.54-34.75,43.61-64.51,43.65-20.93.02-39.45-8.55-43.48-33.83-5.25-33.04,12.29-55.55,40.13-61.58,64.58-14.02,36.41-51.7,23.64-83.63-7.54-18.89-22.46-34.82-5.75-55.39,14.61-18,34.55-12.86,51.94-9.14,41.42,8.88,83.04,13.67,125.29,16.36,21.45,1.36,44.68,6.17,63.07,16.58,26.88,15.2,50.98,33.09,21.02,71.56-17.36,22.26-31.62,49.05-23.01,85.42,7.24,30.49-13.19,59.16-50.87,61.82-48.68,3.43-100.07-22.55-98.52-51.02,1.33-24.71,18.13-43.37,41.57-52.4,15.53-5.99,32.63-7.68,48.72-12.36,27.71-8.05,34.88-34.31,35.43-55.81.39-15.75-23.47-20.6-40.52-21.69-20.23-1.29-40.55-1.84-60.82-2.23-18.35-.35-36.72-.07-57.82-.07l-.02-.04h0ZM438.96,542.66c-11.24,11.33-27.38,13.01-30.77,27.66-3.43,14.76,6.95,21.21,19.88,22.55,13.86,1.42,30.05-.96,30.33-16.97.2-10.26-11.68-20.73-19.44-33.24h0Z"/>
  <path d="M573.33,773.2c.98,49.03-26.24,76.91-64.97,78.62-37.66,1.66-57.17-18.61-61.34-52.81-3.04-24.95,43.67-76.56,65.04-73.61,33.15,4.59,65.61,12.47,61.3,47.81h-.03ZM536.37,792.4c-.04-14.85-7.02-22.18-22.04-18.74-15.16,3.48-37.29-1.44-37.37,23.68-.07,19.46,15.88,25.63,31.58,24.36,15.79-1.27,28.63-9.97,27.82-29.3h.02-.01Z"/>
  <path d="M438.96,542.66c7.76,12.49,19.64,22.98,19.44,33.24-.31,16.01-16.47,18.39-30.33,16.97-12.92-1.33-23.31-7.79-19.88-22.55,3.41-14.65,19.53-16.34,30.77-27.66h0Z" fill="#dfe5bc"/>
  <path d="M536.39,792.43c.79,19.31-12.07,28.01-27.84,29.28-15.7,1.27-31.64-4.9-31.58-24.36.07-25.11,22.2-20.21,37.37-23.68,15.02-3.43,22,3.89,22.07,18.76h-.02Z" fill="#dfe5bc"/>
</svg>