<?xml version="1.0" encoding="UTF-8"?>
<svg id="Layer_1" xmlns="http://www.w3.org/2000/svg" version="1.1" viewBox="0 0 1080 1080">
  <!-- Generator: Adobe Illustrator 29.7.1, SVG Export Plug-In . SVG Version: 2.1.1 Build 8)  -->
  <path d="M133.51,586.1c-4.03,9.11-1.37,23.98-17.19,23.39-14.46-.53-15.77-12.54-16.76-23.53-3.85-42.75-8.44-85.43.68-128.21,9.09-42.61,79.36-89.91,122.21-81.49,25.26,4.97,38.95,32.46,28.52,63.19-5.73,16.88-9.2,30.11,10.99,37.86,13.84,5.32,11.19,20.16,17.52,29.89,6.22,9.57,9.79,20.89,18.59,35.68-1.29-46.59,24.84-62.8,63.45-66.67,23-2.3,41.64,6.63,52.64,24.52,13.07,21.26,21.6,45.39,31.38,68.59,5.15,12.23,4.25,25.39-8.77,31.28-16.42,7.42-19.71-4.72-22.25-18.08-2.56-13.5-8.89-11.51-20.38-5.68-46.97,23.84-70.11,15.81-97.97-32.99-35.88,68.16-92.46,59.45-151.22,42.21-7.05-28.65,7.32-34.61,31.52-29.39,10.51,2.27,20.69,7.6,31.18,8.13,23.26,1.16,51.37.03,53.06-28.91,1.55-26.51-21.28-40.69-47.44-44.27-5.63-.78-11.81.78-17.46,2.31-8.75,2.37-17.57,3.6-21.1-6.58-3.45-9.9.19-19.58,9.25-24.95,8.07-4.8,17.8-6.7,26.1-11.17,12.06-6.5,14.45-18.7,14.37-30.96-.05-8.26-6.61-12.31-14.01-13.95-28.89-6.44-74.04,29.25-78.32,58.77-5.88,40.61,5,80.65,1.41,121l.02.02h-.02ZM362.98,558.22c17.43.08,32.08-7.67,30.79-25.64-1.02-14.4-9.26-33.08-28.97-28.99-14,2.9-35.2,2.05-35.15,27,.05,23.42,14.7,27.22,33.33,27.61v.02h0Z" fill="#dfe5bc" stroke="#000" stroke-miterlimit="10" stroke-width="5"/>
  <path d="M179.65,1055.17c-29.87,5.29-50.23-17.81-72.39-35.49-9.37-7.48-9.19-18.84.54-28.17,9.03-8.67,17.27-10.71,26.77.05,6.11,6.91,13.62,12.8,21.32,17.81,13.08,8.52,29.47,22.81,41.98,6.98,13.08-16.56,18.95-40.63,2.19-59.73-19.93-22.69-38.89-45.9-69.82-56.59-34.37-11.89-29.19-48.42-31.3-76.52-3.69-49.12,44.16-100.34,85.18-98.76,29.97,1.15,37.71,24.97,47.75,45.11,9.14,18.34.37,37.2-9.06,54.07-2.92,5.21-7.6,10.69-13.8,7.82-3.1-1.43-4.14-7.77-5.96-11.98-.45-1.04-.34-2.37-.36-3.57-.37-20.92-4.03-50.42-23.01-49.92-26.77.71-40.07,30.63-45.65,56.63-4.19,19.46-6.92,41.2,19.83,52.47,31.56,13.31,55.51,37.72,73.77,67.99,18.37,30.43,11.64,59.99-1.99,89.17-8.63,18.47-24.35,24.77-46.03,22.67l.03-.03h0Z" fill="#dfe5bc" stroke="#000" stroke-miterlimit="10" stroke-width="5"/>
  <path d="M801.63,315c-9.3-2.02-18.98-3.03-27.81-6.3-9.96-3.69-15.15-11.92-12.77-22.95,2.05-9.48,9.61-15.55,18.23-14.09,24.27,4.1,43.58-12.46,66.23-13.97,12.62-.84,22.95-8.74,22.44-19.3-.99-20.45-10.07-39.06-25.36-53.77-12.71-12.23-14.85,5.4-22.3,8.02-22.08,7.74-41.2,8.07-54.67-15.67-4.93-8.69-9.71-17.32-8.44-26.86,1.66-12.46-11.9-31.33.61-35.47,19.74-6.53,18.39,16.45,23.01,28.57,4.07,10.65,8.92,22.95,20.61,21.17,13.31-2.03,16.99-14.94,15.69-28.4-1.19-12.34-1.52-25.09,14.85-27.98,19.82-3.49,13.21,13.69,18.62,22.53,11.79,19.29,27.79,36,41.98,53.82,31.58,39.65,23.79,79.62-20.97,103.89-21.83,11.84-41.67,30.04-69.97,26.77h.02Z" fill="#dfe5bc" stroke="#000" stroke-miterlimit="10" stroke-width="5"/>
  <path d="M830.88,461.15c-11.05-31.73,1.63-62.29-4.41-92.6-1.68-8.44,4.45-23.15,19.2-20.42,12.6,2.33,9.4,12.46,9,22.72-1.77,45.59,12.07,89.4,16.93,134.15,1.88,17.24,36.16,69.12-30.7,45.48-4.31-1.52-11.64,8.01-18.28,10.07-24.35,7.59-47.98,12.37-70.19-8.09-22.56-20.79-14.4-46.24-7.39-66.77,7.87-23.04,33.47-28.55,57.09-28.99,8.99-.17,18.02,2.68,28.74,4.44h.01ZM834.31,501.14c4.92-28.88-23.56-21.87-35.02-22.45-19.83-1.04-35.07,12.34-35.82,36.06-.85,27.2,22.92,24.61,35.61,23.68,17.52-1.27,37.71-9.31,35.23-37.29h0Z" fill="#dfe5bc" stroke="#000" stroke-miterlimit="10" stroke-width="5"/>
  <path d="M643.55,880.39c-1.01,39.76-9.5,78.51-4.41,118.06,1.63,12.66-9.87,23.11-19.54,10.75-15.77-20.13-26.92-3-37.99,2.22-26.72,12.62-41.08-7.79-57.77-20.84-14.74-11.51-13-31.44-4.81-42.41,13.9-18.59,30.34-39.07,59.4-30.17,18,5.52,27.17,1.41,24.01-22.22-2.65-19.79,1.16-40.47,1.78-60.77.34-11.37.81-22.73,15.69-22.28,13.11.4,16.95,10.2,18.22,21.97,1.66,15.43,3.65,30.8,5.43,45.69h-.02,0ZM602.21,957.67c-.22-15.88-7.06-20.7-19.93-20.3-19.68.64-34.84,8.78-37,29.55-1.47,14.12,11.27,20.65,23.7,19.8,18.16-1.26,27.64-14.56,33.22-29.05h0Z" fill="#dfe5bc" stroke="#000" stroke-miterlimit="10" stroke-width="5"/>
  <path d="M133.51,586.1c3.57-40.35-7.31-80.38-1.41-121,4.28-29.52,49.43-65.21,78.32-58.77,7.39,1.64,13.97,5.7,14.01,13.95.08,12.26-2.31,24.44-14.37,30.96-8.3,4.48-18.03,6.39-26.1,11.17-9.06,5.37-12.69,15.05-9.25,24.95,3.54,10.18,12.35,8.95,21.1,6.58,5.65-1.54,11.84-3.09,17.46-2.31,26.16,3.58,48.99,17.77,47.44,44.27-1.69,28.93-29.79,30.06-53.06,28.91-10.49-.53-20.67-5.85-31.18-8.13-24.19-5.21-38.56.74-31.52,29.39-3.82,0-7.62.02-11.44.03l-.02-.02.02.02Z"/>
  <path d="M187.95,54c-17.47,2.19-38.1,2.89-57.71,7.7-26.3,6.47-23.48,29.55-23.7,49.81-.2,18.73,7.7,29.47,28.07,28.13,5.91-.39,11.98.87,17.92,1.69,7.63,1.07,14.65,4.7,14.4,12.91-.25,8.4-7.46,12.77-15.27,11.45-35.3-6.04-41.23,10.18-30.94,39.54,5.38,15.35,4.11,33.15-12.27,35.69-18.44,2.86-19.2-16.9-20.65-30.82-3.93-37.77-7.34-75.59-10.82-113.39-3.99-43.3,15.97-62.38,60.52-68.2,24.98-3.26,49.25-7.9,73.43-.5,8.43,2.58,25.34,1.26,21.99,17.35-2.28,10.94-15.21,10.15-24.47,11.1-5.79.61-11.84-1.3-20.53-2.44l.03-.03h0Z" fill="#dfe5bc" stroke="#000" stroke-miterlimit="10" stroke-width="5"/>
  <path d="M651.7,497.29c14.15,17.64,26.01,37,49.98,26.77,15.89-6.77,19.23,3.68,20.9,14.82,1.57,10.43,3.15,21.2-11.76,25.79-26.09,8.02-75.22-15.19-91.18-44.4-22.47-41.08-18.93-72.98,10.71-96.29,23.63-18.61,71.83-6.61,82.36,21.83,9.28,25.09-2.64,41.53-26.96,48.32-10.8,3.03-22.66,2.22-34.03,3.15h-.02,0ZM634.75,472c20.34-7.39,39.93,5.96,53.88-9.7,5.37-6.02-3.74-17.5-11.06-18.9-17.89-3.41-36.2-3.34-42.8,28.6h-.02Z" fill="#dfe5bc" stroke="#000" stroke-linecap="round" stroke-linejoin="round" stroke-width="5"/>
  <path d="M511.1,508.74c2.48,20.45,5.34,36.87,6.15,53.4.47,9.48-1.77,21.1-13.45,22.47-12.99,1.51-13.47-9.48-15.1-19.49-7.51-46.21-15.3-92.36-16.56-139.29-.2-7.79-3.99-18.73,8.5-19.71,8.75-.68,10.23,8.32,11.95,15.44,1.41,5.79,5.04,11.47,4.93,17.15-.74,36.36,12.97,34.84,36.25,15.38,5.97-4.98,14.57-17.77,23.34-6.49,6.53,8.41-1.3,17.71-9.16,23.94-21.49,17.09-12.9,27.02,6.75,38.36,19.83,11.45,34.48,29.61,45.19,50,3.79,7.2,6.05,16.9-2.89,22.86-9.54,6.35-15.53-1.27-21.01-7.62-19.26-22.3-34.3-48.76-64.88-66.4h-.02,0Z" fill="#dfe5bc" stroke="#000" stroke-miterlimit="10" stroke-width="5"/>
  <path d="M960.79,1006.23c-8.26-4.21-22.86.68-24.94-13.78-2.44-16.96,11.1-14.37,21.06-15.16,12.51-.99,19.79-10.92,19.51-20.9-.31-11-12.45-11.65-21.74-12.35-3.46-.26-6.98-.37-10.34-1.18-26.18-6.35-55.28-11.41-53.27-48.59,1.58-29.42,46.23-60.21,75.48-55.73,10.89,1.68,17.78,8.72,17.99,18.53.25,12.49-11.65,7.39-18.48,9.7-9.78,3.32-19.63,6.56-29.1,10.71-9.87,4.33-20.13,10.96-17.54,23.42,2.75,13.22,15.16,11.53,25.57,12.07,28.6,1.46,52.89,10.41,57.98,44.23,4.14,27.51-15.5,49.67-42.21,49.07l.03-.03h0Z" fill="#dfe5bc" stroke="#000" stroke-miterlimit="10" stroke-width="5"/>
  <path d="M811.01,1000.22c-36.89,1.96-53.01-14.57-55.88-43.23-2.9-29.07,28.66-81.55,46.07-81.16,34.59.78,63.41,29.3,62.91,62.27-.59,40.21-21.74,62.03-53.12,62.13l.02-.02h0ZM838.72,945.04c2.17-24.07-12.4-34.42-31.02-35.72-22.66-1.58-28.18,18.13-29.05,36.23-.76,16,4.03,31.89,25.14,29.9,18.51-1.75,33.95-8.05,34.93-30.42h0Z" fill="#dfe5bc" stroke="#000" stroke-miterlimit="10" stroke-width="5"/>
  <path d="M367.03,914.89c18,22.07,24.88,39.18,31.91,56.36,5.52,13.49,13.58,28.46,29.87,22.89,17.72-6.05,21.14-25.73,17.95-41.57-3.24-16.17-15.98-37.59,5.74-41.23,18.9-3.18,22.11,21.9,25.08,40.08,3.57,21.9-5.17,40.72-13.9,58.18-12.12,24.19-50.45,27.65-69.27,6.28-22.27-25.29-33.44-55.76-27.37-100.99h-.01Z" fill="#dfe5bc" stroke="#000" stroke-miterlimit="10" stroke-width="5"/>
  <path d="M292.79,984.97c4.58-26.6,5.43-47.02-27.75-43.28-6.8.76-11.61-7.26-11.67-15.35-.06-6.58,3.69-13.42,9.34-13.25,33.95,1.02,24.83-22.59,22.72-41.77-1.21-11.02-2.76-24.66,9.22-26.58,12.71-2.03,8.05,13.75,12.01,21.12,9.09,16.91-5.73,46.55,25.56,51.83,5.21.88,6.95,7.93,3.09,11.2-23.96,20.34-7.39,46.79-10.32,70.17-1.72,13.7,2.86,34.14-14.98,34.39-18.09.26-15.22-19.68-15.35-33.89-.05-5.85-1.49-11.69-1.88-14.6v.02h.01Z" fill="#dfe5bc" stroke="#000" stroke-miterlimit="10" stroke-width="5"/>
  <path d="M662.34,198.64c1.19,7.67.92,15.46-7.84,17.64-8.63,2.16-13.05-4.38-15.1-11.75-1.91-6.87-1.6-14.59-4.47-20.95-3.88-8.6-9.9-18.54-20.28-17.43-11.02,1.16-6.83,13.38-9.14,20.69-2.98,9.44.99,25.06-15.24,22.92-10.77-1.41-16.23-11.69-18.37-23.79-6.46-36.37-13.84-72.61-22.18-108.6-1.47-6.36-4.28-11.55,2.27-14.73,8.74-4.25,12.8,1.94,15.52,9.33,3.71,10.06,8.15,19.86,11.24,30.11,6.47,21.4,6.52,42.77,42.04,41.39,27.82-1.09,37.54,28.94,41.57,55.15l-.02.02Z" fill="#dfe5bc" stroke="#000" stroke-miterlimit="10" stroke-width="5"/>
  <path d="M496.45,157.18c10.02,4.3,16.57,6.66,22.72,9.81,17.5,9,36.84,20.95,24.77,42.71-10.54,19.01-31.69,27.75-55.26,20.22-9.59-3.06-18.22-8.54-17.38-19.8,1.19-16.36,12.17-9.39,21.1-7.79,6.87,1.23,13.52-.36,18.9-6.86-9.4-13.76-25.78-10.44-38.21-16.06-10.68-4.83-24.72-6.81-23.73-22.35.85-13.42,12.91-15.32,23.57-17.69,6.98-1.55,13.76-4.64,20.78-5.28,10.63-.96,26.43-13.24,30.42,4.02,2.95,12.77-17.16,8.05-27.68,19.06v.02h0Z" fill="#dfe5bc" stroke="#000" stroke-miterlimit="10" stroke-width="5"/>
  <path d="M385.29,189.15c4.72,3.03,9.7,6.02,14.45,9.31,7.68,5.31,26.46.59,21.49,16.76-5.21,17.02-21.71,11-33.86,7.62-18.44-5.12-29.66-20.76-37.35-36.02-6.01-11.92-7.15-31.67,9.3-37.35,15.5-5.35,36.64-14.74,49.75,3.74,19.35,27.3-17.33,19.09-23.77,35.92v.02h0Z" fill="#dfe5bc" stroke="#000" stroke-miterlimit="10" stroke-width="5"/>
  <path d="M215.94,179.31c.99-24.04,20.48-29.47,35.46-37.45,17.58-9.34,36.7-10.97,54.61.95,4.05,2.68,7.14,6.89,4.59,12.03-2.93,5.93-8.6,8.64-14.96,7.95-42.29-4.61-57.53,14.59-49.01,55.12,1.49,7.08-1.61,12.45-8.52,12.9-6.3.4-11.11-3.68-12.68-10.54-3.18-13.98-6.49-27.95-9.51-40.95h.02,0Z" fill="#dfe5bc" stroke="#000" stroke-miterlimit="10" stroke-width="5"/>
  <path d="M684,47.92c20.92,50.17,21.28,102.87,23.31,155.35-28.38-49.24-23.71-102.56-23.31-155.35h0Z" fill="#dfe5bc" stroke="#000" stroke-linecap="round" stroke-linejoin="round" stroke-width="5"/>
  <path d="M712.09,982.3c2,10.23,7.7,22.24-6.25,23.8-10.29,1.16-14.8-11.62-17.27-19.88-5.03-16.85,1.72-35.41-4.81-52.67-.71-1.91,2.09-6.98,4.38-8.04,6.52-3.03,11.13,1.92,13.8,6.94,8.46,15.86,12.18,32.98,10.16,49.86v-.02h0Z" fill="#dfe5bc" stroke="#000" stroke-miterlimit="10" stroke-width="5"/>
  <path d="M362.98,558.22c-18.64-.39-33.29-4.19-33.33-27.61-.05-24.95,21.15-24.1,35.15-27,19.71-4.1,27.95,14.59,28.97,28.99,1.27,17.97-13.38,25.71-30.79,25.64v-.02Z"/>
  <path d="M834.31,501.14c2.48,27.98-17.71,36.03-35.23,37.29-12.69.92-36.47,3.52-35.61-23.68.74-23.74,15.98-37.1,35.82-36.06,11.47.61,39.94-6.42,35.02,22.45h0Z"/>
  <path d="M602.21,957.67c-5.59,14.49-15.08,27.79-33.22,29.05-12.41.85-25.16-5.68-23.7-19.8,2.16-20.76,17.32-28.93,37-29.55,12.85-.4,19.69,4.42,19.93,20.3h0Z"/>
  <path d="M634.75,472c6.6-31.94,24.91-32.01,42.8-28.6,7.32,1.4,16.43,12.88,11.06,18.9-13.94,15.66-33.53,2.31-53.88,9.7h.02Z"/>
  <path d="M838.72,945.04c-.98,22.36-16.42,28.66-34.93,30.42-21.1,2-25.9-13.9-25.14-29.9.87-18.09,6.39-37.8,29.05-36.23,18.62,1.29,33.19,11.65,31.02,35.72h0Z"/>
</svg>