<?xml version="1.0" encoding="UTF-8"?>
<svg id="Layer_1" xmlns="http://www.w3.org/2000/svg" version="1.1" viewBox="0 0 1080 1080">
  <!-- Generator: Adobe Illustrator 29.7.1, SVG Export Plug-In . SVG Version: 2.1.1 Build 8)  -->
  <path d="M798.08,137.47c-3.32,12.67-8.14,27.21-10.84,42.13-4.48,24.78-17.76,26.62-37.65,17.15-31.51-15.01-63.88-.05-95.92-1.29-52.05-2.01-105.43-5.01-156.18,3.99-64.06,11.38-133.5.11-191.73,40.1-5.88,4.04-12.55,12.35-21.26,2.66-24.25-26.91-47.5-55.37-58.18-89.88-7.94-25.68,11.14-30.23,32.46-25.63,65.08,14.04,64.43,13.66,99.7-45.42,15.82-26.49,41.12-26.02,65.57-14.05,14.74,7.21,27.18,19.11,40.67,28.85,28.72,20.72,53.34,21.82,79.26-7.87,47.05-53.88,66.14-54.82,112.71-4.55,23.92,25.81,46.17,25.85,72.11,8.61,15.12-10.03,28.54-23.36,48.67-12.96,23.99,12.38,13.88,36.92,20.61,58.18h.02l-.02-.02Z" fill="#dfe5bc"/>
  <path d="M745.74,450.7c-5.64,32.37,10.32,66.41-7.96,98.08-2.88,4.96-3.25,14.5,5.57,17.15,7.12,2.14,15.6-.43,16.57-8.2,3.2-25.79,17.58-8.39,25.79-6.31,20.53,5.25,5.12,18.51,2.03,24.96-10.66,22.3-20.87,46.21-37.11,64.22-69.63,77.18-112.92,170.72-165.15,258.74-9.53,16.05-16,32.67-42.27,31.45-30.9-1.44-49.87-18.04-62.58-40.53-10.89-19.25,22.34-30.99,17.29-53.02-.84-3.68,7.03-8.66,1.04-14.07-58.61,34.33-56.99,33.54-85.66-32.5-17.04-39.22-35.91-77.62-50.18-118.03,1.85-1.64,3.52-3.41,5.03-5.37,40.39-5.14,25.72-28.54,16.61-50.11,2.23-1.08,4.22-2.48,6.02-4.19,21.5,30.27,25,68.93,49.48,98.65,42.33,51.4,95.38,55.97,141.34,7.84,14.29-14.97,26.06-32.8,41.93-45.69,15.8-12.81,15.4-35.64,35.82-45.17-8.77,23.35,6.96,55.27-29.49,69.18-8.14,3.11-11.25,16.25-6.63,26.06,1.91,4.04,8.27,8.34,12.65,8.39,10.42.11,19.14-6.61,22.52-15.74,4.26-11.52,4.8-24.37,7.76-36.43,5.5-22.32,6.15-46.96,41.73-44.63,17.06,1.11,24.19-16.41,20.06-34.04-7.19-30.57-29.48-15.33-48.92-14.25,20.42-48.37,40.22-95.31,60.05-142.27,2.23,1.94,4.46,3.88,6.67,5.84v-.02h-.01ZM500.21,818.61l3.72,4.74c5.12-3.24,10.14-6.69,15.4-9.67,12.33-6.99,16.36-36.29,32.3-24.01,18.28,14.07-13.41,28.38-12.26,46.3.23,3.59-9.71,8.81-15.71,11.65-11.05,5.23-25.79,6.99-22.11,24.53,1.99,9.47,10.55,13.3,19.2,12.83,14.99-.81,28.5-7.76,30.32-23.42,2.17-18.76,11.95-33.79,17.97-50.61,4.06-11.34,18.46-26.51-.36-36.36-17.11-8.95-34.67-9.08-46.15,12.02-6.18,11.36-14.79,21.37-22.32,31.99h0Z" fill="#dfe5bc"/>
  <path d="M424.83,246.89c54.12-13.19,113.53-11.34,172.47-15.91,35.82-2.79,71.57-7.31,107.51-6.27,14.68.43,34.74-7.49,40.69,16.36,6.88,27.61,4.6,54.64-10.17,78.88-7.17,11.75-16.68-.05-25.14-2.43-36.57-10.28-79.73-6.47-90.15,37.87-4.62,19.64-15.17,16.66-26.98,8.66-11.88-8.05-23.17-17.07-34.17-26.31-33.59-28.18-70.58-21.26-91.1,19.07-12.37,24.28-24.03,38.93-52.27,17.81-11.56-8.64-27.53-13.26-43.42-11.14-56.47,7.55-41.73-39.94-49.62-67.16-8.5-29.37,13.75-38.41,37.94-41.48,20.17-2.55,38.23-18.04,64.45-7.94h-.04Z" fill="#dfe5bc"/>
  <path d="M289.95,644.95c29.33,21.86,40.06,55.03,51.94,86.32,27.84,73.38,65.04,140.76,120.98,196.05,58.79,58.11,117.6,51.1,158.59-19.57,59.67-102.86,123.87-202.66,190.39-301.17,18.31-27.12,30.03-58.68,46.77-92.2,17.6,49.43-6.58,88.8-25.99,124.84-65.69,121.91-139.09,239.45-215.76,354.79-38.25,57.53-54.37,56.96-110.37,18.35-56.4-38.88-81.7-99.48-118.1-152.68-45.06-65.87-72.99-139.47-98.42-214.7l-.02-.02h-.01Z" fill="#dfe5bc"/>
  <path d="M393.92,518.57c-12.04-36.41-22.65-67.72-32.62-99.23-2.43-7.67-5.81-16.86,1.85-23.4,7.35-6.29,15.58-2.61,23.15,1.08,8.73,4.26,17.27,8.95,26.15,12.85,42.54,18.64,61.29,14.09,78.65-27.95,14.47-35.05,31.56-32.28,56.13-13.5,14.29,10.93,28.07,23.96,44.3,30.57,26.58,10.86,51.55,13.66,55-28.02,2.84-34.24,29.21-30.91,53.43-27.5,32.33,4.55,21.3,24.86,14.9,42.83-7.31,20.56-13.07,42.13-23.63,60.95-11.16,19.88-12.47,59.78-55.88,29.84-12.89-8.9-41.39-7.91-55.28,19.27-12.89,25.25-30.41,32.73-57.6,7.62-51.65-47.72-80.43-43.4-128.56,14.59h.02,0Z" fill="#dfe5bc"/>
  <path d="M613.69,619.07c-7.44-4.91-12.92-9.18-18.96-12.38-28.58-15.1-56.22-14.23-79.42,9.51-34.83,35.66-56.63-4.87-77.3-17.24-27.71-16.57-31.42-45.36-5.64-75.27,21.94-25.45,42.16-16.12,62.56-4.87,58.59,32.33,58.12,32.91,109.96-11.14,15.31-13.01,30.81-7.69,46.41.58,17.97,9.53,12.19,22.43,5.61,35.28-10.75,20.99-21.86,41.8-33.12,62.53-2.41,4.42-6.18,8.07-10.08,13.01h-.02Z" fill="#dfe5bc"/>
  <path d="M355.3,663.53c-26.1-42.29-37.99-90.87-57.69-135.95-15.98-36.54-3.06-79.51,3.22-119.52,46.71,62.64,54.21,139.81,89.95,204.98-1.78,1.64-3.79,3.04-6,4.12-38.91-4.55-24.23,22.36-23.92,40.82-1.91,1.78-3.76,3.63-5.54,5.55h-.02,0Z" fill="#dfe5bc"/>
  <path d="M739.07,444.88c12.46-41.91,18.91-85.95,46.66-124.53-.13,72.23,78.65,134.22,23.29,215.57-17.49-15.15-12.24-33.88-13.41-50.5-3.52-50.13-4.19-50.77-49.86-34.69-2.23-1.94-4.46-3.88-6.67-5.84h-.02.01Z" fill="#dfe5bc"/>
  <path d="M453.46,658.34c36.41,3.81,65.98,3.7,88.97-23.47,9.24-10.91,24.96-12.29,38.95-8.16,17.29,5.12,26.44,13.43,10.1,31.18-12.94,14.05-23.1,30.64-35.77,45-20.6,23.36-55.46,17.72-82.48-13.34-6.9-7.93-11.47-17.9-19.79-31.22h.02Z" fill="#dfe5bc"/>
  <path d="M363.11,672.63c-2.61-3.04-5.21-6.06-7.82-9.09,1.78-1.92,3.63-3.77,5.54-5.55,2.44,3.09,4.87,6.18,7.31,9.27-1.51,1.94-3.2,3.74-5.03,5.37h0Z" fill="#dfe5bc"/>
  <g>
    <path d="M886.18,545.92c-1.51,39.99-17.45,71.19-33.45,101.46-66.63,126.1-143.32,246.28-219.95,366.38-36.43,57.1-76.37,61.47-134.01,25.5-67.04-41.84-97.95-111.52-138.66-173.67-55.21-84.29-100.22-173.13-116.82-274.18-2.07-12.62-3.47-24.1-.99-36.84,13.61-70.13,6.02-142.74,27.39-212.44,10.42-33.97,1.8-67.61-25.22-96.05-16.95-17.85-28.72-40.96-41.16-62.67-14.14-24.68-15.35-52.39,1.69-74.46,15.17-19.63,42.6-17.61,62.26-9.24,35.23,15.01,50.7,9.04,63.5-29.3,11.9-35.68,80.95-48.44,112.4-26.74,11.39,7.85,24.43,14.22,33.74,24.07,18.17,19.25,31.09,15.37,48.11-2.57,58.59-61.74,92.33-62.83,151.53-5.91,13.89,13.37,23.85,18.76,42.43,5.73,21.41-14.99,46.84-27.53,73.44-10.46,29.55,18.96,32.66,50.56,32.17,81.29-.38,25.09-7.76,50.65-22.09,70.8-19.09,26.83-12.9,49.95-2.35,77.19,27.77,71.8,53.81,144.32,78.42,217.27,5.03,14.92,11.92,31.69,7.6,44.82l.02.02h0ZM355.3,663.53c2.61,3.04,5.21,6.06,7.82,9.09,14.27,40.4,33.14,78.81,50.18,118.03,28.67,66.01,27.07,66.82,85.66,32.5,5.99,5.43-1.89,10.41-1.04,14.07,5.05,22.03-28.18,33.77-17.29,53.02,12.71,22.48,31.69,39.09,62.58,40.53,26.28,1.22,32.75-15.4,42.27-31.45,52.23-88.01,95.53-181.56,165.15-258.74,16.25-18.01,26.44-41.91,37.11-64.22,3.07-6.45,18.49-19.72-2.03-24.96-8.21-2.1-22.59-19.48-25.79,6.31-.97,7.78-9.44,10.33-16.57,8.2-8.82-2.64-8.43-12.19-5.57-17.15,18.28-31.67,2.3-65.69,7.96-98.08,45.69-16.09,46.33-15.44,49.86,34.69,1.17,16.64-4.08,35.35,13.41,50.5,55.37-81.35-23.42-143.33-23.29-215.57-27.75,38.59-34.2,82.62-46.66,124.53-19.82,46.95-39.63,93.91-60.05,142.27,19.45-1.08,41.75-16.32,48.92,14.25,4.13,17.63-3,35.15-20.06,34.04-35.59-2.34-36.23,22.3-41.73,44.63-2.98,12.06-3.5,24.91-7.76,36.43-3.38,9.13-12.1,15.87-22.52,15.74-4.39-.05-10.75-4.35-12.65-8.39-4.62-9.81-1.49-22.95,6.63-26.06,36.45-13.91,20.72-45.83,29.49-69.18-20.42,9.51-20.02,32.33-35.82,45.17-15.87,12.89-27.64,30.72-41.93,45.69-45.96,48.13-99.01,43.57-141.34-7.84-24.48-29.73-27.98-68.39-49.52-98.53-35.73-65.22-43.21-142.4-89.94-205.03-6.27,40.01-19.2,83-3.22,119.52,19.72,45.08,31.61,93.66,57.69,135.95l.04.04h.01ZM798.08,137.47c-6.74-21.26,3.36-45.79-20.61-58.18-20.13-10.41-33.56,2.93-48.67,12.96-25.93,17.24-48.19,17.2-72.11-8.61-46.57-50.27-65.66-49.34-112.71,4.55-25.92,29.67-50.56,28.59-79.26,7.87-13.5-9.74-25.95-21.64-40.67-28.85-24.44-11.95-49.75-12.44-65.57,14.05-35.26,59.08-34.62,59.45-99.7,45.42-21.33-4.6-40.4-.05-32.46,25.63,10.68,34.51,33.93,62.98,58.18,89.88,8.73,9.69,15.38,1.38,21.26-2.66,58.23-39.99,127.66-28.72,191.73-40.1,50.76-9,104.14-6,156.18-3.99,32.05,1.24,64.41-13.71,95.92,1.29,19.9,9.47,33.18,7.64,37.65-17.15,2.7-14.92,7.51-29.44,10.84-42.13h-.02l.02.02ZM424.83,246.89c-26.22-10.1-44.29,5.39-64.45,7.94-24.19,3.06-46.44,12.11-37.94,41.48,7.89,27.25-6.85,74.71,49.62,67.16,15.91-2.12,31.87,2.5,43.42,11.14,28.22,21.1,39.9,6.47,52.27-17.81,20.54-40.33,57.53-47.25,91.1-19.07,11,9.24,22.29,18.28,34.17,26.31,11.81,8,22.36,10.98,26.98-8.66,10.42-44.34,53.58-48.15,90.15-37.87,8.47,2.37,17.99,14.2,25.14,2.43,14.77-24.25,17.06-51.28,10.17-78.88-5.95-23.83-26.01-15.92-40.69-16.36-35.95-1.04-71.69,3.49-107.51,6.27-58.92,4.57-118.35,2.71-172.47,15.91h.04ZM289.95,644.95c25.41,75.25,53.34,148.83,98.42,214.7,36.4,53.22,61.7,113.8,118.1,152.68,56.02,38.62,72.13,39.18,110.37-18.35,76.67-115.33,150.07-232.87,215.76-354.79,19.41-36.04,43.6-75.41,25.99-124.84-16.73,33.52-28.45,65.1-46.77,92.2-66.52,98.51-130.72,198.31-190.39,301.17-40.98,70.65-99.8,77.66-158.59,19.57-55.95-55.28-93.15-122.67-120.98-196.05-11.86-31.29-22.61-64.47-51.94-86.32l.02.02h.01ZM393.92,518.57c48.11-58.02,76.91-62.31,128.56-14.59,27.18,25.11,44.7,17.63,57.6-7.62,13.88-27.18,42.38-28.16,55.28-19.27,43.42,29.94,44.73-9.97,55.88-29.84,10.57-18.82,16.32-40.39,23.63-60.95,6.4-17.97,17.43-38.28-14.9-42.83-24.21-3.41-50.59-6.74-53.43,27.5-3.45,41.7-28.42,38.88-55,28.02-16.23-6.63-30.01-19.64-44.3-30.57-24.57-18.8-41.66-21.55-56.13,13.5-17.36,42.04-36.11,46.59-78.65,27.95-8.9-3.9-17.42-8.59-26.15-12.85-7.57-3.68-15.82-7.37-23.15-1.08-7.64,6.54-4.26,15.74-1.85,23.4,9.96,31.51,20.58,62.82,32.62,99.23h-.02.01ZM613.69,619.07c3.88-4.94,7.67-8.61,10.08-13.01,11.27-20.72,22.38-41.54,33.12-62.53,6.58-12.85,12.38-25.74-5.61-35.28-15.6-8.27-31.09-13.59-46.41-.58-51.83,44.05-51.37,43.48-109.96,11.14-20.4-11.25-40.62-20.58-62.56,4.87-25.77,29.91-22.07,58.7,5.64,75.27,20.67,12.35,42.47,52.88,77.3,17.24,23.2-23.74,50.85-24.6,79.42-9.51,6.04,3.2,11.5,7.48,18.96,12.38h.02ZM453.46,658.34c8.3,13.32,12.89,23.27,19.79,31.22,27.01,31.08,61.88,36.7,82.48,13.34,12.65-14.36,22.83-30.93,35.77-45,16.32-17.76,7.19-26.06-10.1-31.18-13.98-4.15-29.71-2.77-38.95,8.16-22.99,27.18-52.55,27.28-88.97,23.47h-.02Z"/>
    <path d="M500.21,818.61c7.51-10.62,16.14-20.65,22.32-31.99,11.48-21.1,29.04-20.97,46.15-12.02,18.82,9.85,4.42,25.02.36,36.36-6.02,16.82-15.8,31.85-17.97,50.61-1.82,15.64-15.31,22.59-30.32,23.42-8.64.47-17.22-3.34-19.2-12.83-3.68-17.54,11.05-19.3,22.11-24.53,6.02-2.84,15.94-8.05,15.71-11.65-1.17-17.92,30.52-32.23,12.26-46.3-15.96-12.29-19.99,17.02-32.3,24.01-5.27,2.98-10.28,6.43-15.4,9.67l-3.72-4.74h0Z"/>
    <path d="M368.15,667.26c-2.44-3.09-4.87-6.18-7.31-9.27-.31-18.48-14.99-45.38,23.92-40.82,9.11,21.57,23.78,44.97-16.61,50.11v-.02h0Z"/>
  </g>
</svg>